<svg width="249" height="76" viewBox="0 0 249 76" fill="none" xmlns="http://www.w3.org/2000/svg">
<path d="M89.3719 39.2487L95.4149 25.1445H97.4365L103.48 39.2487H101.694L99.9525 35.158H92.8989L91.157 39.2487H89.3719ZM93.5226 33.6878H99.3289L96.4257 26.8064L93.5226 33.6878Z" fill="white"/>
<path d="M124.041 39.2487L118.278 25.1445H120.042L124.966 37.4375L129.891 25.1445H131.654L125.891 39.2487H124.041Z" fill="white"/>
<path d="M146.449 39.2487L152.492 25.1445H154.513L160.556 39.2487H158.771L157.029 35.158H149.976L148.234 39.2487H146.449ZM150.599 33.6878H156.406L153.502 26.8064L150.599 33.6878Z" fill="white"/>
<path d="M177.956 39.2487V25.1445H179.569V37.7145H187.333V39.2487H177.956Z" fill="white"/>
<path d="M210.707 39.4191C209.632 39.4191 208.65 39.2343 207.761 38.8652C206.872 38.4958 206.105 37.9774 205.46 37.3098C204.829 36.6422 204.341 35.8751 203.997 35.0088C203.653 34.1282 203.481 33.1909 203.481 32.1966C203.481 31.1881 203.653 30.2506 203.997 29.3843C204.341 28.5178 204.829 27.751 205.46 27.0834C206.105 26.4158 206.872 25.8974 207.761 25.528C208.65 25.1587 209.632 24.9741 210.707 24.9741C211.782 24.9741 212.764 25.1587 213.653 25.528C214.542 25.8974 215.302 26.4158 215.933 27.0834C216.578 27.751 217.073 28.5178 217.417 29.3843C217.761 30.2506 217.933 31.1881 217.933 32.1966C217.933 33.1909 217.761 34.1282 217.417 35.0088C217.073 35.8751 216.578 36.6422 215.933 37.3098C215.302 37.9774 214.542 38.4958 213.653 38.8652C212.764 39.2343 211.782 39.4191 210.707 39.4191ZM210.707 37.8638C211.868 37.8638 212.865 37.6151 213.696 37.1182C214.542 36.6066 215.187 35.9249 215.632 35.0727C216.091 34.2064 216.32 33.2477 216.32 32.1966C216.32 31.1313 216.091 30.1726 215.632 29.3205C215.187 28.4681 214.542 27.7934 213.696 27.2965C212.865 26.7849 211.868 26.5294 210.707 26.5294C209.56 26.5294 208.564 26.7849 207.718 27.2965C206.872 27.7934 206.22 28.4681 205.761 29.3205C205.317 30.1726 205.094 31.1313 205.094 32.1966C205.094 33.2477 205.317 34.2064 205.761 35.0727C206.22 35.9249 206.872 36.6066 207.718 37.1182C208.564 37.6151 209.56 37.8638 210.707 37.8638Z" fill="white"/>
<path d="M236.104 39.2487V25.1445H237.975L246.771 37.0116V25.1445H248.383V39.2487H246.513L237.717 27.3389V39.2487H236.104Z" fill="white"/>
<path opacity="0.35" d="M91.8635 51.0979C91.3782 51.0979 90.9592 50.9886 90.6062 50.7702C90.2533 50.5468 89.9811 50.2481 89.7899 49.8741C89.6036 49.5002 89.5106 49.0848 89.5106 48.6283C89.5106 48.1718 89.6036 47.7567 89.7899 47.3828C89.9811 47.0088 90.2533 46.7127 90.6062 46.494C90.9592 46.2705 91.3782 46.1589 91.8635 46.1589C92.2312 46.1589 92.562 46.2246 92.8562 46.3556C93.1503 46.4819 93.4003 46.6566 93.6062 46.8801C93.8121 47.1035 93.9666 47.3633 94.0695 47.6595H93.4885C93.3659 47.3633 93.1724 47.1278 92.9076 46.953C92.6428 46.778 92.3097 46.6907 91.9076 46.6907C91.5156 46.6907 91.1797 46.778 90.9003 46.953C90.6259 47.123 90.4174 47.3537 90.2752 47.6451C90.1332 47.9365 90.0621 48.2642 90.0621 48.6283C90.0621 48.9879 90.1332 49.3156 90.2752 49.6118C90.4174 49.9031 90.6259 50.1365 90.9003 50.3112C91.1797 50.4811 91.5156 50.5662 91.9076 50.5662C92.3097 50.5662 92.6428 50.4788 92.9076 50.3039C93.1724 50.1291 93.3659 49.8936 93.4885 49.5974H94.0695C93.9666 49.8888 93.8121 50.1486 93.6062 50.3768C93.4003 50.6 93.1503 50.7775 92.8562 50.9086C92.562 51.0348 92.2312 51.0979 91.8635 51.0979Z" fill="white"/>
<path opacity="0.35" d="M98.1685 51.0396V46.2173H100.499C100.999 46.2173 101.397 46.3531 101.691 46.6251C101.99 46.8972 102.139 47.2639 102.139 47.7252C102.139 48.036 102.078 48.2837 101.955 48.4682C101.838 48.6528 101.688 48.7935 101.507 48.8907C101.325 48.9831 101.144 49.051 100.963 49.0947L102.242 51.0396H101.588L100.411 49.1894H98.72V51.0396H98.1685ZM98.72 48.6723H100.404C100.58 48.6723 100.759 48.6455 100.941 48.592C101.122 48.5387 101.274 48.444 101.397 48.3079C101.524 48.167 101.588 47.9729 101.588 47.7252C101.588 47.4191 101.482 47.1788 101.271 47.004C101.061 46.8243 100.781 46.7344 100.433 46.7344H98.72V48.6723Z" fill="white"/>
<path opacity="0.35" d="M107.729 51.0396V49.131L105.685 46.2173H106.354L108.001 48.5629L109.648 46.2173H110.318L108.281 49.131V51.0396H107.729Z" fill="white"/>
<path opacity="0.35" d="M114.206 51.0396V46.2173H116.397C116.916 46.2173 117.326 46.3582 117.625 46.6397C117.924 46.9164 118.073 47.2929 118.073 47.7688C118.073 48.2448 117.924 48.6235 117.625 48.9053C117.326 49.182 116.916 49.3204 116.397 49.3204H114.757V51.0396H114.206ZM114.757 48.8106H116.36C116.742 48.8106 117.032 48.7182 117.228 48.5336C117.424 48.3493 117.522 48.0943 117.522 47.7688C117.522 47.4484 117.424 47.1957 117.228 47.0114C117.032 46.8268 116.742 46.7344 116.36 46.7344H114.757V48.8106Z" fill="white"/>
<path opacity="0.35" d="M123.3 51.0396V46.7344H121.602V46.2173H125.551V46.7344H123.852V51.0396H123.3Z" fill="white"/>
<path opacity="0.35" d="M131.478 51.0979C131.11 51.0979 130.775 51.0348 130.471 50.9086C130.167 50.7823 129.905 50.6051 129.684 50.3768C129.468 50.1486 129.302 49.8862 129.184 49.5901C129.066 49.2888 129.008 48.9684 129.008 48.6283C129.008 48.2837 129.066 47.963 129.184 47.6668C129.302 47.3706 129.468 47.1083 129.684 46.8801C129.905 46.6518 130.167 46.4746 130.471 46.3483C130.775 46.2221 131.11 46.1589 131.478 46.1589C131.846 46.1589 132.182 46.2221 132.485 46.3483C132.789 46.4746 133.049 46.6518 133.265 46.8801C133.485 47.1083 133.655 47.3706 133.772 47.6668C133.89 47.963 133.949 48.2837 133.949 48.6283C133.949 48.9684 133.89 49.2888 133.772 49.5901C133.655 49.8862 133.485 50.1486 133.265 50.3768C133.049 50.6051 132.789 50.7823 132.485 50.9086C132.182 51.0348 131.846 51.0979 131.478 51.0979ZM131.478 50.5662C131.875 50.5662 132.216 50.4811 132.5 50.3112C132.789 50.1365 133.01 49.9031 133.162 49.6118C133.319 49.3156 133.397 48.9879 133.397 48.6283C133.397 48.2642 133.319 47.9365 133.162 47.6451C133.01 47.3537 132.789 47.123 132.5 46.953C132.216 46.778 131.875 46.6907 131.478 46.6907C131.086 46.6907 130.745 46.778 130.456 46.953C130.167 47.123 129.944 47.3537 129.787 47.6451C129.635 47.9365 129.559 48.2642 129.559 48.6283C129.559 48.9879 129.635 49.3156 129.787 49.6118C129.944 49.9031 130.167 50.1365 130.456 50.3112C130.745 50.4811 131.086 50.5662 131.478 50.5662Z" fill="white"/>
<path opacity="0.35" d="M144.683 51.0979C144.203 51.0979 143.813 51.0348 143.514 50.9086C143.215 50.7775 142.99 50.5978 142.838 50.3695C142.691 50.1412 142.605 49.8837 142.58 49.5974H143.154C143.169 49.8304 143.247 50.0198 143.389 50.1655C143.531 50.3064 143.718 50.4107 143.948 50.4788C144.183 50.5468 144.441 50.5808 144.72 50.5808C145.132 50.5808 145.458 50.5104 145.698 50.3695C145.938 50.2238 146.058 50.0102 146.058 49.7284C146.058 49.5585 145.997 49.4224 145.875 49.3204C145.757 49.2136 145.598 49.1262 145.397 49.0583C145.201 48.9901 144.985 48.9295 144.75 48.876C144.514 48.8179 144.276 48.7571 144.036 48.694C143.801 48.6308 143.583 48.5508 143.382 48.4536C143.186 48.3564 143.027 48.2327 142.904 48.0822C142.786 47.9266 142.728 47.7299 142.728 47.4921C142.728 47.0987 142.88 46.778 143.183 46.5304C143.492 46.2827 143.95 46.1589 144.558 46.1589C144.99 46.1589 145.345 46.2246 145.625 46.3556C145.904 46.4819 146.112 46.6495 146.25 46.8583C146.392 47.0672 146.47 47.2929 146.485 47.5358H145.919C145.889 47.2929 145.767 47.0889 145.551 46.9237C145.335 46.7538 145.005 46.669 144.558 46.669C144.284 46.669 144.061 46.6955 143.889 46.749C143.718 46.8023 143.585 46.8727 143.492 46.9603C143.404 47.0429 143.343 47.1303 143.308 47.2224C143.279 47.3148 143.264 47.4022 143.264 47.4848C143.264 47.6451 143.323 47.7762 143.441 47.8782C143.563 47.9751 143.723 48.0577 143.919 48.1259C144.12 48.189 144.34 48.2473 144.58 48.3006C144.821 48.3541 145.058 48.4147 145.294 48.4826C145.534 48.5457 145.752 48.6283 145.948 48.7303C146.149 48.8275 146.308 48.9538 146.426 49.1093C146.549 49.2646 146.61 49.4638 146.61 49.7065C146.61 50.1534 146.438 50.4983 146.095 50.7409C145.752 50.979 145.281 51.0979 144.683 51.0979Z" fill="white"/>
<path opacity="0.35" d="M151.942 51.0396V46.7344H150.244V46.2173H154.192V46.7344H152.494V51.0396H151.942Z" fill="white"/>
<path opacity="0.35" d="M160.12 51.0979C159.752 51.0979 159.416 51.0348 159.112 50.9086C158.809 50.7823 158.546 50.6051 158.326 50.3768C158.11 50.1486 157.943 49.8862 157.826 49.5901C157.708 49.2888 157.649 48.9684 157.649 48.6283C157.649 48.2837 157.708 47.963 157.826 47.6668C157.943 47.3706 158.11 47.1083 158.326 46.8801C158.546 46.6518 158.809 46.4746 159.112 46.3483C159.416 46.2221 159.752 46.1589 160.12 46.1589C160.488 46.1589 160.823 46.2221 161.127 46.3483C161.431 46.4746 161.691 46.6518 161.907 46.8801C162.127 47.1083 162.296 47.3706 162.414 47.6668C162.532 47.963 162.591 48.2837 162.591 48.6283C162.591 48.9684 162.532 49.2888 162.414 49.5901C162.296 49.8862 162.127 50.1486 161.907 50.3768C161.691 50.6051 161.431 50.7823 161.127 50.9086C160.823 51.0348 160.488 51.0979 160.12 51.0979ZM160.12 50.5662C160.517 50.5662 160.858 50.4811 161.142 50.3112C161.431 50.1365 161.652 49.9031 161.804 49.6118C161.961 49.3156 162.039 48.9879 162.039 48.6283C162.039 48.2642 161.961 47.9365 161.804 47.6451C161.652 47.3537 161.431 47.123 161.142 46.953C160.858 46.778 160.517 46.6907 160.12 46.6907C159.728 46.6907 159.387 46.778 159.098 46.953C158.809 47.123 158.586 47.3537 158.429 47.6451C158.277 47.9365 158.201 48.2642 158.201 48.6283C158.201 48.9879 158.277 49.3156 158.429 49.6118C158.586 49.9031 158.809 50.1365 159.098 50.3112C159.387 50.4811 159.728 50.5662 160.12 50.5662Z" fill="white"/>
<path opacity="0.35" d="M168.789 51.0979C168.303 51.0979 167.884 50.9886 167.531 50.7702C167.178 50.5468 166.906 50.2481 166.715 49.8741C166.529 49.5002 166.436 49.0848 166.436 48.6283C166.436 48.1718 166.529 47.7567 166.715 47.3828C166.906 47.0088 167.178 46.7127 167.531 46.494C167.884 46.2705 168.303 46.1589 168.789 46.1589C169.156 46.1589 169.487 46.2246 169.781 46.3556C170.075 46.4819 170.325 46.6566 170.531 46.8801C170.737 47.1035 170.892 47.3633 170.995 47.6595H170.414C170.291 47.3633 170.098 47.1278 169.833 46.953C169.568 46.778 169.235 46.6907 168.833 46.6907C168.441 46.6907 168.105 46.778 167.826 46.953C167.551 47.123 167.343 47.3537 167.201 47.6451C167.058 47.9365 166.987 48.2642 166.987 48.6283C166.987 48.9879 167.058 49.3156 167.201 49.6118C167.343 49.9031 167.551 50.1365 167.826 50.3112C168.105 50.4811 168.441 50.5662 168.833 50.5662C169.235 50.5662 169.568 50.4788 169.833 50.3039C170.098 50.1291 170.291 49.8936 170.414 49.5974H170.995C170.892 49.8888 170.737 50.1486 170.531 50.3768C170.325 50.6 170.075 50.7775 169.781 50.9086C169.487 51.0348 169.156 51.0979 168.789 51.0979Z" fill="white"/>
<path opacity="0.35" d="M175.094 51.0396V46.2173H175.645V48.7303L178.351 46.2173H179.13L177.057 48.1549L179.248 51.0396H178.557L176.653 48.5266L175.645 49.4588V51.0396H175.094Z" fill="white"/>
<path opacity="0.35" d="M187.914 51.0396V46.2173H191.495V46.7417H188.465V48.3589H191.171V48.8907H188.465V50.5152H191.495V51.0396H187.914Z" fill="white"/>
<path opacity="0.35" d="M195.041 51.0396L196.983 48.5483L195.174 46.2173H195.872L197.313 48.1112L198.762 46.2173H199.461L197.652 48.5483L199.593 51.0396H198.894L197.313 48.9707L195.74 51.0396H195.041Z" fill="white"/>
<path opacity="0.35" d="M205.284 51.0979C204.798 51.0979 204.379 50.9886 204.026 50.7702C203.673 50.5468 203.401 50.2481 203.21 49.8741C203.024 49.5002 202.931 49.0848 202.931 48.6283C202.931 48.1718 203.024 47.7567 203.21 47.3828C203.401 47.0088 203.673 46.7127 204.026 46.494C204.379 46.2705 204.798 46.1589 205.284 46.1589C205.651 46.1589 205.982 46.2246 206.276 46.3556C206.57 46.4819 206.82 46.6566 207.026 46.8801C207.232 47.1035 207.386 47.3633 207.489 47.6595H206.909C206.786 47.3633 206.593 47.1278 206.328 46.953C206.063 46.778 205.73 46.6907 205.328 46.6907C204.936 46.6907 204.6 46.778 204.32 46.953C204.046 47.123 203.838 47.3537 203.695 47.6451C203.553 47.9365 203.482 48.2642 203.482 48.6283C203.482 48.9879 203.553 49.3156 203.695 49.6118C203.838 49.9031 204.046 50.1365 204.32 50.3112C204.6 50.4811 204.936 50.5662 205.328 50.5662C205.73 50.5662 206.063 50.4788 206.328 50.3039C206.593 50.1291 206.786 49.8936 206.909 49.5974H207.489C207.386 49.8888 207.232 50.1486 207.026 50.3768C206.82 50.6 206.57 50.7775 206.276 50.9086C205.982 51.0348 205.651 51.0979 205.284 51.0979Z" fill="white"/>
<path opacity="0.35" d="M211.589 51.0396V46.2173H212.14V48.3589H214.971V46.2173H215.522V51.0396H214.971V48.8907H212.14V51.0396H211.589Z" fill="white"/>
<path opacity="0.35" d="M219.414 51.0396L221.48 46.2173H222.171L224.238 51.0396H223.627L223.032 49.6411H220.62L220.024 51.0396H219.414ZM220.833 49.1384H222.818L221.826 46.7854L220.833 49.1384Z" fill="white"/>
<path opacity="0.35" d="M228.129 51.0396V46.2173H228.768L231.776 50.2748V46.2173H232.327V51.0396H231.687L228.68 46.9674V51.0396H228.129Z" fill="white"/>
<path opacity="0.35" d="M238.867 51.0979C238.372 51.0979 237.945 50.9886 237.588 50.7702C237.235 50.5468 236.962 50.2481 236.771 49.8741C236.58 49.5002 236.485 49.0848 236.485 48.6283C236.485 48.1718 236.583 47.7567 236.779 47.3828C236.975 47.0088 237.252 46.7127 237.61 46.494C237.972 46.2705 238.396 46.1589 238.882 46.1589C239.406 46.1589 239.86 46.2877 240.242 46.545C240.629 46.7975 240.914 47.1255 241.095 47.5285H240.492C240.345 47.2712 240.139 47.0672 239.874 46.9164C239.615 46.7659 239.298 46.6907 238.926 46.6907C238.534 46.6907 238.196 46.778 237.911 46.953C237.627 47.123 237.408 47.3537 237.257 47.6451C237.11 47.9365 237.036 48.2642 237.036 48.6283C237.036 48.9879 237.11 49.3156 237.257 49.6118C237.404 49.9031 237.617 50.1365 237.896 50.3112C238.181 50.4811 238.519 50.5662 238.911 50.5662C239.205 50.5662 239.482 50.5031 239.742 50.3768C240.007 50.2506 240.22 50.0683 240.382 49.8304C240.548 49.5923 240.632 49.306 240.632 48.9707H238.852V48.4756H241.139V51.0396H240.632V50.1875C240.529 50.3427 240.396 50.491 240.235 50.6316C240.073 50.7677 239.877 50.8793 239.646 50.9669C239.421 51.0543 239.161 51.0979 238.867 51.0979Z" fill="white"/>
<path opacity="0.35" d="M245.379 51.0396V46.2173H248.96V46.7417H245.93V48.3589H248.636V48.8907H245.93V50.5152H248.96V51.0396H245.379Z" fill="white"/>
<path d="M12.2931 52.5651L10.6583 50.1106C10.1015 51.5102 10.1015 53.8159 10.5938 54.8562C11.086 55.8967 13.2172 58.763 14.2826 59.4843C13.9634 58.9165 13.9809 57.3293 14.0304 56.6054C13.996 56.5696 13.7415 56.2295 13.0091 55.146C12.2768 54.0626 12.2267 52.9749 12.2931 52.5651Z" fill="white"/>
<path d="M16.4453 49.8468C16.1588 48.9737 15.3878 47.8698 15.0325 47.4282L15.9024 45.5989C16.7975 46.9043 17.5703 48.2882 18.211 49.7332C19.1936 51.994 18.477 53.8872 18.0396 54.3305C17.957 54.1192 16.9677 52.9317 16.4857 52.3717C16.5925 51.8839 16.7318 50.7204 16.4453 49.8468Z" fill="white"/>
<path d="M22.1799 56.2903C21.1285 55.2283 19.1529 54.8488 18.3036 54.7908C18.6848 54.5446 19.4075 53.8174 19.2597 52.8718C19.8629 52.9536 21.7824 53.5813 22.6179 54.0951C23.4534 54.6092 25.4712 56.4481 25.5899 57.6714C25.1442 57.731 24.3612 58.5211 24.0216 58.9066C23.5648 57.9358 22.9417 57.0506 22.1799 56.2903Z" fill="white"/>
<path d="M17.6401 60.55C16.0904 59.1287 16.0844 57.8074 16.2744 57.3295C16.2376 57.1878 15.8907 56.6601 14.7868 55.6721C14.4263 56.7682 14.3924 57.944 14.689 59.0588C14.9857 60.1735 15.6004 61.18 16.4596 61.9574C17.6142 63.0229 18.3972 63.5567 20.8668 63.9296C22.8406 64.2235 24.2105 63.4299 24.6484 62.9961L22.5257 61.9705C21.7807 62.3129 19.5795 62.3392 17.6401 60.55Z" fill="white"/>
<path d="M22.4443 59.2629C20.8301 58.6413 19.3793 59.9679 18.8605 60.7079C19.8173 61.5076 20.7631 61.6712 21.1184 61.6558C21.3605 61.5043 21.6309 61.4028 21.9134 61.3576C22.196 61.3121 22.4849 61.3237 22.7628 61.3914C23.5923 61.5596 26.0541 63.0649 27.1844 63.7903C27.8746 63.6946 29.2144 63.3124 29.0546 62.567C28.3384 62.4971 24.476 60.0355 22.4443 59.2629Z" fill="white"/>
<path d="M26.6536 60.7282L24.2303 59.2946C25.1333 58.4768 26.2991 58.0018 27.5217 57.9536C29.4989 57.9135 32.1622 59.5168 33.5201 60.7139C34.878 61.9109 35.5524 63.2789 35.3786 64.2399C35.205 65.2009 34.3701 65.6395 33.4538 65.8397C32.8282 65.9652 31.5872 65.5935 31.0324 65.3658C31.3339 65.1655 32.0778 64.6719 32.6467 64.2083C33.1225 64.2083 33.4159 63.9185 33.3753 63.6423C33.3348 63.3663 32.9918 62.8426 31.8635 61.8811C30.7355 60.9196 28.9415 60.3041 28.0633 60.148C27.7962 60.1101 27.524 60.1442 27.275 60.2473C27.026 60.35 26.8096 60.5174 26.6488 60.7318L26.6536 60.7282Z" fill="white"/>
<path d="M25.2999 67.0873C23.1886 67.2034 20.199 65.1105 18.966 64.0508C20.5802 64.6922 22.3501 64.4849 23.0402 64.3008C23.6435 64.5583 25.1407 65.0542 26.3719 64.9699C27.9113 64.8661 30.3816 62.9979 31.1373 62.0117C31.6356 62.2334 32.3359 63.0876 32.6226 63.485C32.5398 63.5249 32.0658 63.8589 30.8447 64.8846C29.3217 66.1516 27.9416 66.9411 25.2999 67.0873Z" fill="white"/>
<path d="M29.6787 66.4015C28.8516 67.0953 27.5113 67.3751 26.9448 67.4271C27.7677 68.2429 29.3216 68.7024 30.3309 69.1003C31.3401 69.4985 35.3328 70.2179 36.6606 69.7702C37.0075 69.6404 37.3087 69.4137 37.5279 69.1173C37.7471 68.8208 37.8748 68.4679 37.8954 68.1012C37.8954 66.5181 37.9117 63.0812 37.9219 62C37.9357 60.6447 37.3187 60.2508 37.046 60.0011C36.7733 59.7511 34.4973 59.4213 33.7144 60.0404C34.0998 60.2407 35.2828 61.5943 35.3287 62.0402C35.775 62.1041 36.0653 62.2396 36.0737 62.5679L35.9939 67.0875C35.9819 67.4175 35.8848 67.8048 35.1867 67.8871C34.3115 67.9929 30.4315 67.599 29.6787 66.4015Z" fill="white"/>
<path d="M10.7389 43.2978C11.1612 43.0241 12.3936 43.2461 12.9588 43.39L12.323 45.0991C12.0165 45.043 11.4996 45.2988 11.8712 46.7565C12.3351 48.5832 14.8717 51.5164 16.6089 53.3972C18.3463 55.2778 18.6533 56.5001 18.853 57.7C19.0122 58.6561 18.219 59.5449 17.8034 59.8689C17.4143 59.4308 16.6632 58.4274 16.7682 57.9237C16.9015 57.2919 16.5969 56.568 15.9611 55.6747C15.3253 54.7811 12.8556 52.2759 11.4616 50.0075C10.0675 47.7389 9.94806 46.6087 9.73634 45.4094C9.5246 44.2098 10.2081 43.6397 10.7389 43.2978Z" fill="white"/>
<path d="M7.95431 50.1326L9.67774 51.9316C10.0228 50.6008 9.41533 49.2267 8.84406 47.9736C8.65694 47.564 8.53116 47.13 8.47066 46.6846L7.81314 41.7163C7.7872 41.5252 7.80346 41.3308 7.8608 41.1462C7.91863 40.9619 8.01573 40.792 8.14553 40.648C8.27556 40.5041 8.43549 40.39 8.61427 40.3132C8.79303 40.2365 8.98647 40.1991 9.18126 40.2034L13.273 40.291C13.3806 40.2938 13.4837 40.3342 13.5639 40.4054C13.6441 40.4763 13.6962 40.5733 13.711 40.6791L13.9631 42.5251L12.4236 46.2597C12.4236 46.2597 13.3719 48.0925 13.8038 48.5743L14.6858 46.8351C15.1155 45.9875 15.4718 45.1055 15.7511 44.1983L16.1546 42.901C16.2535 42.5819 16.2784 42.2448 16.2276 41.9148L15.923 39.9363C15.8669 39.5542 15.6763 39.2043 15.3848 38.948C15.0934 38.692 14.7199 38.546 14.3305 38.5364L7.87589 38.5127C6.46311 38.4786 5.43401 39.6045 5.67832 40.9914L6.94146 48.1326C7.07251 48.8838 7.42588 49.5797 7.95671 50.1316L7.95431 50.1326Z" fill="white"/>
<path d="M64.5336 23.5649L66.1658 26.0235C66.7226 24.6239 66.7226 22.3153 66.2323 21.2778C65.7417 20.2404 63.6092 17.3712 62.5416 16.6475C62.8607 17.2176 62.8434 18.8049 62.7937 19.5286C62.8299 19.5627 63.0827 19.9045 63.8192 20.988C64.5558 22.0715 64.5999 23.1567 64.5336 23.5649Z" fill="white"/>
<path d="M60.3778 26.2871C60.6645 27.1607 61.4355 28.2646 61.7907 28.7062L60.9227 30.5416C60.0276 29.2382 59.2551 27.8564 58.6147 26.4131C57.6319 24.1524 58.3504 22.2591 58.7885 21.8157C58.8733 22.0272 59.8579 23.2147 60.3398 23.7765C60.233 24.248 60.0939 25.414 60.3778 26.2871Z" fill="white"/>
<path d="M54.6454 19.8442C55.6967 20.9061 57.6724 21.2856 58.5216 21.3436C58.1405 21.5874 57.4177 22.3153 57.5651 23.2626C56.9618 23.1807 55.0447 22.5532 54.2073 22.0392C53.37 21.5253 51.3523 19.6864 51.2328 18.4631C51.6793 18.4033 52.4622 17.6132 52.8012 17.2278C53.2599 18.1989 53.8846 19.0841 54.6477 19.8442H54.6454Z" fill="white"/>
<path d="M59.1841 15.5842C60.7339 17.0137 60.7416 18.3267 60.5504 18.8048C60.5866 18.9446 60.9335 19.4723 62.0373 20.462C62.3979 19.3659 62.4318 18.1901 62.1351 17.0754C61.8385 15.9607 61.2238 14.9543 60.3646 14.1768C59.2106 13.1113 58.4277 12.5776 55.9611 12.2047C53.9854 11.9112 52.6148 12.7049 52.1774 13.1382C52.5184 13.3001 53.4201 13.7358 54.3004 14.1643C55.0495 13.8206 57.2471 13.7949 59.1841 15.5842Z" fill="white"/>
<path d="M54.3788 16.8717C56.0033 17.4932 57.4443 16.1659 57.9624 15.4267C57.0064 14.627 56.0599 14.4609 55.7064 14.4788C55.4645 14.6312 55.1938 14.7337 54.9109 14.7801C54.6283 14.8265 54.3388 14.8159 54.0602 14.7489C53.2306 14.5786 50.7689 13.0756 49.6409 12.3501C48.9507 12.4457 47.6092 12.8282 47.771 13.5734C48.4846 13.6374 52.347 16.096 54.3788 16.8717Z" fill="white"/>
<path d="M50.1696 15.4123L52.5911 16.8466C51.6878 17.6641 50.5224 18.1391 49.2998 18.1877C47.3226 18.2277 44.6585 16.6225 43.3009 15.4272C41.943 14.232 41.2709 12.8622 41.4421 11.9013C41.6134 10.9403 42.4514 10.5022 43.3676 10.302C43.9933 10.1759 45.234 10.5483 45.7891 10.776C45.4876 10.9756 44.7436 11.4698 44.1748 11.9336C43.6964 11.9336 43.4038 12.221 43.4443 12.4989C43.4846 12.7768 43.8297 13.2985 44.9577 14.2601C46.086 15.2217 47.8774 15.8378 48.7534 15.9932C49.0202 16.0306 49.2924 15.9965 49.5417 15.8943C49.7907 15.7922 50.0075 15.6257 50.1696 15.4123Z" fill="white"/>
<path d="M51.5257 9.0493C53.6369 8.93339 56.6272 11.0244 57.8559 12.0858C56.2539 11.444 54.4719 11.652 53.7817 11.836C53.1784 11.5779 51.6814 11.0824 50.4507 11.1661C48.9108 11.2701 46.4412 13.1383 45.6853 14.1249C45.1845 13.9032 44.4841 13.0492 44.1976 12.6518C44.281 12.6117 44.755 12.2777 45.9753 11.2521C47.5045 9.98279 48.8848 9.19335 51.5257 9.0493Z" fill="white"/>
<path d="M47.1455 9.73303C47.973 9.03739 49.3128 8.7595 49.8799 8.70751C49.0564 7.89174 47.5048 7.43218 46.4958 7.03415C45.4866 6.63615 41.4888 5.9166 40.1617 6.36482C39.8149 6.4945 39.5134 6.72134 39.2942 7.01766C39.0748 7.31401 38.9473 7.66712 38.9269 8.03399C38.9269 9.61709 38.9132 13.054 38.9009 14.1351C38.8885 15.4905 39.5042 15.8843 39.7764 16.1342C40.0483 16.384 42.3281 16.7139 43.1123 16.0959C42.7285 15.8963 41.5439 14.5421 41.498 14.0968C41.0522 14.0371 40.7614 13.8973 40.7553 13.571L40.8338 9.04934C40.8483 8.71946 40.9429 8.33218 41.641 8.24972C42.5126 8.1517 46.389 8.53539 47.1455 9.73303Z" fill="white"/>
<path d="M66.0844 32.8366C65.6621 33.1085 64.4299 32.8886 63.8651 32.7426L64.5027 31.0335C64.8073 31.0931 65.3239 30.8333 64.9528 29.3779C64.4882 27.5486 61.9541 24.618 60.2145 22.7373C58.4748 20.8566 58.1748 19.6344 57.9747 18.4344C57.8154 17.4782 58.6086 16.5895 59.0242 16.2656C59.4134 16.7031 60.1663 17.7071 60.0595 18.2109C59.9262 18.8426 60.2331 19.5663 60.8666 20.4597C61.5 21.3532 63.9719 23.8584 65.366 26.1271C66.7601 28.3955 66.8796 29.5256 67.0914 30.725C67.3029 31.9246 66.6153 32.4947 66.0844 32.8366Z" fill="white"/>
<path d="M68.8698 26.0055L67.1487 24.2061C66.8019 25.5376 67.4089 26.9092 67.9824 28.1648C68.17 28.5738 68.2948 29.0084 68.3535 29.4538L69.0136 34.414C69.0388 34.6054 69.022 34.8 68.9641 34.9843C68.9065 35.1689 68.8094 35.3388 68.6792 35.4825C68.5492 35.6262 68.3891 35.7403 68.2105 35.8173C68.0318 35.8941 67.8384 35.9319 67.6434 35.9279L63.5511 35.8375C63.4435 35.836 63.3401 35.7961 63.2598 35.7252C63.1795 35.6542 63.1273 35.5572 63.1132 35.4515L62.8612 33.6085L64.4006 29.8744C64.4006 29.8744 63.454 28.0411 63.0202 27.5593L62.1384 29.2985C61.709 30.1481 61.3524 31.0321 61.0731 31.9411L60.6696 33.2386C60.572 33.5575 60.547 33.8941 60.5965 34.2241L60.9018 36.196C60.9579 36.5778 61.1485 36.9278 61.4398 37.1838C61.7311 37.4401 62.1045 37.5858 62.4937 37.5959L68.9868 37.6555C70.3998 37.6921 71.3927 36.5283 71.1465 35.1406L69.887 28.008C69.7552 27.2556 69.4012 26.5587 68.8698 26.0055Z" fill="white"/>
<path d="M12.3575 23.345L10.7252 25.8036C10.1678 24.404 10.1678 22.0954 10.6583 21.0556C11.1487 20.0157 13.2799 17.1477 14.3488 16.4258C14.0303 16.9935 14.0472 18.5808 14.0967 19.3045C14.0605 19.3404 13.8083 19.6804 13.076 20.7639C12.3437 21.8474 12.2906 22.9452 12.3575 23.345Z" fill="white"/>
<path d="M16.5091 26.0638C16.2226 26.9374 15.4517 28.0408 15.0964 28.4824L15.9578 30.3117C16.8544 29.0081 17.628 27.6255 18.2688 26.1815C19.2514 23.9207 18.5348 22.0274 18.0951 21.584C18.01 21.7938 17.0255 22.983 16.5435 23.543C16.6569 24.0265 16.7981 25.19 16.5091 26.0638Z" fill="white"/>
<path d="M22.2468 19.6206C21.1954 20.6838 19.2204 21.0615 18.3705 21.1195C18.7517 21.3657 19.4744 22.0936 19.3272 23.039C19.9304 22.9572 21.8475 22.3291 22.6848 21.8175C23.5221 21.3059 25.5381 19.4623 25.6569 18.239C25.2111 18.1792 24.4281 17.3897 24.0915 17.0037C23.6338 17.975 23.0097 18.8604 22.2468 19.6206Z" fill="white"/>
<path d="M17.7067 15.3602C16.157 16.7915 16.1485 18.1033 16.3404 18.5808C16.3042 18.7231 15.9573 19.2508 14.8534 20.238C14.4921 19.1415 14.4578 17.9649 14.7545 16.8495C15.0512 15.7341 15.6663 14.7271 16.5262 13.9493C17.6801 12.8837 18.4631 12.35 20.9334 11.9771C22.9066 11.6831 24.2765 12.4767 24.7144 12.913C24.3736 13.0743 23.4718 13.5106 22.5916 13.9385C21.8473 13.6002 19.6461 13.571 17.7067 15.3602Z" fill="white"/>
<path d="M22.5111 16.6481C20.8969 17.2679 19.4461 15.9424 18.9273 15.2007C19.884 14.4011 20.8305 14.2373 21.1834 14.2529C21.4259 14.4043 21.6967 14.5057 21.9797 14.5511C22.2626 14.5964 22.5519 14.5849 22.8302 14.517C23.6597 14.3491 26.1215 12.8437 27.2496 12.1182C27.9395 12.2162 29.2811 12.5963 29.1195 13.3415C28.4138 13.4132 24.5434 15.8712 22.5111 16.6481Z" fill="white"/>
<path d="M26.7185 15.1887L24.2971 16.623C25.1999 17.441 26.3658 17.9157 27.5884 17.9629C29.5658 18.0023 32.2289 16.3995 33.5876 15.2019C34.946 14.0042 35.6173 12.6369 35.4455 11.6759C35.2735 10.7149 34.4368 10.2787 33.5205 10.0785C32.8951 9.95297 31.6542 10.3247 31.0991 10.5524C31.4009 10.7526 32.1445 11.2462 32.7134 11.71C33.1918 11.71 33.4843 11.9998 33.4438 12.2759C33.4036 12.552 33.0585 13.0755 31.9305 14.0371C30.8024 14.9987 29.0108 15.616 28.1348 15.7702C27.8677 15.8079 27.5953 15.7736 27.346 15.671C27.0967 15.5684 26.8799 15.4012 26.7185 15.1869V15.1887Z" fill="white"/>
<path d="M25.364 8.82518C23.2526 8.70924 20.263 10.8021 19.0342 11.8617C20.6485 11.2198 22.4178 11.4278 23.1085 11.6119C23.7117 11.3543 25.2089 10.8583 26.4394 10.9426C27.9796 11.0483 30.4492 12.9147 31.2051 13.9008C31.7039 13.6791 32.4037 12.8251 32.6902 12.4276C32.6076 12.3876 32.1333 12.0535 30.9125 11.028C29.3856 9.75089 28.0096 8.9692 25.364 8.82518Z" fill="white"/>
<path d="M29.7446 9.50893C28.9176 8.81508 27.5778 8.53539 27.0107 8.48341C27.8342 7.66766 29.3855 7.2081 30.3948 6.81007C31.4041 6.41206 35.3985 5.69251 36.7286 6.14013C37.0757 6.26986 37.3772 6.49667 37.5967 6.793C37.8159 7.08932 37.9435 7.44241 37.9642 7.8093C37.9642 9.3924 37.978 12.8293 37.9902 13.9104C38.0022 15.2658 37.3869 15.6597 37.1142 15.9095C36.8415 16.1593 34.5661 16.4897 33.7832 15.87C34.1662 15.6698 35.3485 14.3162 35.3975 13.871C35.8432 13.8064 36.134 13.6708 36.1399 13.3451L36.0609 8.82106C36.0471 8.49118 35.9523 8.10391 35.2537 8.02145C34.378 7.91747 30.5039 8.31131 29.7446 9.50893Z" fill="white"/>
<path d="M10.8049 32.6123C11.2271 32.8867 12.4595 32.6643 13.0248 32.5208L12.3871 30.8117C12.0855 30.8678 11.5662 30.612 11.9371 29.1544C12.401 27.3276 14.9358 24.395 16.6749 22.5137C18.414 20.6324 18.7151 19.4108 18.9147 18.2138C19.0746 17.2576 18.2813 16.3683 17.8657 16.0444C17.476 16.4825 16.7238 17.4859 16.8306 17.9897C16.9639 18.6214 16.6568 19.3451 16.0234 20.2385C15.39 21.132 12.918 23.6372 11.5233 25.9063C10.1286 28.1755 10.0098 29.3044 9.79808 30.5039C9.58634 31.7033 10.2746 32.2704 10.8049 32.6123Z" fill="white"/>
<path d="M8.02097 25.7816L9.74439 23.9827C10.0895 25.3135 9.48199 26.6881 8.90891 27.9432C8.72107 28.353 8.59545 28.7883 8.53612 29.2345L7.87618 34.1949C7.85024 34.3863 7.86637 34.581 7.92346 34.7656C7.98057 34.9501 8.07729 35.1203 8.20702 35.2645C8.33674 35.4086 8.49639 35.5233 8.67502 35.6005C8.85363 35.6778 9.04702 35.7159 9.24191 35.7121L13.3342 35.6238C13.4414 35.621 13.5442 35.5808 13.6243 35.5104C13.7045 35.4397 13.7568 35.3435 13.7722 35.2382L14.0243 33.3928L12.4849 29.6589C12.4849 29.6589 13.4332 27.8235 13.8669 27.339L14.7488 29.0787C15.1778 29.9253 15.5341 30.806 15.8141 31.7117L16.2177 33.0092C16.3163 33.3281 16.3411 33.6649 16.2901 33.9947L15.9885 35.9757C15.9324 36.3573 15.7421 36.7067 15.4511 36.9625C15.1602 37.2185 14.7873 37.3642 14.3983 37.3743L8.01794 37.4867C7.68771 37.499 7.35881 37.4384 7.05527 37.3089C6.75171 37.1796 6.48117 36.9847 6.26342 36.7383C6.04564 36.4921 5.88614 36.2007 5.79656 35.8856C5.70695 35.5705 5.68954 35.2395 5.74556 34.9168L7.0045 27.7859C7.13647 27.0332 7.49012 26.3359 8.02097 25.7816Z" fill="white"/>
<path d="M64.3858 52.7654L66.0182 50.3066C66.5769 51.7057 66.5769 54.012 66.0845 55.0542C65.5923 56.0965 63.4612 58.9585 62.3958 59.6822C62.7124 59.1146 62.6973 57.5254 62.6479 56.8035C62.6823 56.7676 62.9369 56.4275 63.6691 55.3441C64.4016 54.2607 64.4521 53.1734 64.3858 52.7654Z" fill="white"/>
<path d="M60.231 50.0451C60.5193 49.1712 61.2902 48.0675 61.6437 47.6257L60.78 45.7964C59.8824 47.1028 59.1084 48.4885 58.4676 49.9355C57.4844 52.197 58.2011 54.0897 58.6392 54.5336C58.7235 54.324 59.7103 53.134 60.1931 52.5748C60.0942 52.0817 59.942 50.9164 60.231 50.0451Z" fill="white"/>
<path d="M54.4982 56.4878C55.5497 55.4241 57.5246 55.0446 58.3746 54.9885C57.9928 54.7429 57.2688 54.0149 57.4179 53.0693C56.8146 53.1514 54.8957 53.7788 54.0603 54.2909C53.2249 54.8032 51.2148 56.6456 51.0858 57.8672C51.5316 57.9311 52.3171 58.7188 52.6542 59.1049C53.1107 58.1331 53.7349 57.2473 54.4982 56.4878Z" fill="white"/>
<path d="M59.0369 60.7478C60.5878 59.3184 60.5939 58.0034 60.4045 57.5255C60.4407 57.3856 60.7855 56.8579 61.8914 55.8701C62.2517 56.9662 62.2859 58.142 61.9892 59.2565C61.6923 60.3713 61.0779 61.3777 60.2187 62.1551C59.0647 63.2207 58.2815 63.7544 55.8114 64.1274C53.8365 64.426 52.4684 63.6277 52.0303 63.1939C52.3692 63.0318 53.2712 62.5962 54.153 62.1683C54.8957 62.5089 57.0992 62.5268 59.0369 60.7478Z" fill="white"/>
<path d="M54.2417 59.4588C55.8662 58.8389 57.3087 60.164 57.8256 60.9055C56.8714 61.7052 55.9248 61.8696 55.5695 61.8511C55.3269 61.7006 55.0565 61.6001 54.7741 61.5552C54.4917 61.5103 54.203 61.5219 53.9252 61.5893C53.0956 61.7572 50.6321 63.2626 49.5041 63.9882C48.8139 63.89 47.4736 63.51 47.6339 62.7649C48.3399 62.6932 52.2015 60.2339 54.2417 59.4588Z" fill="white"/>
<path d="M50.0247 60.9277L52.4461 59.4933C51.5434 58.6755 50.3774 58.2008 49.1549 58.1541C47.1776 58.1139 44.5136 59.7167 43.1557 60.9146C41.798 62.1121 41.1234 63.4794 41.2972 64.4404C41.471 65.4013 42.3065 65.8402 43.2222 66.0396C43.8476 66.1659 45.089 65.794 45.6436 65.5665C45.3419 65.3662 44.5964 64.8709 44.0293 64.4088C43.5515 64.4088 43.2607 64.1189 43.2986 63.843C43.3369 63.5667 43.6842 63.0433 44.8123 62.0816C45.9403 61.1201 47.7325 60.5027 48.6077 60.3444C48.875 60.3071 49.1477 60.3416 49.397 60.4444C49.6462 60.5472 49.8629 60.7141 50.0247 60.9282V60.9277Z" fill="white"/>
<path d="M51.3761 67.2829C53.4874 67.3988 56.4777 65.3059 57.7102 64.2462C56.1061 64.888 54.3241 64.6802 53.6339 64.4961C53.0309 64.7542 51.5354 65.2496 50.3024 65.166C48.763 65.0597 46.2952 63.1938 45.5369 62.207C45.0379 62.429 44.3383 63.2829 44.0493 63.6803C44.1344 63.7184 44.6085 64.0545 45.8295 65.0799C47.3569 66.3492 48.7375 67.1387 51.3761 67.2829Z" fill="white"/>
<path d="M46.9993 66.5994C47.8271 67.293 49.1669 67.5728 49.734 67.6248C48.9105 68.4406 47.3566 68.9001 46.3479 69.294C45.3394 69.6879 41.3452 70.4115 40.0176 69.9656C39.671 69.8356 39.3698 69.6086 39.1506 69.3122C38.9314 69.016 38.8037 68.6633 38.7828 68.2966C38.7828 66.7135 38.7665 63.2766 38.7568 62.1954C38.7423 60.8401 39.3601 60.4462 39.632 60.1965C39.9042 59.9465 42.1809 59.6167 42.9638 60.2341C42.5782 60.4343 41.3954 61.7879 41.3496 62.2331C40.9038 62.2969 40.613 62.4333 40.6069 62.759L40.6877 67.2829C40.6999 67.6129 40.797 68.0002 41.4948 68.0825C42.3667 68.1908 46.2429 67.797 46.9993 66.5994Z" fill="white"/>
<path d="M65.9454 43.4956C65.5195 43.2219 64.2908 43.4436 63.7263 43.5876L64.364 45.2969C64.6655 45.2406 65.1872 45.4964 64.8156 46.954C64.3518 48.7811 61.8151 51.714 60.078 53.5948C58.3406 55.4756 58.0335 56.6977 57.8339 57.8978C57.6746 58.854 58.4655 59.7425 58.8811 60.0664C59.2708 59.6291 60.0237 58.625 59.9187 58.1195C59.7854 57.4895 60.0899 56.7659 60.7258 55.8723C61.3615 54.979 63.8313 52.4743 65.2252 50.2051C66.6193 47.936 66.7388 46.8063 66.9506 45.607C67.1624 44.4076 66.4704 43.8398 65.9454 43.4956Z" fill="white"/>
<path d="M68.7239 50.3325L67 52.132C66.6524 50.7986 67.26 49.427 67.8329 48.1739C68.0205 47.7636 68.1462 47.3286 68.2066 46.8824L68.8646 41.9222C68.8901 41.7306 68.8735 41.5359 68.8164 41.3513C68.7295 41.0736 68.5539 40.8312 68.3156 40.6613C68.0776 40.4911 67.7899 40.4027 67.4965 40.409L63.4017 40.4969C63.2949 40.4999 63.1927 40.5401 63.1129 40.6108C63.0331 40.6812 62.9811 40.7774 62.9661 40.8822L62.7171 42.7198L64.259 46.4544C64.259 46.4544 63.3107 48.2873 62.8764 48.769L61.9969 47.0301C61.5667 46.1833 61.2101 45.3018 60.9315 44.3951L60.5278 43.0976C60.4292 42.7797 60.4042 42.4436 60.4549 42.1146L60.7565 40.1336C60.8128 39.7515 61.0034 39.4018 61.2947 39.1458C61.5858 38.8895 61.9591 38.7439 62.3486 38.7338L68.8544 38.6441C70.2666 38.6078 71.245 39.8036 71.0011 41.1907L69.7398 48.3335C69.6078 49.0844 69.2546 49.7798 68.7247 50.3325H68.7239Z" fill="white"/>
<path opacity="0.66" fill-rule="evenodd" clip-rule="evenodd" d="M38.4004 0.51209C36.912 0.51209 35.4435 0.597137 34.0002 0.76258L33.9594 0.415159C35.4165 0.248177 36.8982 0.162354 38.4004 0.162354C39.9023 0.162354 41.384 0.248176 42.8411 0.415156L42.8006 0.762577C41.357 0.597137 39.8888 0.51209 38.4004 0.51209ZM52.389 3.15428C49.6948 2.09295 46.8488 1.32909 43.8921 0.903637L43.9429 0.557531C46.9273 0.986964 49.8001 1.75799 52.5195 2.8293L52.389 3.15428ZM32.9084 0.903642C29.9517 1.3291 27.1057 2.09296 24.4115 3.15428L24.2811 2.8293C27.0004 1.758 29.8732 0.986972 32.8576 0.557536L32.9084 0.903642ZM61.0194 7.93516C58.6757 6.20385 56.1232 4.73488 53.4059 3.57211L53.5461 3.25104C56.2886 4.42472 58.865 5.9074 61.2304 7.6548L61.0194 7.93516ZM23.3945 3.57211C20.6773 4.73488 18.1247 6.20385 15.7811 7.93514L15.5701 7.65477C17.9354 5.9074 20.5118 4.42472 23.2545 3.25104L23.3945 3.57211ZM14.9074 8.60025C12.6017 10.4089 10.5134 12.4777 8.68783 14.762L8.41105 14.5449C10.2536 12.2395 12.3612 10.1514 14.6883 8.32605L14.9074 8.60025ZM68.1124 14.7621C66.2868 12.4778 64.1988 10.4089 61.893 8.60028L62.112 8.32607C64.4391 10.1515 66.5468 12.2395 68.3892 14.545L68.1124 14.7621ZM8.01647 15.6276C6.26891 17.9494 4.78615 20.4782 3.61248 23.1702L3.2884 23.0315C4.47307 20.3143 5.96967 17.7619 7.73347 15.4185L8.01647 15.6276ZM73.1877 23.1702C72.0141 20.4783 70.5313 17.9494 68.7837 15.6276L69.0669 15.4186C70.8305 17.7619 72.3271 20.3144 73.5117 23.0315L73.1877 23.1702ZM3.19074 24.1777C2.11944 26.8468 1.34841 29.6664 0.91896 32.5955L0.569605 32.5453C1.00307 29.5886 1.78133 26.7425 2.86268 24.0485L3.19074 24.1777ZM75.8811 32.5955C75.4517 29.6664 74.6807 26.8468 73.6093 24.1778L73.9373 24.0486C75.0187 26.7425 75.797 29.5886 76.2303 32.5453L75.8811 32.5955ZM0.776574 33.6772C0.60958 35.1073 0.523735 36.5619 0.523735 38.0365C0.523735 39.511 0.60958 40.9656 0.776574 42.3957L0.425891 42.4359C0.257344 40.9924 0.170715 39.5244 0.170715 38.0365C0.170715 36.5483 0.257344 35.0803 0.425894 33.6371L0.776574 33.6772ZM76.2762 38.0365C76.2762 36.5619 76.1903 35.1073 76.0233 33.6772L76.374 33.6371C76.5427 35.0803 76.6291 36.5483 76.6291 38.0365C76.6291 39.5244 76.5427 40.9924 76.374 42.4359L76.0233 42.3957C76.1903 40.9656 76.2762 39.511 76.2762 38.0365ZM73.6093 51.895C74.6807 49.2259 75.4517 46.4063 75.8811 43.4772L76.2303 43.5274C75.797 46.4841 75.0187 49.3302 73.9373 52.0243L73.6093 51.895ZM0.918957 43.4772C1.34841 46.4066 2.11944 49.2261 3.19074 51.895L2.86268 52.0243C1.78133 49.3302 1.00307 46.4841 0.569603 43.5274L0.918957 43.4772ZM68.7837 60.4451C70.5313 58.1232 72.0141 55.5945 73.1877 52.9024L73.5117 53.0413C72.3271 55.7584 70.8305 58.3108 69.0666 60.6542L68.7837 60.4451ZM3.61248 52.9027C4.78617 55.5945 6.26893 58.1232 8.01649 60.4451L7.7335 60.6542C5.9697 58.3108 4.4731 55.7584 3.2884 53.0413L3.61248 52.9027ZM61.8928 67.4722C64.1985 65.6636 66.2868 63.5947 68.1124 61.3107L68.3892 61.5275C66.5468 63.833 64.4391 65.9212 62.112 67.7464L61.8928 67.4722ZM8.68785 61.3107C10.5135 63.5949 12.6017 65.6636 14.9075 67.4722L14.6884 67.7464C12.3612 65.9212 10.2536 63.833 8.41107 61.5278L8.68785 61.3107ZM53.4059 72.5003C56.1232 71.3376 58.6757 69.8686 61.0191 68.1373L61.2301 68.4178C58.865 70.165 56.2886 71.6477 53.5458 72.8212L53.4059 72.5003ZM15.7811 68.1373C18.1247 69.8686 20.6773 71.3376 23.3946 72.5003L23.2546 72.8212C20.5119 71.6477 17.9355 70.165 15.5701 68.4178L15.7811 68.1373ZM24.4116 72.9179C27.1057 73.9794 29.9517 74.7432 32.9084 75.1687L32.8576 75.5148C29.8732 75.0853 27.0004 74.3142 24.2811 73.2432L24.4116 72.9179ZM43.8921 75.1687C46.8488 74.7432 49.6948 73.9794 52.389 72.9179L52.5195 73.2432C49.8001 74.3142 46.9273 75.0853 43.9429 75.5148L43.8921 75.1687ZM34.0002 75.3096C35.4437 75.4752 36.912 75.56 38.4004 75.56C39.8888 75.56 41.357 75.4752 42.8003 75.3096L42.8411 75.657C41.384 75.8241 39.9023 75.91 38.4004 75.91C36.8982 75.91 35.4165 75.8241 33.9597 75.657L34.0002 75.3096Z" fill="white"/>
<path d="M54.8992 45.8218C55.1013 46.3417 54.915 46.9113 54.4244 47.2416C54.2486 47.3597 54.0635 47.4668 53.8749 47.5645C53.4213 47.7988 53.2671 48.1975 53.2477 48.6686C53.2217 49.29 53.1246 49.891 52.6776 50.3659C52.1011 50.9782 51.399 51.2784 50.5362 51.1678C49.9134 51.088 49.2864 51.0721 48.8274 51.5981C48.61 51.8475 48.4553 52.1503 48.2606 52.4467C47.9879 52.2462 47.8747 51.923 47.7761 51.5958C47.7633 51.5531 47.8148 51.4806 47.8533 51.4347C48.4341 50.7373 49.1796 50.4321 50.0897 50.5073C50.4656 50.5381 50.8459 50.5883 51.219 50.5603C51.8827 50.5101 52.5112 49.7473 52.4518 49.0936C52.4324 48.8767 52.3567 48.6517 52.1258 48.555C51.427 48.2614 50.7146 47.974 49.9429 48.0172C49.5665 48.0384 49.2209 48.021 48.8891 47.8587C48.7384 47.7847 48.6067 47.6726 48.4331 47.5557C49.0881 47.2613 49.7158 47.2383 50.3548 47.357C50.8194 47.4433 51.2776 47.5791 51.7461 47.6289C52.724 47.7327 53.5118 47.3378 54.1484 46.6212C54.2073 46.5548 54.2532 46.452 54.2542 46.3657C54.2565 46.2026 54.2723 46.0003 54.1848 45.8895C54.1257 45.8147 53.8997 45.8683 53.7483 45.8683C53.7179 45.8683 53.6881 45.8852 53.6578 45.895C53.5321 45.9359 53.3596 46.0195 53.3204 45.8415C53.2913 45.7082 53.3402 45.4888 53.4384 45.4095C53.9351 45.0085 54.6683 45.2282 54.8992 45.8218ZM57.232 37.3305V38.5516C57.1736 38.7995 57.1382 39.0555 57.0528 39.2941C56.8479 39.868 56.6229 40.4349 56.4006 41.0025C56.3163 41.2181 56.29 41.4201 56.3637 41.6554C56.5028 42.1023 56.5584 42.5561 56.2839 42.9914C56.0772 43.3196 55.7497 43.4931 55.4388 43.6898C55.0705 43.9231 55.0121 44.1268 55.2135 44.5091C55.2364 44.5525 55.2619 44.5942 55.2861 44.6369C55.2667 44.6538 55.2476 44.6707 55.2288 44.6876C55.0988 44.5727 54.9316 44.4796 54.8462 44.3382C54.4522 43.686 54.3783 42.9929 54.8406 42.3819C55.0662 42.0837 55.3761 41.8499 55.6108 41.5572C55.8142 41.3045 56.0214 41.0303 56.1269 40.7311C56.3191 40.1877 56.4508 39.6219 56.577 39.0583C56.6134 38.8949 56.5466 38.7083 56.5204 38.475C56.1582 38.8146 55.9322 39.1335 55.8616 39.5449C55.8323 39.7143 55.8081 39.8857 55.7607 40.0506C55.5986 40.6179 55.2927 41.0618 54.6714 41.1994C54.4257 41.2532 54.1716 41.3148 53.9251 41.3032C53.7108 41.2924 53.4478 41.3136 53.3 41.0833C53.3137 41.0618 53.317 41.0515 53.3216 41.051C53.3683 41.0454 53.4146 41.0373 53.4615 41.0368C53.7949 41.0335 54.0161 40.879 54.1081 40.5591C54.1775 40.3192 54.2322 40.0746 54.3028 39.8347C54.4869 39.2073 54.8646 38.9268 55.5188 38.9076C55.6093 38.9053 55.7354 38.8667 55.7816 38.801C56.2 38.2031 56.4822 37.5603 56.3494 36.8078C56.2464 36.2274 55.9256 35.7385 55.6704 35.2187C55.2894 34.4433 54.6676 33.9706 53.8805 33.6737C53.7355 33.6186 53.5806 33.5901 53.4297 33.5492C53.418 33.582 53.4057 33.6151 53.3932 33.6484C53.6086 33.7474 53.8189 33.8605 54.0403 33.9438C55.2254 34.389 55.2767 35.7204 54.8893 36.4988C54.7799 36.3233 54.7068 36.1302 54.5707 36.0039C54.3551 35.8029 54.0916 35.6532 53.8596 35.4676C53.6621 35.3093 53.4531 35.1525 53.2984 34.9566C53.0856 34.6857 53.1595 34.3438 53.1463 34.0259C53.1425 33.931 53.1312 33.7926 53.0706 33.7522C52.8728 33.6206 52.6585 33.4497 52.4378 33.4285C51.4981 33.3394 50.5605 33.3853 49.6458 33.6441C49.5517 33.6704 49.4294 33.736 49.3985 33.8135C49.3432 33.9565 49.385 34.1001 49.539 34.1958C49.7727 34.3405 50.0041 34.4907 50.2258 34.6528C50.7643 35.0465 51.2891 35.4583 51.8353 35.84C52.0351 35.9799 52.2731 36.1256 52.5058 36.1496C53.3089 36.2322 53.9124 36.5422 54.2361 37.3207C54.4002 37.7161 54.7348 37.937 55.1859 37.9471C55.3103 37.9501 55.4349 37.9655 55.5591 37.9749C55.5616 37.9956 55.5639 38.0158 55.5657 38.036C55.4737 38.0713 55.3832 38.113 55.2889 38.1413C54.6263 38.3369 53.9774 38.2347 53.3364 38.0387C52.8608 37.8936 52.513 37.587 52.2736 37.1593C52.1816 36.9949 52.1159 36.8139 52.0078 36.6624C51.8072 36.3814 51.5845 36.1163 51.3707 35.8448C51.347 35.8602 51.3238 35.8762 51.3001 35.8921C51.3436 35.9799 51.3834 36.0696 51.4308 36.1557C52.16 37.4757 52.1319 38.8601 51.717 40.2473C51.5488 40.8106 51.2142 41.3115 50.5775 41.5037C50.1083 41.6451 49.8565 41.9892 49.8509 42.4796C49.8494 42.6063 49.8509 42.7331 49.8509 42.8783C49.4327 42.6778 49.1702 42.3922 48.9943 42.0165C48.6403 41.2595 49.1455 40.2342 49.9253 40.1832C50.1055 40.1713 50.2865 40.1635 50.4656 40.1417C51.3327 40.036 51.583 39.761 51.6398 39.0429C51.6933 38.3665 51.547 37.7231 51.3791 37.0798C51.3475 36.9586 51.2886 36.8445 51.2422 36.727C51.1872 36.7727 51.1724 36.8078 51.1716 36.8437C51.1545 37.4626 50.8663 37.9294 50.3624 38.2806C50.2281 38.3746 50.0747 38.4637 49.9827 38.5919C49.6465 39.0636 49.1862 39.303 48.6255 39.4057C48.3225 39.4618 48.0231 39.5633 47.8225 39.8196C47.7315 39.936 47.6731 40.0779 47.561 40.2783C47.5064 40.0352 47.4223 39.8534 47.4343 39.6782C47.4756 39.0871 47.8049 38.6515 48.2557 38.2829C48.6029 37.9994 48.9658 38.1082 49.3356 38.1872C49.3432 38.1885 49.3511 38.1905 49.3588 38.192C49.8542 38.2953 50.2699 38.1021 50.5064 37.6597C50.9374 36.853 50.7771 35.8077 50.1129 35.1717C49.7457 34.8195 49.3058 34.5763 48.8333 34.3857C47.9642 34.0357 47.0436 33.9592 46.1236 33.8822C45.9355 33.8663 45.7443 33.88 45.5728 33.88C45.7188 34.2236 45.8649 34.5271 45.9768 34.8422C46.1284 35.2681 46.237 35.709 46.3968 36.1312C46.5104 36.4331 46.5285 36.7296 46.4299 37.0225C46.1659 37.8087 45.597 38.3735 44.9887 38.9048C44.9759 38.9161 44.9489 38.9114 44.9063 38.9169C44.9405 38.8225 44.9721 38.7452 44.9968 38.6657C45.1141 38.2789 45.0029 37.936 44.768 37.6302C44.2241 36.923 44.6479 35.9968 45.4079 35.7878C45.506 35.761 45.6042 35.7216 45.6885 35.6668C45.7377 35.6348 45.7938 35.5578 45.7889 35.5062C45.7117 34.6791 45.2784 34.0711 44.3456 34.0978C43.1552 34.1312 42.3277 34.7627 41.7868 35.7926C41.5256 36.2905 41.5241 36.8248 41.5085 37.3676C41.4971 37.7597 41.4525 38.1698 41.3212 38.5351C41.0852 39.1916 41.0187 39.8436 41.178 40.5142C41.181 40.5268 41.1843 40.5394 41.1866 40.5523C41.1871 40.5531 41.1871 40.5536 41.1871 40.5541C41.2995 40.925 41.3729 41.2224 41.391 41.2984C41.3918 41.3032 41.3933 41.3078 41.3946 41.3126C41.3951 41.3158 41.3956 41.3171 41.3956 41.3171C41.5501 41.9243 41.5274 42.544 41.5162 43.161C41.4994 44.0246 41.8806 44.7083 42.5129 45.2522C43.3155 45.942 44.2949 46.3195 45.2935 46.6169C45.9169 46.802 46.5739 46.8762 47.2162 46.9977C47.6372 47.0772 48.0111 47.2148 48.2728 47.5928C48.3765 47.7425 48.5644 47.8566 48.7379 47.9336C48.9806 48.0417 49.2446 48.1056 49.502 48.1788C50.5021 48.4634 51.0692 49.1252 51.2384 50.1318C51.2891 50.431 51.142 50.5888 50.8477 50.5108C50.7355 50.4813 50.6211 50.3268 50.5742 50.2043C50.3023 49.4918 49.792 49.0416 49.0665 48.8275C48.7953 48.7474 48.5154 48.6752 48.2353 48.65C47.7264 48.6033 47.3102 48.4545 47.0536 47.966C46.9725 47.8119 46.774 47.6955 46.6037 47.6163C46.4001 47.5208 46.1725 47.4564 45.9482 47.4256C45.0055 47.2959 44.0597 47.1855 43.1154 47.0643C42.9077 47.0376 42.8718 47.1855 42.8988 47.311C42.9495 47.5514 42.9992 47.8119 43.131 48.0112C43.6088 48.733 44.3793 48.7969 45.1462 48.7833C45.7135 48.7729 46.2706 48.655 46.8043 48.4404C46.8981 48.4023 47.0408 48.4525 47.1514 48.4901C47.3191 48.5469 47.4731 48.6497 47.6433 48.6939C47.8875 48.7573 48.1405 48.7856 48.4553 48.8396C48.254 48.9653 48.1135 49.0651 47.9634 49.1454C47.22 49.5418 46.4212 49.7736 45.5983 49.9455C44.8783 50.0952 44.1627 50.1114 43.4758 49.8521C42.8002 49.5971 42.1503 49.2739 41.4861 48.987C41.3938 48.9471 41.2848 48.9449 41.1828 48.9249C41.164 49.0325 41.1145 49.1448 41.1298 49.2471C41.2254 49.8942 41.5274 50.4467 41.9711 50.9224C42.4054 51.3877 42.9378 51.461 43.4952 51.1481C43.6942 51.037 43.8854 50.9093 44.09 50.8093C44.3084 50.703 44.5322 50.5659 44.7654 50.5368C45.9036 50.3944 46.8209 50.8045 47.5115 51.7061C47.693 51.9425 47.8533 52.195 48.0192 52.4424C48.1841 52.6891 48.4171 52.7525 48.6977 52.7022C49.4386 52.5689 50.0021 52.1424 50.4397 51.5728C50.652 51.2961 50.8757 51.3117 51.1706 51.3375C51.0493 51.7516 50.7903 52.0536 50.4919 52.3214C49.6167 53.1075 48.5891 53.464 47.4086 53.3423C47.1675 53.317 46.9317 53.2367 46.6957 53.1731C45.8975 52.9582 45.1334 52.9383 44.4379 53.5854C44.3551 53.4849 44.2582 53.4044 44.2124 53.3014C44.1749 53.2183 44.1527 53.0681 44.2004 53.0158C44.7323 52.4378 45.3315 51.9831 46.2872 52.3374C46.5319 52.428 46.7954 52.4689 47.077 52.5396C46.8346 51.6892 45.8032 51.0317 45.0221 51.2754C44.3971 51.4708 43.8171 51.8071 43.2141 52.0743C43.0349 52.1538 43.0334 52.2533 43.1236 52.404C43.4952 53.0282 43.9781 53.5453 44.5954 53.9354C45.5111 54.5143 46.6445 54.2919 47.1252 53.5268C47.1499 53.488 47.2121 53.4508 47.2574 53.4498C47.5281 53.4423 47.7993 53.446 48.126 53.446C48.0174 53.6607 47.9509 53.8377 47.8477 53.9899C47.4878 54.5196 46.9488 54.813 46.3672 55.033C45.6842 55.2913 45.0271 55.2339 44.4438 54.7764C43.9302 54.3745 43.435 53.9505 42.9345 53.5329C42.6424 53.2898 42.3557 53.0398 42.0687 52.7951C41.9589 53.3531 41.9056 53.8871 41.7412 54.3853C41.5776 54.8802 41.3023 55.3387 41.062 55.843C42.2104 55.8205 42.6804 54.9352 43.2841 54.2111C43.3713 54.2684 43.4628 54.3285 43.5538 54.3896C43.58 54.4068 43.6203 54.4237 43.6259 54.4477C43.6458 54.5328 43.697 54.6517 43.6596 54.7032C43.1506 55.4066 42.5884 56.0662 41.7975 56.4704C41.4828 56.6315 41.1227 56.7062 40.7832 56.8198H40.4514C40.3168 56.785 40.183 56.7433 40.0466 56.7173C39.3223 56.5802 38.7677 56.1671 38.3556 55.5955C37.9774 55.0706 37.6091 54.5191 37.355 53.9293C36.8606 52.7797 37.0558 51.5837 37.9856 50.6941C38.297 50.3964 38.494 50.3846 38.7909 50.6856C39.6047 51.5117 39.8868 52.4722 39.4916 53.5859C39.3764 53.9101 39.2441 54.2285 39.1075 54.5449C39.0573 54.6623 38.9729 54.7656 38.8957 54.8893C38.636 54.6234 38.4912 54.3924 38.6378 54.0205C38.8258 53.5428 38.9844 53.0463 38.9607 52.5166C38.9459 52.1972 38.8478 51.9225 38.6023 51.7034C38.4405 51.5587 38.2766 51.562 38.1489 51.7155C38.0371 51.8498 37.9295 52.0124 37.892 52.1785C37.6173 53.392 38.2641 54.754 39.2288 55.3935C39.7701 55.7523 40.4618 55.542 40.8306 54.8999C41.3543 53.9879 41.4045 53.0183 40.9771 52.0808C40.447 50.9191 39.7727 49.8296 38.9349 48.8517C38.6217 48.4863 38.2476 48.454 37.9216 48.8184C37.5057 49.2835 37.1308 49.7915 36.7918 50.3146C36.3583 50.9843 35.939 51.6672 35.7002 52.4396C35.468 53.1925 35.441 53.9349 35.7983 54.655C36.1857 55.4339 36.8754 55.7877 37.6604 55.4453C37.8765 55.3513 37.9795 55.4127 38.0888 55.5677C38.152 55.6571 38.2134 55.7478 38.2955 55.8664C38.176 55.974 38.0656 56.0937 37.9361 56.1874C36.7266 57.0645 35.1844 56.8908 34.1463 55.9083C33.5714 55.3635 33.1017 54.7408 32.6309 54.1116C32.4133 53.8202 32.1316 53.5688 31.8498 53.3342C31.4491 53.0019 30.97 52.9825 30.4794 53.0888C30.2418 53.1403 30.0058 53.2009 29.753 53.261C29.6911 53.0388 29.6312 52.8244 29.5611 52.5734C30.104 52.4522 30.6267 52.2922 31.1609 52.2278C31.8368 52.147 32.3223 52.5542 32.6987 53.0403C33.0476 53.4902 33.3377 53.9884 33.617 54.4863C34.0095 55.1865 34.5681 55.6425 35.3712 55.7849C35.4471 55.798 35.5292 55.7773 35.6082 55.772C35.5983 55.6851 35.6164 55.5804 35.5736 55.5142C35.1821 54.9029 34.9545 54.2331 34.8393 53.5241C34.8011 53.2892 34.7919 53.0491 34.7669 52.7835C34.2236 53.0426 34.036 53.5728 33.6353 53.9932C33.4235 53.6963 33.223 53.415 33.0277 53.1418C33.0351 53.1123 33.0349 53.0943 33.0433 53.0825C33.4969 52.449 33.3614 51.9894 32.6149 51.6624C31.6237 51.2282 30.6835 51.2989 29.8086 51.9591C29.7084 52.0344 29.6042 52.1033 29.4824 52.1894C29.4028 52.001 29.3289 51.8258 29.2548 51.6503C30.4381 50.6025 31.9734 50.1356 33.3078 51.141C33.606 51.366 33.9386 51.3867 34.2692 51.2244C34.8551 50.936 35.2774 50.4752 35.5608 49.9008C35.7196 49.5791 35.7206 49.1226 35.3602 48.9477C35.2147 49.0547 35.0521 49.1635 34.9015 49.2867C34.2493 49.8188 33.5229 50.0733 32.6579 50.0685C30.9794 50.0601 29.4469 49.644 28.0702 48.6861C28.0447 48.6681 28.0161 48.6535 27.9917 48.6343C27.0943 47.9331 26.1243 47.9347 25.1123 48.3404C25.0611 48.3611 25.0095 48.3808 24.9602 48.4048C24.59 48.5841 24.2747 48.8085 24.2833 49.2754C24.2918 49.7592 24.443 50.2126 24.9071 50.402C25.2925 50.5588 25.3631 50.8126 25.3788 51.1479C25.3797 51.1623 25.3721 51.1774 25.3683 51.1918C24.4421 51.0272 23.695 50.2296 23.5808 49.2837C23.549 49.0199 23.5163 48.756 23.4864 48.4922C23.4371 48.0576 23.2565 47.7251 22.8204 47.5496C22.317 47.3471 21.9634 46.9972 21.8449 46.4525C21.7619 46.0708 21.8724 45.7509 22.153 45.4739C22.418 45.2128 22.7313 45.2199 23.0574 45.2802C23.1385 45.2954 23.2395 45.337 23.2816 45.3991C23.3589 45.5122 23.4642 45.6658 23.4385 45.7743C23.3982 45.9435 23.2143 45.8955 23.0736 45.8632C22.7991 45.8001 22.5635 45.9534 22.5834 46.2303C22.5976 46.427 22.6569 46.6709 22.7891 46.7995C23.5338 47.5246 24.4203 47.8284 25.4679 47.5978C25.9974 47.4814 26.5311 47.3766 27.0681 47.3012C27.592 47.2269 28.0635 47.4059 28.4978 47.6885C29.2155 48.1563 29.9773 48.5358 30.8206 48.7128C31.7132 48.8997 32.5978 48.8565 33.433 48.454C33.9022 48.2281 34.1474 47.7266 34.0538 47.2221C34.0421 47.1577 33.9424 47.0658 33.88 47.0631C33.7421 47.0565 33.5989 47.0873 33.4633 47.1237C33.0983 47.2216 32.7408 47.3559 32.3712 47.4284C31.9484 47.511 31.5164 47.5744 31.0865 47.589C30.5467 47.6069 30.0186 47.6425 29.5056 47.8314C29.4036 47.8685 29.252 47.8478 29.151 47.7981C28.9482 47.6983 28.7642 47.5607 28.5447 47.4213C28.8755 47.1789 29.2407 47.0762 29.6146 47.0014C30.2561 46.8732 30.9063 46.783 31.5396 46.6247C32.4082 46.4078 33.2428 46.0857 33.9524 45.5287C35.0101 44.699 35.5287 43.6102 35.3799 42.2667C35.349 41.9875 35.3666 41.7309 35.4301 41.4946C35.4471 41.1265 35.6131 40.7273 35.6131 40.7273C35.6406 40.6212 35.6671 40.5066 35.7002 40.394C35.8756 39.8032 35.7201 39.232 35.5988 38.6586C35.5078 38.2281 35.4808 37.7979 35.5404 37.3565C35.5718 37.1222 35.465 36.8672 35.5083 36.6374C35.5155 36.6003 35.5228 36.5632 35.5315 36.5266V36.5261C35.5437 36.4233 35.5058 36.2829 35.4522 36.1425C35.3689 35.9231 35.2471 35.7029 35.2196 35.6249V35.6244C35.2196 35.6239 35.2196 35.6239 35.219 35.6237C35.1739 35.4961 34.8419 35.1591 34.8635 35.175C34.8635 35.175 34.8635 35.175 34.8635 35.1745C34.7101 35.0636 34.5885 34.9806 34.4748 34.8882C34.1965 34.6627 33.8795 34.5273 33.5234 34.5119C32.9877 34.4879 32.4451 34.4392 31.9331 34.65C31.7246 34.7354 31.5218 34.8477 31.3395 34.9798C31.086 35.1634 30.958 35.407 30.9708 35.7443C30.9955 36.4119 30.7804 36.7056 30.1394 36.9333C29.8432 37.0389 29.5321 37.1028 29.2316 37.1967C28.5083 37.4222 28.4836 37.4376 28.0811 37.912C28.0304 37.7297 27.9537 37.5729 27.9471 37.4133C27.9139 36.6361 28.1951 35.988 28.834 35.5229C28.9709 35.4234 29.1763 35.3517 29.3417 35.3654C30.1417 35.4305 30.7556 35.0641 31.3316 34.5862C31.404 34.5256 31.4777 34.4665 31.5495 34.4059C31.8312 34.1683 31.8052 33.9423 31.4552 33.8173C31.1904 33.7224 30.9096 33.6441 30.6305 33.6191C29.5259 33.5207 28.4476 33.6131 27.4763 34.2072C26.9952 34.5016 26.4786 34.774 26.0812 35.1613C25.2783 35.9448 24.7767 36.9028 24.7701 38.0572C24.7687 38.3768 24.781 38.6983 24.8132 39.0161C24.8421 39.3052 24.9308 39.3641 25.2181 39.3992C25.4991 39.4335 25.7858 39.4575 26.0563 39.5345C26.7069 39.7201 27.0915 40.1832 27.1185 40.8457C27.1402 41.3759 27.3321 41.7976 27.7521 42.1213C27.7692 42.1344 27.7791 42.1569 27.8436 42.2453C27.525 42.1978 27.2607 42.1874 27.014 42.1165C26.2762 41.9034 25.5934 41.5731 25.1005 40.9682C24.918 40.7437 24.7653 40.4629 24.6985 40.1844C24.5449 39.5481 24.388 38.9005 24.3548 38.2516C24.3217 37.6085 24.4639 36.9629 24.6705 36.343C24.6852 36.2983 24.7018 36.2541 24.7151 36.2092C24.8379 35.7974 24.6753 35.6067 24.2401 35.6762C23.5495 35.7865 23.048 36.2059 22.572 36.6801C21.8861 37.3636 21.8875 38.2013 21.979 39.0669C21.9814 39.0899 21.997 39.1133 21.9942 39.1353C21.9487 39.5398 22.1226 39.8168 22.4862 39.992C22.5294 40.0125 22.5592 40.0723 22.5815 40.12C22.645 40.2544 22.7152 40.3879 22.7574 40.5291C22.8963 40.9899 23.1205 41.3646 23.6575 41.4529C23.4291 41.6986 23.0503 41.7807 22.5981 41.6966C21.8378 41.5549 21.4372 41.0391 21.5154 40.299C21.5225 40.2306 21.5372 40.1582 21.5671 40.0965C21.8818 39.4593 21.7221 38.8525 21.4533 38.2516C21.377 38.0802 21.2817 38.091 21.1717 38.2157C20.7911 38.6475 20.5925 39.1608 20.5005 39.7173C20.4413 40.0779 20.3815 40.4394 20.4906 40.8068C20.6043 41.1903 20.8338 41.4492 21.222 41.5683C21.3727 41.615 21.5178 41.6789 21.669 41.7229C22.4654 41.9577 22.7962 42.55 22.9062 43.3065C23.0043 43.9766 22.773 44.5195 22.2359 44.9361C22.1923 44.9699 22.1487 45.0037 22.1032 45.0343C22.0852 45.0459 22.0615 45.0492 22.0203 45.0633C22.2938 44.3058 21.8866 43.8362 21.3448 43.4196C20.9764 43.1371 20.7693 42.7843 20.8779 42.3026C20.9267 42.0847 20.8508 41.9122 20.692 41.7534C20.273 41.334 20.0962 40.8232 20.0592 40.2324C19.9658 38.7553 20.6631 37.6095 21.5894 36.5647C22.0582 36.036 22.5829 35.5545 23.2072 35.2017C23.4532 35.0629 23.7197 34.9599 23.969 34.826C24.0387 34.7887 24.1382 34.666 24.1226 34.6377C24.0752 34.5518 23.9884 34.4589 23.8974 34.4306C23.7343 34.3796 23.5575 34.366 23.3855 34.3503C22.7621 34.2945 22.2544 33.9807 21.7558 33.6451C21.6292 33.56 21.6482 33.4946 21.7742 33.4234C21.9027 33.351 22.0226 33.2629 22.1378 33.1871C23.3409 33.8704 24.6137 34.0723 25.9405 33.6588C26.4457 33.5012 26.8927 33.1659 27.393 32.9851C27.9588 32.7803 28.5547 32.6564 29.1383 32.5001C29.227 32.4761 29.3187 32.4668 29.4199 32.3945C29.3534 32.3663 29.2884 32.3334 29.2204 32.3112C28.6742 32.1352 28.1201 32.1325 27.5592 32.2297C27.1142 32.3072 26.6728 32.3309 26.2201 32.2438C25.6324 32.1297 25.2512 31.6979 25.2332 31.102C25.2233 30.7776 25.3105 30.4867 25.4394 30.1989C25.5603 29.9295 25.6699 29.658 25.4096 29.3376C25.8078 29.4303 26.0552 29.6335 26.2087 29.912C26.3371 30.1458 26.4378 30.416 26.4681 30.6789C26.5624 31.4942 26.7174 31.9327 27.8811 31.861C28.7415 31.8075 29.5193 31.9921 30.3081 32.2446C30.4689 32.2958 30.6354 32.3286 30.8686 32.3875C30.8025 32.1986 30.7783 32.0676 30.7144 31.96C30.5981 31.7651 30.4763 31.5689 30.3257 31.4007C29.4592 30.4347 29.3985 29.35 29.8578 28.206C30.1114 27.5757 30.4524 26.9796 30.7006 26.3481C30.8069 26.0777 30.8069 25.754 30.7992 25.4563C30.7936 25.2421 30.6585 25.0618 30.4095 24.9909C30.3782 25.0331 30.3443 25.0735 30.3158 25.1172C30.0754 25.4843 29.8726 25.5747 29.4464 25.5013C29.3379 25.4826 29.2275 25.4684 29.1212 25.4389C28.7624 25.3384 28.4548 25.4508 28.1418 25.707C28.1229 25.2604 28.284 24.9392 28.5368 24.6523C29.0104 24.1146 29.7512 23.9206 30.3076 24.2442C30.7883 24.5241 31.0826 24.9801 31.1971 25.5187C31.2457 25.7469 31.2401 26.0095 31.1762 26.233C30.986 26.8925 30.7794 27.5495 30.5339 28.19C29.9421 29.7355 30.8306 31.6229 32.3962 32.1014C32.4326 32.1123 32.4711 32.1173 32.5313 32.1299C32.4938 31.9572 32.4594 31.8009 32.426 31.6444C32.3478 31.274 32.4209 30.9367 32.6172 30.6104C32.7517 30.3867 32.846 30.1393 32.9755 29.8661C32.2142 29.8666 31.6023 29.6861 31.4137 28.9291C31.2761 28.3782 31.495 27.886 31.8235 27.4386C31.9275 28.005 32.2667 28.3645 32.7418 28.6357C33.3035 28.9564 33.406 29.2131 33.2477 29.8421C33.1623 30.1835 33.0527 30.5188 32.9671 30.8596C32.8129 31.474 33.0688 32.0676 33.6297 32.3728C33.9738 32.5602 34.3492 32.6536 34.746 32.6311C35.2091 32.6054 35.5328 32.2963 35.4813 31.8037C35.4252 31.273 35.294 30.7422 35.1329 30.2314C34.8712 29.403 34.3783 28.6963 33.7653 28.089C33.1266 27.4568 32.3569 27.0379 31.444 26.9145C31.3339 26.8998 31.1614 26.9347 31.2065 26.7205C31.2414 26.5552 31.2623 26.3961 31.5113 26.436C32.2532 26.5557 32.9921 26.6746 33.6272 27.1197C33.7087 27.177 33.826 27.1831 33.9269 27.2127C33.9488 27.1099 33.9909 27.0064 33.9893 26.9041C33.9794 26.1711 33.3122 25.4394 32.5759 25.3455C32.412 25.3243 32.2479 25.2947 32.083 25.2866C31.3752 25.2521 30.9723 24.8425 30.7827 24.2122C30.6968 23.9277 30.6907 23.6196 30.6868 23.2946C31.0434 23.7788 31.5964 23.8164 32.0868 23.9821C32.4049 24.0897 32.6386 24.2808 32.7329 24.6109C32.859 25.0533 33.201 25.2487 33.6376 25.3897C33.5163 24.9176 33.2925 24.5245 32.9882 24.1878C31.9854 23.0795 30.7391 22.4822 29.2204 22.5531C28.3092 22.5958 27.6835 23.1152 27.2719 23.8891C27.1397 24.1381 26.9704 24.2461 26.6748 24.2437C26.7767 23.7609 26.9834 23.3439 27.2877 22.9823C27.7959 22.3775 28.4532 22.0539 29.2507 21.9787C30.4761 21.8628 31.624 22.1022 32.6827 22.7062C33.0247 22.9015 33.3111 23.1983 33.6065 23.467C33.907 23.7408 34.0056 23.7361 34.1667 23.3693C34.6265 22.3234 35.3133 21.4316 36.0718 20.5863C36.171 20.4755 36.2714 20.4431 36.4024 20.514C36.5882 20.614 36.7729 20.7145 36.9891 20.8314C36.8364 21.008 36.7041 21.1583 36.5752 21.3109C35.9372 22.0684 35.3893 22.8814 35.1507 23.8516C35.0039 24.449 34.9678 25.0552 35.0248 25.6841C35.1237 26.7872 35.3641 27.8439 35.7932 28.8607C36.2586 29.9633 36.8379 30.9998 37.6446 31.8989C37.7022 31.9628 37.7684 32.0188 37.8291 32.0797C38.3301 32.5857 38.705 32.3536 39.016 31.9976C39.5527 31.3828 39.937 30.6713 40.001 29.8537C40.0731 28.9357 39.8086 28.1007 39.083 27.476C38.7178 27.1624 38.586 26.7693 38.6092 26.3284C38.6525 25.498 39.0672 24.865 39.7551 24.401C39.7783 24.3856 39.8106 24.3818 39.8787 24.3588C39.7133 24.7955 39.8063 25.1778 39.9773 25.5606C40.1636 25.9762 40.1007 26.3923 39.8858 26.7796C39.6294 27.2409 39.7087 27.677 39.9276 28.1214C40.1134 28.4981 40.2826 28.8826 40.4633 29.273C40.4888 29.2033 40.524 29.1202 40.5505 29.0344C40.9325 27.7987 40.9121 26.5595 40.6206 25.3079C40.448 24.5663 40.2011 23.8699 39.7194 23.2646C39.6508 23.1786 39.6475 23.0307 39.6414 22.9105C39.6299 22.678 39.6378 22.4441 39.6378 22.1332C39.8963 22.3206 40.1427 22.4653 40.3471 22.6541C40.9511 23.2115 41.3046 23.9258 41.588 24.68C41.6512 24.8481 41.7048 25.0223 41.7896 25.1792C41.9336 25.4465 42.1182 25.5023 42.3988 25.3934C43.2339 25.0679 43.7748 24.2799 43.7753 23.3867C43.7758 23.2223 43.7776 23.0579 43.7753 22.8935C43.7602 21.9966 43.4113 21.2527 42.6893 20.7108C42.4931 20.5638 42.2201 20.5178 41.9826 20.4238C41.9209 20.3994 41.8442 20.3858 41.8034 20.3412C41.6719 20.1984 41.5544 20.0434 41.4221 19.8819C41.7152 19.7326 41.9892 19.7851 42.2545 19.8514C43.2278 20.0946 43.9379 20.6244 44.2598 21.6138C44.364 21.9351 44.5419 22.246 44.7443 22.5193C44.9499 22.7973 45.2708 22.9058 45.6291 22.8414C46.0866 22.7592 46.5446 22.6771 47.0016 22.5907C47.167 22.5597 47.2732 22.6127 47.3306 22.7724C47.3979 22.9598 47.4723 23.1443 47.5434 23.3298C47.1196 23.3838 46.736 23.4186 46.3578 23.4843C45.7943 23.5825 45.2802 23.8145 44.8645 24.2015C44.6579 24.393 44.5151 24.6593 44.3706 24.9073C44.2814 25.0604 44.3938 25.2107 44.6097 25.2454C44.7328 25.2657 44.8673 25.2773 44.9869 25.2505C45.57 25.1182 46.1615 25.0073 46.7271 24.8199C47.2167 24.6575 47.5908 24.3264 47.6703 23.7736C47.731 23.3519 47.6219 22.9593 47.3869 22.6146C46.6753 21.5711 45.6709 21.0263 44.4038 20.994C44.1204 20.9864 43.9664 20.8939 43.8668 20.6131C44.2654 20.6131 44.6599 20.5642 45.0371 20.6225C46.0644 20.7817 47.0049 21.1485 47.7027 21.9581C48.1879 22.5212 48.4612 23.1795 48.4984 23.923C48.506 24.077 48.4805 24.2353 48.4476 24.3869C48.3562 24.8143 48.4392 24.9425 48.8776 24.9777C49.3394 25.0148 49.802 25.0421 50.2651 25.0632C50.417 25.0702 50.4743 25.1285 50.4756 25.276C50.4776 25.4371 50.4988 25.5985 50.512 25.7596C50.3599 25.7573 50.2075 25.7457 50.0561 25.754C49.4034 25.7901 48.7512 25.831 48.099 25.8724C47.6433 25.901 47.1874 25.926 46.7322 25.9636C45.4632 26.0681 44.2384 26.3325 43.1144 26.9599C42.6105 27.2409 42.3768 27.726 42.1668 28.2135C41.744 29.1955 41.481 30.2256 41.3235 31.2818C41.3023 31.427 41.2952 31.5825 41.3227 31.7252C41.4321 32.2908 41.6337 32.6099 42.2731 32.4809C42.7719 32.3804 43.2643 32.2297 43.7406 32.0517C44.0625 31.931 44.2608 31.6537 44.3365 31.3091C44.3551 31.225 44.3783 31.1419 44.3905 31.0568C44.4741 30.4718 44.8503 30.1491 45.3888 29.9918C45.7576 29.8843 46.135 29.7565 46.5255 29.8754C46.7052 29.93 46.8706 30.0317 47.0299 30.1365C46.4669 30.1388 46.3351 30.313 46.2079 30.6897C46.0132 31.2659 45.5491 31.4586 44.9754 31.505C44.8049 31.5192 44.6375 31.6366 44.483 31.7295C44.4407 31.7547 44.4247 31.8749 44.4466 31.9332C44.4626 31.9754 44.5656 32.0173 44.6214 32.0085C45.8549 31.8065 46.9052 31.3045 47.5903 30.2097C47.8918 29.728 47.904 29.2015 47.8202 28.668C47.769 28.3408 47.5567 28.1204 47.236 28.0219C46.8644 27.9068 46.4878 27.8265 46.0948 27.9222C45.8496 27.982 45.6444 27.9302 45.5221 27.6873C46.4075 27.3344 47.5103 27.5452 48.1553 28.1739C48.5203 28.5299 48.6057 28.9882 48.5942 29.4472C48.5738 30.2605 48.2407 30.9781 47.747 31.6196C47.6145 31.7918 47.4387 31.932 47.2855 32.09C47.2205 32.1572 47.1581 32.2287 47.104 32.3047C47.0258 32.4155 47.0352 32.518 47.1792 32.5592C47.3675 32.6127 47.5579 32.671 47.7509 32.6917C48.4581 32.7667 49.1327 32.6561 49.7676 32.3216C50.103 32.1451 50.3089 31.8853 50.3084 31.5063C50.3079 31.0803 50.5322 30.8344 50.8961 30.6587C51.3161 30.4567 51.6954 30.2037 51.8083 29.7088C51.8355 29.5883 51.8513 29.4654 51.9229 29.3235C51.9859 29.4406 52.0736 29.5505 52.1077 29.6755C52.2902 30.3451 52.321 31.0048 51.767 31.5303C51.5621 31.7239 51.2843 31.8441 51.0332 31.9855C50.7396 32.1506 50.434 32.2948 50.1438 32.4652C50.051 32.5203 49.9916 32.6311 49.9167 32.7162C49.9299 32.742 49.9434 32.7677 49.9567 32.7937C50.4277 32.6902 50.905 32.6081 51.3686 32.4781C52.0476 32.2877 52.6842 31.9948 53.2719 31.6035C54.1165 31.0424 54.6054 29.7626 54.2972 28.8806C54.231 28.6915 54.0987 28.5261 54.0189 28.3408C53.9366 28.1486 53.8805 27.9449 53.8459 27.7325C54.3423 27.9012 54.5954 28.266 54.7381 28.7102C55.108 29.8636 54.811 30.8963 54.1313 31.854C54.086 31.9178 54.0347 31.9779 53.994 32.0446C53.7763 32.4019 53.8232 32.6508 54.1744 32.8861C54.376 33.0215 54.6003 33.1242 54.8093 33.2492C55.8634 33.8769 56.4972 34.8303 56.8869 35.9542C57.0268 36.3579 57.0882 36.7882 57.1874 37.2058C57.1973 37.2484 57.2172 37.2893 57.232 37.3305ZM50.5146 31.7365C50.8304 31.7487 51.1867 31.5335 51.3717 31.2571C51.0773 31.4219 50.7957 31.5792 50.5146 31.7365ZM44.5526 31.2199C44.5801 31.2391 44.6082 31.2581 44.6357 31.2768C44.7305 31.1316 44.8253 30.9864 44.9201 30.841C44.8982 30.8256 44.876 30.8104 44.8541 30.795C44.7537 30.9367 44.6533 31.0786 44.5526 31.2199ZM39.2408 26.9995C39.1686 26.6976 39.0965 26.3961 39.0246 26.0941C39.0119 26.4251 39.0083 26.7519 39.2408 26.9995ZM32.4948 25.0139C32.1821 24.8707 31.8691 24.7274 31.5562 24.5842C31.7838 24.8927 32.0842 25.0674 32.4948 25.0139ZM32.8555 29.503C32.6437 29.3485 32.4319 29.194 32.2198 29.0394C32.3631 29.2879 32.5252 29.5123 32.8555 29.503ZM30.2905 24.6377C30.0897 24.3348 29.7872 24.4128 29.5071 24.4142C29.6404 24.4541 29.7734 24.4954 29.9072 24.5335C30.0346 24.5701 30.1626 24.6035 30.2905 24.6377ZM26.3937 31.7206C26.2604 31.405 26.1302 31.096 25.9997 30.7869C26.0376 31.1414 26.041 31.5068 26.3937 31.7206ZM21.0741 41.8319C21.3035 41.9728 21.5325 42.1137 21.7619 42.2551C21.7757 42.2339 21.7889 42.2127 21.8022 42.1917C21.5756 42.047 21.3486 41.9024 21.1215 41.7577C21.1059 41.7822 21.0897 41.8069 21.0741 41.8319ZM21.8818 40.0986C21.7908 40.3377 21.8629 40.7025 22.0662 41.003C22.0051 40.7038 21.9411 40.3879 21.8818 40.0986ZM24.7639 39.5297C24.8075 40.0402 25.4238 40.8674 25.8429 41.0045C25.6495 40.7939 25.4115 40.5846 25.238 40.3314C25.0649 40.0796 24.9573 39.7847 24.8208 39.5088C24.8018 39.5158 24.7829 39.5229 24.7639 39.5297ZM30.3815 35.5042C29.9878 35.5161 29.2553 36.0683 29.1245 36.3375C29.4977 36.0903 29.9398 35.7974 30.3815 35.5042ZM45.8111 37.4128C46.0624 36.9732 46.0672 36.4773 46.0415 36.01C45.9676 36.4609 45.8881 36.9447 45.8111 37.4128ZM49.4062 38.4533C49.0512 38.44 48.6938 38.4127 48.4245 38.6869C48.7535 38.6084 49.0797 38.5308 49.4062 38.4533ZM50.7307 40.3836C50.1667 40.371 49.5945 40.725 49.5219 41.1515C49.8068 40.6556 50.26 40.5099 50.7307 40.3836ZM52.2647 36.497C52.6348 36.7733 53.0051 37.0492 53.3749 37.3249C53.0838 36.9601 52.7752 36.6059 52.3149 36.4354C52.2984 36.4561 52.2813 36.4768 52.2647 36.497ZM53.4185 34.0277C53.5408 34.5922 53.9781 34.9035 54.3722 35.2394C54.0541 34.8356 53.7365 34.4316 53.4185 34.0277ZM55.4701 39.2908C55.0904 39.5782 55.1416 39.9971 55.021 40.3432C55.1643 40.0069 55.3078 39.6703 55.4701 39.2908ZM56.1531 41.6769C56.0351 42.1983 55.6439 42.5222 55.2966 42.8793C55.7199 42.5763 56.1758 42.294 56.1531 41.6769ZM19.5942 35.734C19.6217 35.8701 19.643 36.0072 19.6781 36.1415C19.7881 36.5624 20.0109 36.9043 20.4095 37.1432C20.2284 36.6084 20.4436 36.2105 20.8048 35.8514C21.2315 35.4272 21.4211 34.9571 21.104 34.3738C20.9689 34.1259 21.0201 33.9085 21.2277 33.7257C21.5628 33.4313 21.8994 33.1364 22.2554 32.8677C22.8313 32.4329 23.3272 31.9257 23.7486 31.3444C23.7998 31.2735 23.869 31.2157 23.9699 31.1101C23.9699 31.2725 23.9747 31.3717 23.969 31.4702C23.9538 31.735 23.9334 31.9989 23.9168 32.2637C23.886 32.7536 24.1325 33.079 24.5492 33.3C24.9791 33.5277 25.4299 33.5108 25.884 33.3934C26.1424 33.3267 26.3756 33.2121 26.5846 32.9642C26.4523 32.9642 26.3677 32.9712 26.2851 32.9626C26.0305 32.9364 25.7632 32.9015 25.6197 32.6655C25.3697 32.2559 25.018 31.9981 24.5658 31.8474C24.3676 31.7815 24.2269 31.6333 24.2306 31.4101C24.2382 30.9813 24.2629 30.5526 24.2738 30.1239C24.2804 29.8706 24.2752 29.6171 24.2752 29.3598C23.8163 29.4429 23.8116 29.4512 23.7633 29.8431C23.6993 30.3615 23.5357 30.846 23.2475 31.2881C22.7716 32.0178 22.1165 32.5667 21.4064 33.0518C20.5546 33.6348 19.8563 34.3251 19.5942 35.3583C19.5942 35.4835 19.5942 35.6085 19.5942 35.734ZM20.081 34.9477C20.1896 34.5932 20.291 34.2339 20.6769 34.0476C20.4778 34.3476 20.2796 34.6478 20.081 34.9477ZM24.1728 32.0943C24.3273 32.3493 24.4819 32.6049 24.6549 32.8909C24.3207 32.7071 24.1942 32.4339 24.1728 32.0943ZM38.5552 19.2502C38.4767 19.278 38.3992 19.3089 38.3197 19.3329C37.9884 19.4329 37.6555 19.5287 37.3247 19.6306C37.2664 19.6485 37.2156 19.6898 37.1399 19.7326C37.3777 19.8748 37.574 19.9993 37.7779 20.1087C37.8209 20.1317 37.8946 20.1059 37.9524 20.0956C38.478 20.0016 38.9999 19.8636 39.5295 19.8265C39.8891 19.8011 40.2673 19.8871 40.6211 19.9824C40.8201 20.0359 41.0146 20.1829 41.1614 20.3351C41.3808 20.5614 41.3536 20.738 41.1336 20.9648C40.6267 21.4866 40.5936 22.338 41.0686 22.887C41.164 22.9969 41.2965 23.0748 41.4117 23.1678C41.4303 23.1565 41.4491 23.1457 41.4677 23.1345C41.3808 22.6348 41.5274 22.2004 41.8276 21.813C42.0725 21.4964 42.0532 21.1691 41.899 20.8221C41.5279 19.9838 40.841 19.5532 39.9801 19.3404C39.8682 19.3127 39.7574 19.2808 39.6455 19.2507C39.2821 19.2502 38.9189 19.2502 38.5552 19.2502ZM41.3819 21.8684C41.4756 21.5457 41.5531 21.2823 41.6281 21.0254C41.7461 21.1785 41.6744 21.4655 41.3819 21.8684ZM40.4192 20.0951C40.067 20.22 39.7191 20.3764 39.4006 20.5694C39.0766 20.7657 38.7744 20.7516 38.4591 20.6037C38.2027 20.483 37.9547 20.3449 37.7055 20.2097C36.9289 19.788 36.1197 19.4498 35.2196 19.4597C33.9534 19.4733 32.7726 19.8044 31.717 20.5163C31.2243 20.8479 30.7931 21.2428 30.4386 21.7994C30.6756 21.8289 30.8726 21.859 31.0714 21.874C31.113 21.8773 31.1703 21.8336 31.2011 21.7961C31.8085 21.0602 32.5807 20.5703 33.4913 20.2895C33.6165 20.251 33.7516 20.243 33.8818 20.2205C33.8922 20.252 33.9027 20.2829 33.9126 20.3144C33.7064 20.4173 33.5036 20.5271 33.2936 20.6215C32.8277 20.8305 32.5504 21.3039 32.6149 21.7975C32.6982 22.4362 33.2752 22.8954 34.0194 22.902C33.9965 22.8705 33.9847 22.8391 33.9623 22.8264C33.698 22.6771 33.6165 22.508 33.7258 22.2366C33.825 21.9905 33.961 21.7594 34.0773 21.5199C34.1777 21.3128 34.2501 21.1081 34.1507 20.869C34.025 20.5666 34.0729 20.459 34.3563 20.289C34.7748 20.0383 35.2504 20.0101 35.6875 20.1237C36.6203 20.367 37.4692 20.7995 38.1505 21.4997C38.5445 21.905 38.7677 22.3948 38.744 22.9616C38.7005 24.0009 38.2132 24.8256 37.42 25.4808C37.0309 25.8025 37.0028 25.8484 37.1257 26.3514C37.2342 26.2555 37.3395 26.1641 37.4432 26.0709C37.904 25.6583 38.3918 25.2712 38.8174 24.8256C39.3697 24.2484 39.6106 23.5571 39.4707 22.74C39.2938 21.7054 39.7166 21.0043 40.7037 20.5999C40.8117 20.5558 40.9193 20.5098 41.0263 20.4652C40.9244 20.2036 40.6547 20.0115 40.4192 20.0951ZM33.1993 21.4922C33.2186 21.1672 33.3448 20.8902 33.6843 20.7371C33.5212 20.9911 33.358 21.2452 33.1993 21.4922ZM49.0947 28.9508C49.894 28.6496 50.4733 28.1095 50.8398 27.3503C51.2208 26.5607 51.4158 25.7179 51.1805 24.8683C50.8431 23.6487 49.9172 22.988 48.7397 22.6357C48.6133 22.5977 48.4714 22.6104 48.333 22.5991C48.4265 23.0302 48.597 23.3355 49.0484 23.4275C49.2497 23.4684 49.4332 23.6036 49.6215 23.7022C50.0879 23.9464 50.3828 24.3381 50.5197 24.8303C50.6028 25.1285 50.6519 25.4444 50.6563 25.7535C50.6672 26.4829 50.2368 27.1099 49.631 27.3081C49.3256 27.4081 49.1067 27.3518 48.9039 27.0947C48.5715 26.6746 48.1296 26.4552 47.6048 26.4105C47.1451 26.3716 46.7266 26.4941 46.3236 26.8402C46.8874 26.8051 47.2893 27.0182 47.603 27.3859C47.8752 27.7048 48.1737 27.7747 48.5896 27.6871C49.0336 27.5934 49.5015 27.6075 49.9931 27.5724C49.7215 28.2365 49.1144 28.3845 48.6189 28.6839C48.7336 29.0743 48.7479 29.0813 49.0947 28.9508ZM48.14 26.9571C48.1571 26.9342 48.1747 26.9112 48.1918 26.8882C48.3985 27.0374 48.6052 27.1874 48.8118 27.3366C48.792 27.3634 48.7721 27.3902 48.7522 27.4169C48.5483 27.2634 48.3444 27.1104 48.14 26.9571ZM32.3251 54.0937C32.283 54.0429 32.1602 54.0316 32.0804 54.0434C31.7782 54.0876 31.4782 54.1965 31.1774 54.1942C30.2964 54.1881 29.7724 53.919 29.5374 53.1135C29.4237 52.7242 29.2971 52.3379 29.1625 51.9551C28.9372 51.314 28.5121 50.8613 27.8296 50.7166C27.4323 50.6325 27.0204 50.6048 26.6136 50.581C26.2846 50.5616 26.2329 50.6631 26.3045 50.9772C26.3463 51.1618 26.4661 51.1345 26.5889 51.1355C27.5928 51.1426 28.1036 51.5031 28.4158 52.4411C28.4897 52.6628 28.5628 52.8906 28.5903 53.1211C28.7183 54.1965 29.6014 54.9474 30.5879 55.1347C31.3576 55.2809 32.0511 55.0259 32.8251 54.7757C32.6475 54.5295 32.4981 54.3022 32.3251 54.0937ZM26.1309 27.0733C26.1235 27.0755 26.1172 27.0811 26.1103 27.0844C25.7652 27.2445 25.5779 27.501 25.5692 27.8903C25.5621 28.2087 25.4133 28.4415 25.0839 28.5337C24.6895 28.644 24.297 28.7614 23.9017 28.8695C23.0371 29.1053 22.2004 29.3803 21.5358 30.0317C20.7935 30.7592 20.5892 32.0423 21.1433 32.9965C21.5998 32.8697 21.7354 32.6796 21.6159 32.2893C21.3974 31.5732 21.6344 30.9824 22.1174 30.463C22.5256 30.0239 23.0375 29.7308 23.5874 29.4997C24.0738 29.2955 24.5923 29.1432 25.0379 28.8728C25.5603 28.5557 26.1026 28.3448 26.6924 28.2067C26.9202 28.1532 27.1545 28.0335 27.3336 27.8833C27.8976 27.4093 28.0987 26.667 27.838 25.8906C27.3866 26.5016 26.8183 26.8763 26.1309 27.0733ZM25.887 28.1711C25.8773 28.1519 25.8674 28.133 25.858 28.1138C26.0476 28.0307 26.2433 27.9588 26.4253 27.8621C26.6098 27.7641 26.7806 27.6409 27.0189 27.4896C26.6842 27.8739 26.3216 28.0848 25.887 28.1711ZM38.5116 22.4094C38.4772 22.1539 38.4221 22.1192 38.1963 22.2305C37.339 22.6526 36.7564 23.3054 36.5112 24.2343C36.2604 25.1853 36.4643 26.0916 36.778 26.9905C36.8298 27.1379 36.8522 27.3099 36.8341 27.4644C36.764 28.0593 36.8525 28.26 37.3711 28.5647C37.4593 28.6163 37.5452 28.6756 37.639 28.7135C38.0651 28.8859 38.2912 29.2126 38.3908 29.6424C38.403 29.6954 38.4196 29.7472 38.4438 29.833C38.4785 29.7674 38.4961 29.7421 38.5055 29.7138C38.7672 28.9149 38.6834 28.1398 38.308 27.3987C38.1576 27.1023 37.8946 26.9294 37.5357 26.9604C37.365 26.9751 37.2485 26.9026 37.1749 26.7534C36.9773 26.3527 36.8858 25.9363 36.944 25.4869C37.0844 24.4048 37.5194 23.5125 38.5718 22.9692C38.5534 22.7949 38.5379 22.6014 38.5116 22.4094ZM37.9244 27.8795C37.693 27.6921 37.4613 27.5053 37.2299 27.3179C37.2447 27.3 37.2597 27.2826 37.2745 27.2647C37.5959 27.3465 37.7636 27.6086 37.9244 27.8795ZM29.5948 22.9574C29.3549 23.1819 29.1113 23.4078 28.8429 23.5961C28.2149 24.0371 27.4715 24.1695 26.7372 24.3203C25.8386 24.5048 25.0043 24.804 24.3141 25.4503C23.4016 26.3044 23.2281 27.601 23.677 28.8145C23.7742 28.793 23.8723 28.7619 23.9723 28.7511C24.1946 28.7276 24.2496 28.6233 24.2179 28.4037C24.1705 28.0726 24.1444 27.7348 24.1519 27.401C24.1652 26.821 24.2918 26.2782 24.7156 25.8292C25.3186 25.19 26.0983 24.9373 26.9225 24.7406C27.5872 24.5818 28.2514 24.4048 28.8924 24.1723C29.5728 23.9253 30.1195 23.4792 30.4949 22.8475C30.0257 22.6014 29.9587 22.6165 29.5948 22.9574ZM27.8072 48.7537C27.657 48.6517 27.5133 48.5376 27.355 48.4502C27.0948 48.3061 26.843 48.3111 26.5856 48.4922C26.0585 48.8621 25.7219 49.3605 25.569 49.9705C25.2958 51.058 25.8794 52.3222 26.9197 52.9365C27.3792 53.208 27.8732 53.3728 28.4244 53.391C28.3406 53.0774 28.232 52.7881 28.1925 52.4899C28.1609 52.249 28.0584 52.2119 27.8431 52.2101C27.4042 52.2058 26.9653 52.1391 26.6259 51.8349C26.1358 51.3958 26.0096 50.8504 26.1799 50.2147C26.4087 49.3595 26.9014 48.911 27.7692 48.8171C27.7817 48.7959 27.7944 48.7747 27.8072 48.7537ZM53.3446 31.0404C53.2752 30.7334 53.3237 30.4423 53.3994 30.1408C53.5449 29.5598 53.7508 28.9738 53.7653 28.3852C53.7952 27.2154 53.2085 26.3123 52.2627 25.6416C51.9969 25.4535 51.6915 25.3192 51.3773 25.1449C51.4033 25.4205 51.4142 25.6225 51.4461 25.8212C51.4555 25.8813 51.5101 25.9621 51.5641 25.9833C52.7041 26.4378 53.6175 27.9494 53.0724 29.4485C52.9842 29.6909 52.9037 29.9365 52.8035 30.1741C52.5823 30.6991 52.7003 31.1795 52.9793 31.6608C53.369 31.4952 53.4261 31.4012 53.3446 31.0404ZM30.4465 26.5519C30.3588 26.5791 30.2627 26.5918 30.1845 26.6355C29.9508 26.765 29.7128 26.8915 29.4977 27.0473C29.2132 27.2536 28.9196 27.4169 28.5679 27.4884C28.3643 27.53 28.1476 27.6005 27.9812 27.7199C27.2123 28.2693 27.1455 29.3927 27.5133 30.2183C27.5645 30.0638 27.6124 29.9416 27.6451 29.8158C27.7243 29.5096 27.9043 29.3043 28.2177 29.2202C28.3926 29.1732 28.5705 29.1329 28.7405 29.0717C29.2099 28.9033 29.5986 28.3206 29.5127 27.9287C29.4207 27.5098 29.4311 27.4846 29.8009 27.2417C29.8929 27.1811 29.9977 27.1356 30.0787 27.0634C30.2299 26.9276 30.3683 26.7779 30.512 26.6337C30.4901 26.6059 30.4684 26.5791 30.4465 26.5519ZM28.0811 28.2431C28.22 27.9151 28.4774 27.7315 28.8368 27.6593C28.5804 27.8575 28.3309 28.0499 28.0811 28.2431ZM38.27 30.1304C37.9647 29.8078 37.5518 29.6866 37.154 29.5444C36.801 29.4179 36.5899 29.1725 36.5749 28.821C36.553 28.3322 36.5833 27.8406 36.6086 27.3508C36.6226 27.0723 36.6572 26.7988 36.4245 26.5345C36.3506 26.7665 36.2675 26.9624 36.2273 27.1662C36.0581 28.0186 35.9897 28.8559 36.6198 29.5871C36.699 29.679 36.7365 29.8252 36.7492 29.9504C36.7933 30.3751 36.9725 30.6925 37.392 30.8493C37.4654 30.8766 37.5337 30.917 37.6043 30.9523C38.0837 31.1932 38.22 31.4434 38.1466 31.9474C38.6464 31.6285 38.714 30.6006 38.27 30.1304ZM37.2613 29.9158C37.275 29.8929 37.2888 29.8699 37.3028 29.8471C37.4873 29.9562 37.6721 30.065 37.8566 30.1741C37.8413 30.1989 37.8263 30.2239 37.811 30.2486C37.6275 30.1375 37.4442 30.0267 37.2613 29.9158ZM49.2398 30.7531C49.6761 30.6635 50.1234 30.6084 50.5459 30.4756C51.1762 30.2774 51.4678 29.8499 51.4527 29.2634C51.4364 28.6324 51.7224 28.2514 52.3547 28.1297C52.5927 28.0837 52.8476 28.1224 53.0956 28.1224C53.0255 27.6199 52.9235 27.554 52.45 27.7207C51.9841 27.8848 51.5669 28.1229 51.2274 28.4918C51.138 28.589 50.981 28.662 50.8469 28.6768C50.3125 28.7364 50.0864 28.9109 49.9518 29.4207C49.9281 29.5113 49.8963 29.602 49.8902 29.6946C49.8675 30.0529 49.6718 30.3057 49.394 30.5067C49.32 30.5602 49.2285 30.5897 49.145 30.6306C49.1763 30.6713 49.2082 30.7122 49.2398 30.7531ZM51.0664 28.9329C50.8018 29.1263 50.5378 29.3199 50.2732 29.5139C50.5108 29.2884 50.6591 28.9417 51.0664 28.9329ZM56.6522 32.5443C56.4873 31.7792 55.3722 31.1768 54.7221 31.7744C54.6584 31.8327 54.5485 31.8779 54.4652 31.8709C54.1925 31.8487 54.1295 32.0173 54.0722 32.2314C54.1295 32.2357 54.1678 32.2418 54.2062 32.2408C54.4461 32.2347 54.6324 32.2751 54.692 32.5662C54.7162 32.6836 54.849 32.8101 54.9652 32.8715C55.1571 32.973 55.3722 33.0341 55.5833 33.0955C55.8639 33.1773 56.118 33.2881 56.2602 33.5628C56.3632 33.762 56.4674 33.9602 56.5872 34.1898C56.7801 33.5479 56.7834 33.1543 56.6522 32.5443ZM55.4719 32.116C55.2734 32.0681 55.0618 32.0724 54.8584 32.0337C55.1742 31.8557 55.7568 32.0108 56.0991 32.3526C55.8764 32.2663 55.6801 32.1663 55.4719 32.116ZM43.7735 27.8949C44.0663 27.9875 44.3413 27.9754 44.5911 27.7555C44.7471 27.6184 44.9109 27.6288 45.0669 27.7974C45.2856 28.0335 45.5111 28.2655 45.753 28.4779C46.3104 28.9662 46.984 29.1361 47.7325 29.1715C47.7243 29.0099 47.7177 28.8831 47.7111 28.7554C46.9888 28.745 46.3389 28.6216 45.8221 28.1257C45.5501 27.8646 45.2907 27.5906 45.0221 27.3258C44.6071 26.9172 44.1089 26.7928 43.5658 26.9897C43.0471 27.1773 42.7278 27.5664 42.5812 28.1537C42.9732 27.88 43.3463 27.7608 43.7735 27.8949ZM44.6171 27.424C44.2758 27.3525 43.96 27.2864 43.618 27.2149C44.0383 27.1521 44.4389 27.2318 44.6171 27.424ZM44.9285 27.9613C43.6843 28.562 43.0188 29.4283 43.3303 30.8902C43.3502 30.9831 43.3932 31.0715 43.4259 31.1621C43.4524 31.1725 43.4794 31.1828 43.5061 31.1932C43.5444 30.5466 44.0454 30.3059 44.4754 29.9941C44.7817 29.7722 44.8745 29.456 44.8105 29.0798C44.7078 28.4741 44.7211 28.4632 45.2675 28.1421C45.1571 28.0519 45.1276 27.8648 44.9285 27.9613ZM44.2659 28.5627C44.2873 28.5774 44.3084 28.592 44.3298 28.6064C44.1915 28.7943 44.0536 28.9821 43.9152 29.1705C43.8953 29.1589 43.8752 29.147 43.855 29.1349C43.9919 28.9442 44.129 28.7534 44.2659 28.5627ZM41.9915 22.4254C42.0009 22.6944 42.111 22.9621 42.1085 23.2298C42.1057 23.5214 42.0256 23.8126 41.9798 24.1033C42.4309 24.1413 42.9434 23.868 43.1297 23.451C43.3265 23.011 43.3101 22.5897 42.9885 22.1985C42.7372 21.8933 42.7433 21.727 42.9852 21.4034C43.0267 21.348 43.0698 21.2936 43.1307 21.2161C43.0576 21.1433 42.988 21.0733 42.9253 21.0108C42.3763 21.2715 41.9716 21.8731 41.9915 22.4254ZM42.475 22.3817C42.4704 22.3807 42.465 22.3793 42.4604 22.3784C42.4604 22.1774 42.4604 21.9764 42.4604 21.7749C42.4869 21.7768 42.5134 21.7792 42.5405 21.781C42.518 21.9815 42.4964 22.1816 42.475 22.3817ZM26.6386 24.9341C26.4798 25.2398 26.1847 25.32 25.9163 25.4639C25.7135 25.5727 25.4892 25.7015 25.365 25.8823C25.0427 26.3509 24.9725 26.8986 24.9754 27.4725C25.0171 27.454 25.045 27.4507 25.0564 27.4353C25.4157 26.9511 25.9064 26.6961 26.4931 26.5721C26.8705 26.4923 27.1114 26.1795 27.1185 25.7906C27.1241 25.4586 27.0782 25.1261 27.0515 24.7467C26.8682 24.8256 26.6847 24.8453 26.6386 24.9341ZM26.5581 25.4071C26.5458 25.6944 26.2334 26.0376 25.8651 26.1547C26.1098 25.8911 26.3287 25.655 26.5581 25.4071ZM35.2196 35.6249C35.2718 35.81 35.3822 35.986 35.45 36.1463C35.4505 36.1448 35.4515 36.1438 35.4522 36.1425C35.3689 35.9231 35.2471 35.7029 35.2196 35.6249ZM25.238 40.3314C25.0649 40.0796 24.9573 39.7847 24.8208 39.5088C24.8018 39.5158 24.7829 39.5229 24.7639 39.5297C24.8075 40.0402 25.4238 40.8674 25.8429 41.0045C25.6495 40.7939 25.4115 40.5846 25.238 40.3314ZM29.1245 36.3375C29.4977 36.0903 29.9398 35.7974 30.3815 35.5042C29.9878 35.5161 29.2553 36.0683 29.1245 36.3375ZM53.4185 34.0277C53.5408 34.5922 53.9781 34.9035 54.3722 35.2394C54.0541 34.8356 53.7365 34.4316 53.4185 34.0277ZM56.1531 41.6769C56.0351 42.1983 55.6439 42.5222 55.2966 42.8793C55.7199 42.5763 56.1758 42.294 56.1531 41.6769ZM52.3149 36.4354C52.2984 36.4561 52.2813 36.4768 52.2647 36.497C52.6348 36.7733 53.0051 37.0492 53.3749 37.3249C53.0838 36.9601 52.7752 36.6059 52.3149 36.4354ZM31.5562 24.5842C31.7838 24.8927 32.0842 25.0674 32.4948 25.0139C32.1821 24.8707 31.8691 24.7274 31.5562 24.5842ZM49.5224 41.1515C49.8073 40.6556 50.26 40.5099 50.7312 40.3836C50.1669 40.371 49.595 40.725 49.5224 41.1515ZM50.5146 31.7365C50.8304 31.7487 51.1867 31.5335 51.3717 31.2571C51.0773 31.4219 50.7957 31.5792 50.5146 31.7365ZM25.9997 30.7869C26.0376 31.1414 26.041 31.5068 26.3937 31.7206C26.2604 31.405 26.1302 31.096 25.9997 30.7869ZM55.0205 40.3432C55.1638 40.0069 55.3075 39.6703 55.4696 39.2908C55.0904 39.5782 55.1416 39.9971 55.0205 40.3432ZM46.0415 36.01C45.9676 36.4609 45.8881 36.9447 45.8111 37.4128C46.0624 36.9732 46.0672 36.4773 46.0415 36.01ZM29.5071 24.4142C29.6404 24.4541 29.7734 24.4954 29.9072 24.5335C30.0346 24.5701 30.1626 24.6035 30.2905 24.6377C30.0897 24.3348 29.7872 24.4128 29.5071 24.4142ZM48.4245 38.6869C48.7535 38.6084 49.0797 38.5308 49.4062 38.4533C49.0512 38.44 48.6938 38.4127 48.4245 38.6869ZM39.0246 26.0941C39.0119 26.4251 39.0083 26.7519 39.2408 26.9995C39.1686 26.6976 39.0965 26.3961 39.0246 26.0941ZM32.2198 29.0394C32.3631 29.2879 32.5252 29.5123 32.8555 29.503C32.6437 29.3485 32.4319 29.194 32.2198 29.0394ZM21.1215 41.7577C21.1059 41.7822 21.0897 41.8069 21.0741 41.8319C21.3035 41.9728 21.5325 42.1137 21.7619 42.2551C21.7757 42.2339 21.7889 42.2127 21.8022 42.1917C21.5756 42.047 21.3486 41.9024 21.1215 41.7577ZM21.8818 40.0986C21.7908 40.3377 21.8629 40.7025 22.0662 41.003C22.0051 40.7038 21.9411 40.3879 21.8818 40.0986ZM44.8541 30.795C44.7537 30.9367 44.6533 31.0786 44.5526 31.2199C44.5801 31.2391 44.6082 31.2581 44.6357 31.2768C44.7305 31.1316 44.8253 30.9864 44.9201 30.841C44.8982 30.8256 44.876 30.8104 44.8541 30.795ZM20.081 34.9477C20.2796 34.6478 20.4782 34.3476 20.6769 34.0476C20.2905 34.2334 20.1891 34.5932 20.081 34.9477ZM24.1728 32.0943C24.1937 32.4339 24.3207 32.7071 24.6549 32.8909C24.4819 32.6049 24.3273 32.3493 24.1728 32.0943ZM41.3819 21.8684C41.6749 21.465 41.7461 21.178 41.6281 21.0254C41.5526 21.2828 41.4756 21.5462 41.3819 21.8684ZM33.6843 20.7371C33.5212 20.9911 33.358 21.2452 33.1993 21.4922C33.2191 21.1672 33.3453 20.8902 33.6843 20.7371ZM48.8124 27.3361C48.6057 27.1869 48.399 27.0369 48.1923 26.8877C48.1752 26.9107 48.1576 26.9336 48.1405 26.9566C48.3444 27.1099 48.5488 27.2629 48.7525 27.4159C48.7726 27.3896 48.7925 27.3629 48.8124 27.3361ZM26.4253 27.8621C26.2433 27.9593 26.0476 28.0312 25.858 28.1138C25.8674 28.133 25.8773 28.1519 25.887 28.1711C26.3221 28.0848 26.6842 27.8739 27.0189 27.4896C26.7806 27.6409 26.6098 27.7641 26.4253 27.8621ZM37.2294 27.3179C37.4608 27.5053 37.6925 27.6921 37.9239 27.8795C37.7631 27.6086 37.5954 27.3465 37.274 27.2652C37.2592 27.2826 37.2447 27.3005 37.2294 27.3179ZM28.0811 28.2426C28.3309 28.0499 28.5804 27.8575 28.8373 27.6588C28.4774 27.731 28.2205 27.9148 28.0811 28.2426ZM37.8561 30.1736C37.6716 30.0645 37.4868 29.9557 37.3025 29.8466C37.2888 29.8699 37.275 29.8929 37.2607 29.9153C37.4442 30.0262 37.6272 30.137 37.8105 30.2479C37.8258 30.2234 37.8408 30.1984 37.8561 30.1736ZM51.0664 28.9329C50.6591 28.9422 50.5108 29.2889 50.2732 29.5139C50.5378 29.3199 50.8023 29.1263 51.0664 28.9329ZM54.8584 32.0337C55.0623 32.0724 55.2734 32.0681 55.4719 32.116C55.6801 32.1663 55.8759 32.2663 56.0986 32.3526C55.7568 32.0108 55.1742 31.8557 54.8584 32.0337ZM44.6171 27.424C44.4389 27.2323 44.0383 27.1521 43.618 27.2149C43.96 27.2864 44.2758 27.352 44.6171 27.424ZM43.9147 29.1705C44.0531 28.9826 44.1909 28.7948 44.3293 28.6064C44.3082 28.592 44.2868 28.5774 44.2654 28.5627C44.1285 28.7534 43.9914 28.9442 43.8545 29.1349C43.8749 29.1465 43.8948 29.1584 43.9147 29.1705ZM42.4599 21.7749C42.4599 21.9759 42.4599 22.1769 42.4599 22.3784C42.4645 22.3793 42.4699 22.3807 42.4745 22.3817C42.4964 22.1816 42.5178 21.9811 42.5394 21.781C42.5134 21.7792 42.4864 21.7773 42.4599 21.7749ZM26.5581 25.4071C26.3282 25.655 26.1098 25.8911 25.8651 26.1547C26.2334 26.0376 26.5458 25.6949 26.5581 25.4071Z" fill="white"/>
</svg>
