<svg width="1995" height="1058" viewBox="0 0 1995 1058" fill="none" xmlns="http://www.w3.org/2000/svg">
<path opacity="0.7" d="M225.65 217.47C225.65 218.8 224.984 219.465 223.652 219.465C222.321 219.465 221.655 218.8 221.655 217.47C221.655 216.14 222.321 215.475 223.652 215.475C224.318 215.475 225.65 216.14 225.65 217.47Z" fill="white" fill-opacity="0.3"/>
<path opacity="0.7" d="M225.65 217.47C225.65 218.8 224.984 219.465 223.652 219.465C222.321 219.465 221.655 218.8 221.655 217.47C221.655 216.14 222.321 215.475 223.652 215.475C224.318 215.475 225.65 216.14 225.65 217.47Z" fill="white" fill-opacity="0.3"/>
<path opacity="0.7" d="M1764.1 194.47C1764.1 195.8 1764.77 196.465 1766.1 196.465C1767.43 196.465 1768.1 195.8 1768.1 194.47C1768.1 193.14 1767.43 192.475 1766.1 192.475C1765.44 192.475 1764.1 193.14 1764.1 194.47Z" fill="white" fill-opacity="0.3"/>
<path opacity="0.7" d="M1764.1 194.47C1764.1 195.8 1764.77 196.465 1766.1 196.465C1767.43 196.465 1768.1 195.8 1768.1 194.47C1768.1 193.14 1767.43 192.475 1766.1 192.475C1765.44 192.475 1764.1 193.14 1764.1 194.47Z" fill="white" fill-opacity="0.3"/>
<path opacity="0.7" d="M307.543 217.471C307.543 218.136 306.877 218.801 306.211 218.801C305.545 218.801 304.879 218.136 304.879 217.471C304.879 216.806 305.545 216.141 306.211 216.141C306.877 215.476 307.543 216.141 307.543 217.471Z" fill="white" fill-opacity="0.3"/>
<path opacity="0.7" d="M307.543 217.471C307.543 218.136 306.877 218.801 306.211 218.801C305.545 218.801 304.879 218.136 304.879 217.471C304.879 216.806 305.545 216.141 306.211 216.141C306.877 215.476 307.543 216.141 307.543 217.471Z" fill="white" fill-opacity="0.3"/>
<path opacity="0.7" d="M1682.21 194.471C1682.21 195.136 1682.88 195.801 1683.54 195.801C1684.21 195.801 1684.87 195.136 1684.87 194.471C1684.87 193.806 1684.21 193.141 1683.54 193.141C1682.88 192.476 1682.21 193.141 1682.21 194.471Z" fill="white" fill-opacity="0.3"/>
<path opacity="0.7" d="M1682.21 194.471C1682.21 195.136 1682.88 195.801 1683.54 195.801C1684.21 195.801 1684.87 195.136 1684.87 194.471C1684.87 193.806 1684.21 193.141 1683.54 193.141C1682.88 192.476 1682.21 193.141 1682.21 194.471Z" fill="white" fill-opacity="0.3"/>
<path opacity="0.7" d="M95.2914 300.939C95.2914 301.604 94.6256 302.269 93.9598 302.269C93.294 302.269 92.6282 301.604 92.6282 300.939C92.6282 300.274 93.294 299.609 93.9598 299.609C94.6256 299.609 95.2914 300.274 95.2914 300.939Z" fill="white" fill-opacity="0.3"/>
<path opacity="0.7" d="M95.2914 300.939C95.2914 301.604 94.6256 302.269 93.9598 302.269C93.294 302.269 92.6282 301.604 92.6282 300.939C92.6282 300.274 93.294 299.609 93.9598 299.609C94.6256 299.609 95.2914 300.274 95.2914 300.939Z" fill="white" fill-opacity="0.3"/>
<path opacity="0.7" d="M1894.46 277.939C1894.46 278.604 1895.13 279.269 1895.79 279.269C1896.46 279.269 1897.13 278.604 1897.13 277.939C1897.13 277.274 1896.46 276.609 1895.79 276.609C1895.13 276.609 1894.46 277.274 1894.46 277.939Z" fill="white" fill-opacity="0.3"/>
<path opacity="0.7" d="M1894.46 277.939C1894.46 278.604 1895.13 279.269 1895.79 279.269C1896.46 279.269 1897.13 278.604 1897.13 277.939C1897.13 277.274 1896.46 276.609 1895.79 276.609C1895.13 276.609 1894.46 277.274 1894.46 277.939Z" fill="white" fill-opacity="0.3"/>
<path opacity="0.7" d="M867.015 535.531C867.015 536.196 866.349 536.861 865.683 536.861C865.017 536.861 864.351 536.196 864.351 535.531C864.351 534.866 865.017 534.201 865.683 534.201C866.349 534.201 867.015 534.866 867.015 535.531Z" fill="white" fill-opacity="0.3"/>
<path opacity="0.7" d="M867.015 535.531C867.015 536.196 866.349 536.861 865.683 536.861C865.017 536.861 864.351 536.196 864.351 535.531C864.351 534.866 865.017 534.201 865.683 534.201C866.349 534.201 867.015 534.866 867.015 535.531Z" fill="white" fill-opacity="0.3"/>
<path opacity="0.7" d="M51.2126 151.631C51.2126 152.961 49.881 154.292 48.5494 154.292C47.2178 154.292 45.8862 152.961 45.8862 151.631C45.8862 150.301 47.2178 148.971 48.5494 148.971C49.881 148.971 51.2126 150.301 51.2126 151.631Z" fill="white" fill-opacity="0.3"/>
<path opacity="0.7" d="M51.2126 151.631C51.2126 152.961 49.881 154.292 48.5494 154.292C47.2178 154.292 45.8862 152.961 45.8862 151.631C45.8862 150.301 47.2178 148.971 48.5494 148.971C49.881 148.971 51.2126 150.301 51.2126 151.631Z" fill="white" fill-opacity="0.3"/>
<path opacity="0.7" d="M1938.54 128.631C1938.54 129.961 1939.87 131.292 1941.2 131.292C1942.54 131.292 1943.87 129.961 1943.87 128.631C1943.87 127.301 1942.54 125.971 1941.2 125.971C1939.87 125.971 1938.54 127.301 1938.54 128.631Z" fill="white" fill-opacity="0.3"/>
<path opacity="0.7" d="M1938.54 128.631C1938.54 129.961 1939.87 131.292 1941.2 131.292C1942.54 131.292 1943.87 129.961 1943.87 128.631C1943.87 127.301 1942.54 125.971 1941.2 125.971C1939.87 125.971 1938.54 127.301 1938.54 128.631Z" fill="white" fill-opacity="0.3"/>
<path opacity="0.7" d="M13.2615 361.122C13.2615 362.452 11.9299 363.782 10.5983 363.782C9.26666 363.782 7.93506 362.452 7.93506 361.122C7.93506 359.791 9.26666 358.461 10.5983 358.461C12.5957 358.461 13.2615 359.791 13.2615 361.122Z" fill="white" fill-opacity="0.3"/>
<path opacity="0.7" d="M13.2615 361.122C13.2615 362.452 11.9299 363.782 10.5983 363.782C9.26666 363.782 7.93506 362.452 7.93506 361.122C7.93506 359.791 9.26666 358.461 10.5983 358.461C12.5957 358.461 13.2615 359.791 13.2615 361.122Z" fill="white" fill-opacity="0.3"/>
<path opacity="0.7" d="M1976.49 338.122C1976.49 339.452 1977.82 340.782 1979.16 340.782C1980.49 340.782 1981.82 339.452 1981.82 338.122C1981.82 336.791 1980.49 335.461 1979.16 335.461C1977.16 335.461 1976.49 336.791 1976.49 338.122Z" fill="white" fill-opacity="0.3"/>
<path opacity="0.7" d="M1976.49 338.122C1976.49 339.452 1977.82 340.782 1979.16 340.782C1980.49 340.782 1981.82 339.452 1981.82 338.122C1981.82 336.791 1980.49 335.461 1979.16 335.461C1977.16 335.461 1976.49 336.791 1976.49 338.122Z" fill="white" fill-opacity="0.3"/>
<path opacity="0.7" d="M34.04 321.555C34.04 322.885 33.3742 323.55 32.0426 323.55C30.711 323.55 30.0452 322.885 30.0452 321.555C30.0452 320.225 30.711 319.56 32.0426 319.56C33.3742 319.56 34.04 320.225 34.04 321.555Z" fill="white" fill-opacity="0.3"/>
<path opacity="0.7" d="M34.04 321.555C34.04 322.885 33.3742 323.55 32.0426 323.55C30.711 323.55 30.0452 322.885 30.0452 321.555C30.0452 320.225 30.711 319.56 32.0426 319.56C33.3742 319.56 34.04 320.225 34.04 321.555Z" fill="white" fill-opacity="0.3"/>
<path opacity="0.7" d="M1955.71 298.555C1955.71 299.885 1956.38 300.55 1957.71 300.55C1959.04 300.55 1959.71 299.885 1959.71 298.555C1959.71 297.225 1959.04 296.56 1957.71 296.56C1956.38 296.56 1955.71 297.225 1955.71 298.555Z" fill="white" fill-opacity="0.3"/>
<path opacity="0.7" d="M1955.71 298.555C1955.71 299.885 1956.38 300.55 1957.71 300.55C1959.04 300.55 1959.71 299.885 1959.71 298.555C1959.71 297.225 1959.04 296.56 1957.71 296.56C1956.38 296.56 1955.71 297.225 1955.71 298.555Z" fill="white" fill-opacity="0.3"/>
<path opacity="0.7" d="M831.529 26.6016C831.529 27.2666 830.863 27.9317 830.197 27.9317C829.531 27.9317 828.865 27.2666 828.865 26.6016C828.865 25.9365 829.531 25.2715 830.197 25.2715C830.863 25.2715 831.529 25.2715 831.529 26.6016Z" fill="white" fill-opacity="0.3"/>
<path opacity="0.7" d="M831.529 26.6016C831.529 27.2666 830.863 27.9317 830.197 27.9317C829.531 27.9317 828.865 27.2666 828.865 26.6016C828.865 25.9365 829.531 25.2715 830.197 25.2715C830.863 25.2715 831.529 25.2715 831.529 26.6016Z" fill="white" fill-opacity="0.3"/>
<path opacity="0.7" d="M167.889 416.939C167.889 417.604 167.223 418.269 166.557 418.269C165.892 418.269 165.226 417.604 165.226 416.939C165.226 416.274 165.892 415.609 166.557 415.609C167.223 415.609 167.889 416.274 167.889 416.939Z" fill="white" fill-opacity="0.3"/>
<path opacity="0.7" d="M167.889 416.939C167.889 417.604 167.223 418.269 166.557 418.269C165.892 418.269 165.226 417.604 165.226 416.939C165.226 416.274 165.892 415.609 166.557 415.609C167.223 415.609 167.889 416.274 167.889 416.939Z" fill="white" fill-opacity="0.3"/>
<path opacity="0.7" d="M1821.86 393.939C1821.86 394.604 1822.53 395.269 1823.2 395.269C1823.86 395.269 1824.53 394.604 1824.53 393.939C1824.53 393.274 1823.86 392.609 1823.2 392.609C1822.53 392.609 1821.86 393.274 1821.86 393.939Z" fill="white" fill-opacity="0.3"/>
<path opacity="0.7" d="M1821.86 393.939C1821.86 394.604 1822.53 395.269 1823.2 395.269C1823.86 395.269 1824.53 394.604 1824.53 393.939C1824.53 393.274 1823.86 392.609 1823.2 392.609C1822.53 392.609 1821.86 393.274 1821.86 393.939Z" fill="white" fill-opacity="0.3"/>
<path opacity="0.7" d="M15.2594 323.213C15.2594 324.543 14.5936 325.208 13.262 325.208C11.9304 325.208 11.2646 324.543 11.2646 323.213C11.2646 321.883 11.9304 321.218 13.262 321.218C14.5936 321.218 15.2594 321.883 15.2594 323.213Z" fill="white" fill-opacity="0.3"/>
<path opacity="0.7" d="M15.2594 323.213C15.2594 324.543 14.5936 325.208 13.262 325.208C11.9304 325.208 11.2646 324.543 11.2646 323.213C11.2646 321.883 11.9304 321.218 13.262 321.218C14.5936 321.218 15.2594 321.883 15.2594 323.213Z" fill="white" fill-opacity="0.3"/>
<path opacity="0.7" d="M1974.49 300.213C1974.49 301.543 1975.16 302.208 1976.49 302.208C1977.82 302.208 1978.49 301.543 1978.49 300.213C1978.49 298.883 1977.82 298.218 1976.49 298.218C1975.16 298.218 1974.49 298.883 1974.49 300.213Z" fill="white" fill-opacity="0.3"/>
<path opacity="0.7" d="M1974.49 300.213C1974.49 301.543 1975.16 302.208 1976.49 302.208C1977.82 302.208 1978.49 301.543 1978.49 300.213C1978.49 298.883 1977.82 298.218 1976.49 298.218C1975.16 298.218 1974.49 298.883 1974.49 300.213Z" fill="white" fill-opacity="0.3"/>
<path opacity="0.7" d="M420.388 941.599C420.388 943.594 418.39 945.589 416.393 945.589C414.396 945.589 412.398 943.594 412.398 941.599C412.398 939.604 414.396 937.609 416.393 937.609C418.39 938.274 420.388 939.604 420.388 941.599Z" fill="white" fill-opacity="0.3"/>
<path opacity="0.7" d="M420.388 941.599C420.388 943.594 418.39 945.589 416.393 945.589C414.396 945.589 412.398 943.594 412.398 941.599C412.398 939.604 414.396 937.609 416.393 937.609C418.39 938.274 420.388 939.604 420.388 941.599Z" fill="white" fill-opacity="0.3"/>
<path opacity="0.7" d="M1569.37 918.599C1569.37 920.594 1571.36 922.589 1573.36 922.589C1575.36 922.589 1577.36 920.594 1577.36 918.599C1577.36 916.604 1575.36 914.609 1573.36 914.609C1571.36 915.274 1569.37 916.604 1569.37 918.599Z" fill="white" fill-opacity="0.3"/>
<path opacity="0.7" d="M1569.37 918.599C1569.37 920.594 1571.36 922.589 1573.36 922.589C1575.36 922.589 1577.36 920.594 1577.36 918.599C1577.36 916.604 1575.36 914.609 1573.36 914.609C1571.36 915.274 1569.37 916.604 1569.37 918.599Z" fill="white" fill-opacity="0.3"/>
<path opacity="0.7" d="M204.344 252.717C204.344 253.383 203.679 254.048 203.013 254.048C202.347 254.048 201.681 253.383 201.681 252.717C201.681 252.052 202.347 251.387 203.013 251.387C203.679 250.722 204.344 251.387 204.344 252.717Z" fill="white" fill-opacity="0.3"/>
<path opacity="0.7" d="M204.344 252.717C204.344 253.383 203.679 254.048 203.013 254.048C202.347 254.048 201.681 253.383 201.681 252.717C201.681 252.052 202.347 251.387 203.013 251.387C203.679 250.722 204.344 251.387 204.344 252.717Z" fill="white" fill-opacity="0.3"/>
<path opacity="0.7" d="M1785.41 229.717C1785.41 230.383 1786.08 231.048 1786.74 231.048C1787.41 231.048 1788.07 230.383 1788.07 229.717C1788.07 229.052 1787.41 228.387 1786.74 228.387C1786.08 227.722 1785.41 228.387 1785.41 229.717Z" fill="white" fill-opacity="0.3"/>
<path opacity="0.7" d="M1785.41 229.717C1785.41 230.383 1786.08 231.048 1786.74 231.048C1787.41 231.048 1788.07 230.383 1788.07 229.717C1788.07 229.052 1787.41 228.387 1786.74 228.387C1786.08 227.722 1785.41 228.387 1785.41 229.717Z" fill="white" fill-opacity="0.3"/>
<path opacity="0.7" d="M288.104 990.928C288.104 991.593 287.438 992.258 286.772 992.258C286.106 992.258 285.441 991.593 285.441 990.928C285.441 990.263 286.106 989.598 286.772 989.598C287.438 989.598 288.104 990.263 288.104 990.928Z" fill="white" fill-opacity="0.3"/>
<path opacity="0.7" d="M288.104 990.928C288.104 991.593 287.438 992.258 286.772 992.258C286.106 992.258 285.441 991.593 285.441 990.928C285.441 990.263 286.106 989.598 286.772 989.598C287.438 989.598 288.104 990.263 288.104 990.928Z" fill="white" fill-opacity="0.3"/>
<path opacity="0.7" d="M1701.65 967.928C1701.65 968.593 1702.32 969.258 1702.98 969.258C1703.65 969.258 1704.31 968.593 1704.31 967.928C1704.31 967.263 1703.65 966.598 1702.98 966.598C1702.32 966.598 1701.65 967.263 1701.65 967.928Z" fill="white" fill-opacity="0.3"/>
<path opacity="0.7" d="M1701.65 967.928C1701.65 968.593 1702.32 969.258 1702.98 969.258C1703.65 969.258 1704.31 968.593 1704.31 967.928C1704.31 967.263 1703.65 966.598 1702.98 966.598C1702.32 966.598 1701.65 967.263 1701.65 967.928Z" fill="white" fill-opacity="0.3"/>
<path opacity="0.7" d="M727.859 504.939C727.859 505.604 727.193 506.269 726.527 506.269C725.862 506.269 725.196 505.604 725.196 504.939C725.196 504.274 725.862 503.609 726.527 503.609C727.193 503.609 727.859 504.274 727.859 504.939Z" fill="white" fill-opacity="0.3"/>
<path opacity="0.7" d="M727.859 504.939C727.859 505.604 727.193 506.269 726.527 506.269C725.862 506.269 725.196 505.604 725.196 504.939C725.196 504.274 725.862 503.609 726.527 503.609C727.193 503.609 727.859 504.274 727.859 504.939Z" fill="white" fill-opacity="0.3"/>
<path opacity="0.7" d="M1261.89 481.939C1261.89 482.604 1262.56 483.269 1263.23 483.269C1263.89 483.269 1264.56 482.604 1264.56 481.939C1264.56 481.274 1263.89 480.609 1263.23 480.609C1262.56 480.609 1261.89 481.274 1261.89 481.939Z" fill="white" fill-opacity="0.3"/>
<path opacity="0.7" d="M1261.89 481.939C1261.89 482.604 1262.56 483.269 1263.23 483.269C1263.89 483.269 1264.56 482.604 1264.56 481.939C1264.56 481.274 1263.89 480.609 1263.23 480.609C1262.56 480.609 1261.89 481.274 1261.89 481.939Z" fill="white" fill-opacity="0.3"/>
<path opacity="0.7" d="M1140.71 630.939C1140.71 631.604 1140.04 632.269 1139.38 632.269C1138.71 632.269 1138.05 631.604 1138.05 630.939C1138.05 630.274 1138.71 629.609 1139.38 629.609C1140.04 629.609 1140.71 630.274 1140.71 630.939Z" fill="white" fill-opacity="0.3"/>
<path opacity="0.7" d="M1140.71 630.939C1140.71 631.604 1140.04 632.269 1139.38 632.269C1138.71 632.269 1138.05 631.604 1138.05 630.939C1138.05 630.274 1138.71 629.609 1139.38 629.609C1140.04 629.609 1140.71 630.274 1140.71 630.939Z" fill="white" fill-opacity="0.3"/>
<path opacity="0.7" d="M774.709 319.939C774.709 320.604 774.043 321.269 773.377 321.269C772.711 321.269 772.045 320.604 772.045 319.939C772.045 319.274 772.711 318.609 773.377 318.609C774.043 318.609 774.709 319.274 774.709 319.939Z" fill="white" fill-opacity="0.3"/>
<path opacity="0.7" d="M774.709 319.939C774.709 320.604 774.043 321.269 773.377 321.269C772.711 321.269 772.045 320.604 772.045 319.939C772.045 319.274 772.711 318.609 773.377 318.609C774.043 318.609 774.709 319.274 774.709 319.939Z" fill="white" fill-opacity="0.3"/>
<path opacity="0.7" d="M1215.05 296.939C1215.05 297.604 1215.71 298.269 1216.38 298.269C1217.04 298.269 1217.71 297.604 1217.71 296.939C1217.71 296.274 1217.04 295.609 1216.38 295.609C1215.71 295.609 1215.05 296.274 1215.05 296.939Z" fill="white" fill-opacity="0.3"/>
<path opacity="0.7" d="M1215.05 296.939C1215.05 297.604 1215.71 298.269 1216.38 298.269C1217.04 298.269 1217.71 297.604 1217.71 296.939C1217.71 296.274 1217.04 295.609 1216.38 295.609C1215.71 295.609 1215.05 296.274 1215.05 296.939Z" fill="white" fill-opacity="0.3"/>
<path opacity="0.7" d="M1148.04 270.176C1148.04 270.842 1147.37 271.507 1146.71 271.507C1146.04 271.507 1145.38 270.842 1145.38 270.176C1145.38 269.511 1146.04 268.846 1146.71 268.846C1147.37 268.181 1148.04 268.846 1148.04 270.176Z" fill="white" fill-opacity="0.3"/>
<path opacity="0.7" d="M1148.04 270.176C1148.04 270.842 1147.37 271.507 1146.71 271.507C1146.04 271.507 1145.38 270.842 1145.38 270.176C1145.38 269.511 1146.04 268.846 1146.71 268.846C1147.37 268.181 1148.04 268.846 1148.04 270.176Z" fill="white" fill-opacity="0.3"/>
<path opacity="0.7" d="M1338.37 810.516C1338.37 811.846 1337.04 813.176 1335.71 813.176C1334.38 813.176 1333.05 811.846 1333.05 810.516C1333.05 809.186 1334.38 807.855 1335.71 807.855C1337.04 807.855 1338.37 809.186 1338.37 810.516Z" fill="white" fill-opacity="0.3"/>
<path opacity="0.7" d="M1338.37 810.516C1338.37 811.846 1337.04 813.176 1335.71 813.176C1334.38 813.176 1333.05 811.846 1333.05 810.516C1333.05 809.186 1334.38 807.855 1335.71 807.855C1337.04 807.855 1338.37 809.186 1338.37 810.516Z" fill="white" fill-opacity="0.3"/>
<path opacity="0.7" d="M802.709 709.571C802.709 710.236 802.043 710.901 801.377 710.901C800.711 710.901 800.045 710.236 800.045 709.571C800.045 708.906 800.711 708.241 801.377 708.241C802.043 708.241 802.709 708.906 802.709 709.571Z" fill="white" fill-opacity="0.3"/>
<path opacity="0.7" d="M802.709 709.571C802.709 710.236 802.043 710.901 801.377 710.901C800.711 710.901 800.045 710.236 800.045 709.571C800.045 708.906 800.711 708.241 801.377 708.241C802.043 708.241 802.709 708.906 802.709 709.571Z" fill="white" fill-opacity="0.3"/>
<path opacity="0.7" d="M707.708 191.269C707.708 191.934 707.043 192.599 706.377 192.599C705.711 192.599 705.045 191.934 705.045 191.269C705.045 190.603 705.711 189.938 706.377 189.938C707.043 189.938 707.708 190.603 707.708 191.269Z" fill="white" fill-opacity="0.3"/>
<path opacity="0.7" d="M707.708 191.269C707.708 191.934 707.043 192.599 706.377 192.599C705.711 192.599 705.045 191.934 705.045 191.269C705.045 190.603 705.711 189.938 706.377 189.938C707.043 189.938 707.708 190.603 707.708 191.269Z" fill="white" fill-opacity="0.3"/>
<path opacity="0.7" d="M1282.05 168.269C1282.05 168.934 1282.71 169.599 1283.38 169.599C1284.04 169.599 1284.71 168.934 1284.71 168.269C1284.71 167.603 1284.04 166.938 1283.38 166.938C1282.71 166.938 1282.05 167.603 1282.05 168.269Z" fill="white" fill-opacity="0.3"/>
<path opacity="0.7" d="M1282.05 168.269C1282.05 168.934 1282.71 169.599 1283.38 169.599C1284.04 169.599 1284.71 168.934 1284.71 168.269C1284.71 167.603 1284.04 166.938 1283.38 166.938C1282.71 166.938 1282.05 167.603 1282.05 168.269Z" fill="white" fill-opacity="0.3"/>
<path opacity="0.7" d="M58.5363 375.086C58.5363 376.417 57.8705 377.082 56.5389 377.082C55.2073 377.082 54.5415 376.417 54.5415 375.086C54.5415 373.756 55.2073 373.091 56.5389 373.091C57.8705 373.091 58.5363 373.756 58.5363 375.086Z" fill="white" fill-opacity="0.3"/>
<path opacity="0.7" d="M58.5363 375.086C58.5363 376.417 57.8705 377.082 56.5389 377.082C55.2073 377.082 54.5415 376.417 54.5415 375.086C54.5415 373.756 55.2073 373.091 56.5389 373.091C57.8705 373.091 58.5363 373.756 58.5363 375.086Z" fill="white" fill-opacity="0.3"/>
<path opacity="0.7" d="M1931.22 352.086C1931.22 353.417 1931.88 354.082 1933.21 354.082C1934.55 354.082 1935.21 353.417 1935.21 352.086C1935.21 350.756 1934.55 350.091 1933.21 350.091C1931.88 350.091 1931.22 350.756 1931.22 352.086Z" fill="white" fill-opacity="0.3"/>
<path opacity="0.7" d="M1931.22 352.086C1931.22 353.417 1931.88 354.082 1933.21 354.082C1934.55 354.082 1935.21 353.417 1935.21 352.086C1935.21 350.756 1934.55 350.091 1933.21 350.091C1931.88 350.091 1931.22 350.756 1931.22 352.086Z" fill="white" fill-opacity="0.3"/>
<path opacity="0.7" d="M560.709 698.265C560.709 698.93 560.043 699.595 559.377 699.595C558.711 699.595 558.045 698.93 558.045 698.265C558.045 697.6 558.711 696.935 559.377 696.935C560.043 696.27 560.709 696.935 560.709 698.265Z" fill="white" fill-opacity="0.3"/>
<path opacity="0.7" d="M560.709 698.265C560.709 698.93 560.043 699.595 559.377 699.595C558.711 699.595 558.045 698.93 558.045 698.265C558.045 697.6 558.711 696.935 559.377 696.935C560.043 696.27 560.709 696.935 560.709 698.265Z" fill="white" fill-opacity="0.3"/>
<path opacity="0.7" d="M1429.05 675.265C1429.05 675.93 1429.71 676.595 1430.38 676.595C1431.04 676.595 1431.71 675.93 1431.71 675.265C1431.71 674.6 1431.04 673.935 1430.38 673.935C1429.71 673.27 1429.05 673.935 1429.05 675.265Z" fill="white" fill-opacity="0.3"/>
<path opacity="0.7" d="M1429.05 675.265C1429.05 675.93 1429.71 676.595 1430.38 676.595C1431.04 676.595 1431.71 675.93 1431.71 675.265C1431.71 674.6 1431.04 673.935 1430.38 673.935C1429.71 673.27 1429.05 673.935 1429.05 675.265Z" fill="white" fill-opacity="0.3"/>
<path opacity="0.7" d="M728.311 999.939C728.311 1000.6 727.645 1001.27 726.979 1001.27C726.313 1001.27 725.647 1000.6 725.647 999.939C725.647 999.274 726.313 998.609 726.979 998.609C727.645 998.609 728.311 999.274 728.311 999.939Z" fill="white" fill-opacity="0.3"/>
<path opacity="0.7" d="M728.311 999.939C728.311 1000.6 727.645 1001.27 726.979 1001.27C726.313 1001.27 725.647 1000.6 725.647 999.939C725.647 999.274 726.313 998.609 726.979 998.609C727.645 998.609 728.311 999.274 728.311 999.939Z" fill="white" fill-opacity="0.3"/>
<path opacity="0.7" d="M1261.44 976.939C1261.44 977.604 1262.11 978.269 1262.77 978.269C1263.44 978.269 1264.11 977.604 1264.11 976.939C1264.11 976.274 1263.44 975.609 1262.77 975.609C1262.11 975.609 1261.44 976.274 1261.44 976.939Z" fill="white" fill-opacity="0.3"/>
<path opacity="0.7" d="M1261.44 976.939C1261.44 977.604 1262.11 978.269 1262.77 978.269C1263.44 978.269 1264.11 977.604 1264.11 976.939C1264.11 976.274 1263.44 975.609 1262.77 975.609C1262.11 975.609 1261.44 976.274 1261.44 976.939Z" fill="white" fill-opacity="0.3"/>
<path opacity="0.7" d="M213.296 90.2686C213.296 90.9336 212.63 91.5987 211.964 91.5987C211.299 91.5987 210.633 90.9336 210.633 90.2686C210.633 89.6035 211.299 88.9385 211.964 88.9385C212.63 88.9385 213.296 89.6035 213.296 90.2686Z" fill="white" fill-opacity="0.3"/>
<path opacity="0.7" d="M213.296 90.2686C213.296 90.9336 212.63 91.5987 211.964 91.5987C211.299 91.5987 210.633 90.9336 210.633 90.2686C210.633 89.6035 211.299 88.9385 211.964 88.9385C212.63 88.9385 213.296 89.6035 213.296 90.2686Z" fill="white" fill-opacity="0.3"/>
<path opacity="0.7" d="M1776.46 67.2686C1776.46 67.9336 1777.12 68.5987 1777.79 68.5987C1778.46 68.5987 1779.12 67.9336 1779.12 67.2686C1779.12 66.6035 1778.46 65.9385 1777.79 65.9385C1777.12 65.9385 1776.46 66.6035 1776.46 67.2686Z" fill="white" fill-opacity="0.3"/>
<path opacity="0.7" d="M1776.46 67.2686C1776.46 67.9336 1777.12 68.5987 1777.79 68.5987C1778.46 68.5987 1779.12 67.9336 1779.12 67.2686C1779.12 66.6035 1778.46 65.9385 1777.79 65.9385C1777.12 65.9385 1776.46 66.6035 1776.46 67.2686Z" fill="white" fill-opacity="0.3"/>
<path opacity="0.7" d="M607.392 699.655C607.392 700.985 606.06 702.315 604.729 702.315C603.397 702.315 602.066 700.985 602.066 699.655C602.066 698.325 603.397 696.995 604.729 696.995C606.06 696.995 607.392 698.325 607.392 699.655Z" fill="white" fill-opacity="0.3"/>
<path opacity="0.7" d="M607.392 699.655C607.392 700.985 606.06 702.315 604.729 702.315C603.397 702.315 602.066 700.985 602.066 699.655C602.066 698.325 603.397 696.995 604.729 696.995C606.06 696.995 607.392 698.325 607.392 699.655Z" fill="white" fill-opacity="0.3"/>
<path opacity="0.7" d="M1382.36 676.655C1382.36 677.985 1383.69 679.315 1385.02 679.315C1386.36 679.315 1387.69 677.985 1387.69 676.655C1387.69 675.325 1386.36 673.995 1385.02 673.995C1383.69 673.995 1382.36 675.325 1382.36 676.655Z" fill="white" fill-opacity="0.3"/>
<path opacity="0.7" d="M1382.36 676.655C1382.36 677.985 1383.69 679.315 1385.02 679.315C1386.36 679.315 1387.69 677.985 1387.69 676.655C1387.69 675.325 1386.36 673.995 1385.02 673.995C1383.69 673.995 1382.36 675.325 1382.36 676.655Z" fill="white" fill-opacity="0.3"/>
<path opacity="0.7" d="M369.331 988.269C369.331 989.599 368 990.929 366.668 990.929C365.336 990.929 364.005 989.599 364.005 988.269C364.005 986.939 365.336 985.609 366.668 985.609C368 985.609 369.331 986.939 369.331 988.269Z" fill="white" fill-opacity="0.3"/>
<path opacity="0.7" d="M369.331 988.269C369.331 989.599 368 990.929 366.668 990.929C365.336 990.929 364.005 989.599 364.005 988.269C364.005 986.939 365.336 985.609 366.668 985.609C368 985.609 369.331 986.939 369.331 988.269Z" fill="white" fill-opacity="0.3"/>
<path opacity="0.7" d="M1620.42 965.269C1620.42 966.599 1621.75 967.929 1623.09 967.929C1624.42 967.929 1625.75 966.599 1625.75 965.269C1625.75 963.939 1624.42 962.609 1623.09 962.609C1621.75 962.609 1620.42 963.939 1620.42 965.269Z" fill="white" fill-opacity="0.3"/>
<path opacity="0.7" d="M1620.42 965.269C1620.42 966.599 1621.75 967.929 1623.09 967.929C1624.42 967.929 1625.75 966.599 1625.75 965.269C1625.75 963.939 1624.42 962.609 1623.09 962.609C1621.75 962.609 1620.42 963.939 1620.42 965.269Z" fill="white" fill-opacity="0.3"/>
<path opacity="0.7" d="M152.04 110.885C152.04 112.215 151.374 112.88 150.043 112.88C148.711 112.88 148.045 112.215 148.045 110.885C148.045 109.555 148.711 108.89 150.043 108.89C151.374 108.89 152.04 109.555 152.04 110.885Z" fill="white" fill-opacity="0.3"/>
<path opacity="0.7" d="M152.04 110.885C152.04 112.215 151.374 112.88 150.043 112.88C148.711 112.88 148.045 112.215 148.045 110.885C148.045 109.555 148.711 108.89 150.043 108.89C151.374 108.89 152.04 109.555 152.04 110.885Z" fill="white" fill-opacity="0.3"/>
<path opacity="0.7" d="M1837.71 87.8848C1837.71 89.2149 1838.38 89.8799 1839.71 89.8799C1841.04 89.8799 1841.71 89.2149 1841.71 87.8848C1841.71 86.5547 1841.04 85.8896 1839.71 85.8896C1838.38 85.8896 1837.71 86.5547 1837.71 87.8848Z" fill="white" fill-opacity="0.3"/>
<path opacity="0.7" d="M1837.71 87.8848C1837.71 89.2149 1838.38 89.8799 1839.71 89.8799C1841.04 89.8799 1841.71 89.2149 1841.71 87.8848C1841.71 86.5547 1841.04 85.8896 1839.71 85.8896C1838.38 85.8896 1837.71 86.5547 1837.71 87.8848Z" fill="white" fill-opacity="0.3"/>
<path opacity="0.7" d="M422.774 173.382C422.774 174.047 422.108 174.712 421.442 174.712C420.776 174.712 420.11 174.047 420.11 173.382C420.11 172.717 420.776 172.052 421.442 172.052C422.108 172.052 422.774 172.717 422.774 173.382Z" fill="white" fill-opacity="0.3"/>
<path opacity="0.7" d="M422.774 173.382C422.774 174.047 422.108 174.712 421.442 174.712C420.776 174.712 420.11 174.047 420.11 173.382C420.11 172.717 420.776 172.052 421.442 172.052C422.108 172.052 422.774 172.717 422.774 173.382Z" fill="white" fill-opacity="0.3"/>
<path opacity="0.7" d="M1566.98 150.382C1566.98 151.047 1567.65 151.712 1568.31 151.712C1568.98 151.712 1569.64 151.047 1569.64 150.382C1569.64 149.717 1568.98 149.052 1568.31 149.052C1567.65 149.052 1566.98 149.717 1566.98 150.382Z" fill="white" fill-opacity="0.3"/>
<path opacity="0.7" d="M1566.98 150.382C1566.98 151.047 1567.65 151.712 1568.31 151.712C1568.98 151.712 1569.64 151.047 1569.64 150.382C1569.64 149.717 1568.98 149.052 1568.31 149.052C1567.65 149.052 1566.98 149.717 1566.98 150.382Z" fill="white" fill-opacity="0.3"/>
<path opacity="0.7" d="M580.68 696.269C580.68 697.599 579.349 698.929 578.017 698.929C576.685 698.929 575.354 697.599 575.354 696.269C575.354 694.939 576.685 693.609 578.017 693.609C580.014 693.609 580.68 694.274 580.68 696.269Z" fill="white" fill-opacity="0.3"/>
<path opacity="0.7" d="M580.68 696.269C580.68 697.599 579.349 698.929 578.017 698.929C576.685 698.929 575.354 697.599 575.354 696.269C575.354 694.939 576.685 693.609 578.017 693.609C580.014 693.609 580.68 694.274 580.68 696.269Z" fill="white" fill-opacity="0.3"/>
<path opacity="0.7" d="M1409.07 673.269C1409.07 674.599 1410.41 675.929 1411.74 675.929C1413.07 675.929 1414.4 674.599 1414.4 673.269C1414.4 671.939 1413.07 670.609 1411.74 670.609C1409.74 670.609 1409.07 671.274 1409.07 673.269Z" fill="white" fill-opacity="0.3"/>
<path opacity="0.7" d="M1409.07 673.269C1409.07 674.599 1410.41 675.929 1411.74 675.929C1413.07 675.929 1414.4 674.599 1414.4 673.269C1414.4 671.939 1413.07 670.609 1411.74 670.609C1409.74 670.609 1409.07 671.274 1409.07 673.269Z" fill="white" fill-opacity="0.3"/>
<path opacity="0.7" d="M520.228 152.604C520.228 153.934 519.562 154.599 518.23 154.599C516.899 154.599 516.233 153.934 516.233 152.604C516.233 151.274 516.899 150.609 518.23 150.609C518.896 150.609 520.228 151.274 520.228 152.604Z" fill="white" fill-opacity="0.3"/>
<path opacity="0.7" d="M520.228 152.604C520.228 153.934 519.562 154.599 518.23 154.599C516.899 154.599 516.233 153.934 516.233 152.604C516.233 151.274 516.899 150.609 518.23 150.609C518.896 150.609 520.228 151.274 520.228 152.604Z" fill="white" fill-opacity="0.3"/>
<path opacity="0.7" d="M1469.53 129.604C1469.53 130.934 1470.19 131.599 1471.52 131.599C1472.85 131.599 1473.52 130.934 1473.52 129.604C1473.52 128.274 1472.85 127.609 1471.52 127.609C1470.86 127.609 1469.53 128.274 1469.53 129.604Z" fill="white" fill-opacity="0.3"/>
<path opacity="0.7" d="M1469.53 129.604C1469.53 130.934 1470.19 131.599 1471.52 131.599C1472.85 131.599 1473.52 130.934 1473.52 129.604C1473.52 128.274 1472.85 127.609 1471.52 127.609C1470.86 127.609 1469.53 128.274 1469.53 129.604Z" fill="white" fill-opacity="0.3"/>
<path opacity="0.7" d="M508.936 995.467C508.936 996.797 508.27 997.462 506.939 997.462C505.607 997.462 504.941 996.797 504.941 995.467C504.941 994.137 505.607 993.472 506.939 993.472C508.27 993.472 508.936 994.137 508.936 995.467Z" fill="white" fill-opacity="0.3"/>
<path opacity="0.7" d="M508.936 995.467C508.936 996.797 508.27 997.462 506.939 997.462C505.607 997.462 504.941 996.797 504.941 995.467C504.941 994.137 505.607 993.472 506.939 993.472C508.27 993.472 508.936 994.137 508.936 995.467Z" fill="white" fill-opacity="0.3"/>
<path opacity="0.7" d="M1480.82 972.467C1480.82 973.797 1481.48 974.462 1482.81 974.462C1484.15 974.462 1484.81 973.797 1484.81 972.467C1484.81 971.137 1484.15 970.472 1482.81 970.472C1481.48 970.472 1480.82 971.137 1480.82 972.467Z" fill="white" fill-opacity="0.3"/>
<path opacity="0.7" d="M1480.82 972.467C1480.82 973.797 1481.48 974.462 1482.81 974.462C1484.15 974.462 1484.81 973.797 1484.81 972.467C1484.81 971.137 1484.15 970.472 1482.81 970.472C1481.48 970.472 1480.82 971.137 1480.82 972.467Z" fill="white" fill-opacity="0.3"/>
<path opacity="0.7" d="M664.61 506.934C664.61 506.269 665.276 505.604 665.942 505.604C666.608 505.604 667.274 506.269 667.274 506.934C667.274 507.599 666.608 508.264 665.942 508.264C665.276 508.264 664.61 507.599 664.61 506.934Z" fill="white" fill-opacity="0.3"/>
<path opacity="0.7" d="M664.61 506.934C664.61 506.269 665.276 505.604 665.942 505.604C666.608 505.604 667.274 506.269 667.274 506.934C667.274 507.599 666.608 508.264 665.942 508.264C665.276 508.264 664.61 507.599 664.61 506.934Z" fill="white" fill-opacity="0.3"/>
<path opacity="0.7" d="M1325.14 483.934C1325.14 483.269 1324.48 482.604 1323.81 482.604C1323.15 482.604 1322.48 483.269 1322.48 483.934C1322.48 484.599 1323.15 485.264 1323.81 485.264C1324.48 485.264 1325.14 484.599 1325.14 483.934Z" fill="white" fill-opacity="0.3"/>
<path opacity="0.7" d="M1325.14 483.934C1325.14 483.269 1324.48 482.604 1323.81 482.604C1323.15 482.604 1322.48 483.269 1322.48 483.934C1322.48 484.599 1323.15 485.264 1323.81 485.264C1324.48 485.264 1325.14 484.599 1325.14 483.934Z" fill="white" fill-opacity="0.3"/>
<path opacity="0.7" d="M1122.05 489.269C1122.05 487.939 1123.38 486.609 1124.71 486.609C1126.04 486.609 1127.37 487.939 1127.37 489.269C1127.37 490.599 1126.04 491.929 1124.71 491.929C1123.38 491.929 1122.05 491.264 1122.05 489.269Z" fill="white" fill-opacity="0.3"/>
<path opacity="0.7" d="M1122.05 489.269C1122.05 487.939 1123.38 486.609 1124.71 486.609C1126.04 486.609 1127.37 487.939 1127.37 489.269C1127.37 490.599 1126.04 491.929 1124.71 491.929C1123.38 491.929 1122.05 491.264 1122.05 489.269Z" fill="white" fill-opacity="0.3"/>
<path opacity="0.7" d="M901.691 280.817C901.691 282.147 900.36 283.478 899.028 283.478C897.696 283.478 896.365 282.147 896.365 280.817C896.365 279.487 897.696 278.157 899.028 278.157C900.36 278.157 901.691 278.822 901.691 280.817Z" fill="white" fill-opacity="0.3"/>
<path opacity="0.7" d="M901.691 280.817C901.691 282.147 900.36 283.478 899.028 283.478C897.696 283.478 896.365 282.147 896.365 280.817C896.365 279.487 897.696 278.157 899.028 278.157C900.36 278.157 901.691 278.822 901.691 280.817Z" fill="white" fill-opacity="0.3"/>
<path opacity="0.7" d="M959.04 827.604C959.04 828.934 958.374 829.599 957.043 829.599C955.711 829.599 955.045 828.934 955.045 827.604C955.045 826.274 955.711 825.609 957.043 825.609C958.374 825.609 959.04 826.274 959.04 827.604Z" fill="white" fill-opacity="0.3"/>
<path opacity="0.7" d="M959.04 827.604C959.04 828.934 958.374 829.599 957.043 829.599C955.711 829.599 955.045 828.934 955.045 827.604C955.045 826.274 955.711 825.609 957.043 825.609C958.374 825.609 959.04 826.274 959.04 827.604Z" fill="white" fill-opacity="0.3"/>
<path opacity="0.7" d="M1446.73 408.277C1446.73 408.942 1446.06 409.607 1445.4 409.607C1444.73 409.607 1444.07 408.942 1444.07 408.277C1444.07 407.611 1444.73 406.946 1445.4 406.946C1446.06 406.281 1446.73 406.946 1446.73 408.277Z" fill="white" fill-opacity="0.3"/>
<path opacity="0.7" d="M1446.73 408.277C1446.73 408.942 1446.06 409.607 1445.4 409.607C1444.73 409.607 1444.07 408.942 1444.07 408.277C1444.07 407.611 1444.73 406.946 1445.4 406.946C1446.06 406.281 1446.73 406.946 1446.73 408.277Z" fill="white" fill-opacity="0.3"/>
<path opacity="0.7" d="M351.119 91.5992C351.119 93.5943 349.122 95.5894 347.124 95.5894C345.127 95.5894 343.129 93.5943 343.129 91.5992C343.129 89.604 345.127 87.6089 347.124 87.6089C349.787 88.2739 351.119 89.604 351.119 91.5992Z" fill="white" fill-opacity="0.3"/>
<path opacity="0.7" d="M351.119 91.5992C351.119 93.5943 349.122 95.5894 347.124 95.5894C345.127 95.5894 343.129 93.5943 343.129 91.5992C343.129 89.604 345.127 87.6089 347.124 87.6089C349.787 88.2739 351.119 89.604 351.119 91.5992Z" fill="white" fill-opacity="0.3"/>
<path opacity="0.7" d="M1638.63 68.5992C1638.63 70.5943 1640.63 72.5894 1642.63 72.5894C1644.63 72.5894 1646.62 70.5943 1646.62 68.5992C1646.62 66.604 1644.63 64.6089 1642.63 64.6089C1639.97 65.2739 1638.63 66.604 1638.63 68.5992Z" fill="white" fill-opacity="0.3"/>
<path opacity="0.7" d="M1638.63 68.5992C1638.63 70.5943 1640.63 72.5894 1642.63 72.5894C1644.63 72.5894 1646.62 70.5943 1646.62 68.5992C1646.62 66.604 1644.63 64.6089 1642.63 64.6089C1639.97 65.2739 1638.63 66.604 1638.63 68.5992Z" fill="white" fill-opacity="0.3"/>
<g opacity="0.7">
<path opacity="0.7" d="M561.883 0L563.215 13.966L577.197 15.2961L563.215 15.9611L561.883 30.5921L560.552 15.9611L546.57 15.2961L560.552 13.966L561.883 0Z" fill="white" fill-opacity="0.3"/>
<path opacity="0.7" d="M567.875 8.646L563.214 15.2965L567.875 21.2819L561.882 16.6266L555.224 21.9469L561.217 15.2965L555.224 9.31103L561.882 13.9664L567.875 8.646Z" fill="white" fill-opacity="0.3"/>
</g>
<g opacity="0.7">
<path opacity="0.7" d="M561.883 0L563.215 13.966L577.197 15.2961L563.215 15.9611L561.883 30.5921L560.552 15.9611L546.57 15.2961L560.552 13.966L561.883 0Z" fill="white" fill-opacity="0.3"/>
<path opacity="0.7" d="M567.875 8.646L563.214 15.2965L567.875 21.2819L561.882 16.6266L555.224 21.9469L561.217 15.2965L555.224 9.31103L561.882 13.9664L567.875 8.646Z" fill="white" fill-opacity="0.3"/>
</g>
<g opacity="0.7">
<path opacity="0.7" d="M1377.65 772.609L1378.32 782.585L1388.3 783.25L1378.32 783.915L1377.65 793.89L1376.98 783.915L1367 783.25L1376.98 782.585L1377.65 772.609Z" fill="white" fill-opacity="0.3"/>
<path opacity="0.7" d="M1381.65 778.594L1378.32 783.249L1381.65 787.905L1377.65 783.914L1372.99 787.905L1376.99 783.249L1372.99 779.259L1377.65 782.584L1381.65 778.594Z" fill="white" fill-opacity="0.3"/>
</g>
<g opacity="0.7">
<path opacity="0.7" d="M1377.65 772.609L1378.32 782.585L1388.3 783.25L1378.32 783.915L1377.65 793.89L1376.98 783.915L1367 783.25L1376.98 782.585L1377.65 772.609Z" fill="white" fill-opacity="0.3"/>
<path opacity="0.7" d="M1381.65 778.594L1378.32 783.249L1381.65 787.905L1377.65 783.914L1372.99 787.905L1376.99 783.249L1372.99 779.259L1377.65 782.584L1381.65 778.594Z" fill="white" fill-opacity="0.3"/>
</g>
<path opacity="0.7" d="M268.183 682.137C268.183 680.807 268.849 680.142 270.18 680.142C271.512 680.142 272.177 680.807 272.177 682.137C272.177 683.467 271.512 684.132 270.18 684.132C269.514 684.132 268.183 683.467 268.183 682.137Z" fill="white" fill-opacity="0.3"/>
<path opacity="0.7" d="M268.183 682.137C268.183 680.807 268.849 680.142 270.18 680.142C271.512 680.142 272.177 680.807 272.177 682.137C272.177 683.467 271.512 684.132 270.18 684.132C269.514 684.132 268.183 683.467 268.183 682.137Z" fill="white" fill-opacity="0.3"/>
<path opacity="0.7" d="M1721.57 659.137C1721.57 657.807 1720.91 657.142 1719.57 657.142C1718.24 657.142 1717.58 657.807 1717.58 659.137C1717.58 660.467 1718.24 661.132 1719.57 661.132C1720.24 661.132 1721.57 660.467 1721.57 659.137Z" fill="white" fill-opacity="0.3"/>
<path opacity="0.7" d="M1721.57 659.137C1721.57 657.807 1720.91 657.142 1719.57 657.142C1718.24 657.142 1717.58 657.807 1717.58 659.137C1717.58 660.467 1718.24 661.132 1719.57 661.132C1720.24 661.132 1721.57 660.467 1721.57 659.137Z" fill="white" fill-opacity="0.3"/>
<path opacity="0.7" d="M189.528 713.448C189.528 712.783 190.194 712.118 190.86 712.118C191.526 712.118 192.191 712.783 192.191 713.448C192.191 714.113 191.526 714.778 190.86 714.778C190.194 715.443 189.528 714.778 189.528 713.448Z" fill="white" fill-opacity="0.3"/>
<path opacity="0.7" d="M189.528 713.448C189.528 712.783 190.194 712.118 190.86 712.118C191.526 712.118 192.191 712.783 192.191 713.448C192.191 714.113 191.526 714.778 190.86 714.778C190.194 715.443 189.528 714.778 189.528 713.448Z" fill="white" fill-opacity="0.3"/>
<path opacity="0.7" d="M1800.23 690.448C1800.23 689.783 1799.56 689.118 1798.89 689.118C1798.23 689.118 1797.56 689.783 1797.56 690.448C1797.56 691.113 1798.23 691.778 1798.89 691.778C1799.56 692.443 1800.23 691.778 1800.23 690.448Z" fill="white" fill-opacity="0.3"/>
<path opacity="0.7" d="M1800.23 690.448C1800.23 689.783 1799.56 689.118 1798.89 689.118C1798.23 689.118 1797.56 689.783 1797.56 690.448C1797.56 691.113 1798.23 691.778 1798.89 691.778C1799.56 692.443 1800.23 691.778 1800.23 690.448Z" fill="white" fill-opacity="0.3"/>
<path opacity="0.7" d="M25.5884 617.808C25.5884 617.143 26.2542 616.478 26.92 616.478C27.5857 616.478 28.2515 617.143 28.2515 617.808C28.2515 618.473 27.5857 619.139 26.92 619.139C26.2542 619.804 25.5884 619.138 25.5884 617.808Z" fill="white" fill-opacity="0.3"/>
<path opacity="0.7" d="M25.5884 617.808C25.5884 617.143 26.2542 616.478 26.92 616.478C27.5857 616.478 28.2515 617.143 28.2515 617.808C28.2515 618.473 27.5857 619.139 26.92 619.139C26.2542 619.804 25.5884 619.138 25.5884 617.808Z" fill="white" fill-opacity="0.3"/>
<path opacity="0.7" d="M1964.17 594.808C1964.17 594.143 1963.5 593.478 1962.83 593.478C1962.17 593.478 1961.5 594.143 1961.5 594.808C1961.5 595.473 1962.17 596.139 1962.83 596.139C1963.5 596.804 1964.17 596.138 1964.17 594.808Z" fill="white" fill-opacity="0.3"/>
<path opacity="0.7" d="M1964.17 594.808C1964.17 594.143 1963.5 593.478 1962.83 593.478C1962.17 593.478 1961.5 594.143 1961.5 594.808C1961.5 595.473 1962.17 596.139 1962.83 596.139C1963.5 596.804 1964.17 596.138 1964.17 594.808Z" fill="white" fill-opacity="0.3"/>
<path opacity="0.7" d="M173.057 747.198C173.057 746.533 173.722 745.868 174.388 745.868C175.054 745.868 175.72 746.533 175.72 747.198C175.72 747.863 175.054 748.528 174.388 748.528C173.722 748.528 173.057 747.863 173.057 747.198Z" fill="white" fill-opacity="0.3"/>
<path opacity="0.7" d="M173.057 747.198C173.057 746.533 173.722 745.868 174.388 745.868C175.054 745.868 175.72 746.533 175.72 747.198C175.72 747.863 175.054 748.528 174.388 748.528C173.722 748.528 173.057 747.863 173.057 747.198Z" fill="white" fill-opacity="0.3"/>
<path opacity="0.7" d="M1816.7 724.198C1816.7 723.533 1816.03 722.868 1815.37 722.868C1814.7 722.868 1814.03 723.533 1814.03 724.198C1814.03 724.863 1814.7 725.528 1815.37 725.528C1816.03 725.528 1816.7 724.863 1816.7 724.198Z" fill="white" fill-opacity="0.3"/>
<path opacity="0.7" d="M1816.7 724.198C1816.7 723.533 1816.03 722.868 1815.37 722.868C1814.7 722.868 1814.03 723.533 1814.03 724.198C1814.03 724.863 1814.7 725.528 1815.37 725.528C1816.03 725.528 1816.7 724.863 1816.7 724.198Z" fill="white" fill-opacity="0.3"/>
<path opacity="0.7" d="M186.666 912.296C186.666 911.631 187.332 910.966 187.998 910.966C188.664 910.966 189.329 911.631 189.329 912.296C189.329 912.961 188.664 913.626 187.998 913.626C187.332 914.291 186.666 913.626 186.666 912.296Z" fill="white" fill-opacity="0.3"/>
<path opacity="0.7" d="M186.666 912.296C186.666 911.631 187.332 910.966 187.998 910.966C188.664 910.966 189.329 911.631 189.329 912.296C189.329 912.961 188.664 913.626 187.998 913.626C187.332 914.291 186.666 913.626 186.666 912.296Z" fill="white" fill-opacity="0.3"/>
<path opacity="0.7" d="M1803.09 889.296C1803.09 888.631 1802.42 887.966 1801.76 887.966C1801.09 887.966 1800.42 888.631 1800.42 889.296C1800.42 889.961 1801.09 890.626 1801.76 890.626C1802.42 891.291 1803.09 890.626 1803.09 889.296Z" fill="white" fill-opacity="0.3"/>
<path opacity="0.7" d="M1803.09 889.296C1803.09 888.631 1802.42 887.966 1801.76 887.966C1801.09 887.966 1800.42 888.631 1800.42 889.296C1800.42 889.961 1801.09 890.626 1801.76 890.626C1802.42 891.291 1803.09 890.626 1803.09 889.296Z" fill="white" fill-opacity="0.3"/>
<path opacity="0.7" d="M314.335 935.171C314.335 934.506 315.001 933.841 315.666 933.841C316.332 933.841 316.998 934.506 316.998 935.171C316.998 935.836 316.332 936.501 315.666 936.501C315.001 936.501 314.335 935.836 314.335 935.171Z" fill="white" fill-opacity="0.3"/>
<path opacity="0.7" d="M314.335 935.171C314.335 934.506 315.001 933.841 315.666 933.841C316.332 933.841 316.998 934.506 316.998 935.171C316.998 935.836 316.332 936.501 315.666 936.501C315.001 936.501 314.335 935.836 314.335 935.171Z" fill="white" fill-opacity="0.3"/>
<path opacity="0.7" d="M1675.42 912.171C1675.42 911.506 1674.75 910.841 1674.09 910.841C1673.42 910.841 1672.76 911.506 1672.76 912.171C1672.76 912.836 1673.42 913.501 1674.09 913.501C1674.75 913.501 1675.42 912.836 1675.42 912.171Z" fill="white" fill-opacity="0.3"/>
<path opacity="0.7" d="M1675.42 912.171C1675.42 911.506 1674.75 910.841 1674.09 910.841C1673.42 910.841 1672.76 911.506 1672.76 912.171C1672.76 912.836 1673.42 913.501 1674.09 913.501C1674.75 913.501 1675.42 912.836 1675.42 912.171Z" fill="white" fill-opacity="0.3"/>
<path opacity="0.7" d="M327.015 847.939C327.015 847.274 327.681 846.609 328.346 846.609C329.012 846.609 329.678 847.274 329.678 847.939C329.678 848.604 329.012 849.269 328.346 849.269C327.681 849.269 327.015 848.604 327.015 847.939Z" fill="white" fill-opacity="0.3"/>
<path opacity="0.7" d="M327.015 847.939C327.015 847.274 327.681 846.609 328.346 846.609C329.012 846.609 329.678 847.274 329.678 847.939C329.678 848.604 329.012 849.269 328.346 849.269C327.681 849.269 327.015 848.604 327.015 847.939Z" fill="white" fill-opacity="0.3"/>
<path opacity="0.7" d="M1662.74 824.939C1662.74 824.274 1662.07 823.609 1661.41 823.609C1660.74 823.609 1660.08 824.274 1660.08 824.939C1660.08 825.604 1660.74 826.269 1661.41 826.269C1662.07 826.269 1662.74 825.604 1662.74 824.939Z" fill="white" fill-opacity="0.3"/>
<path opacity="0.7" d="M1662.74 824.939C1662.74 824.274 1662.07 823.609 1661.41 823.609C1660.74 823.609 1660.08 824.274 1660.08 824.939C1660.08 825.604 1660.74 826.269 1661.41 826.269C1662.07 826.269 1662.74 825.604 1662.74 824.939Z" fill="white" fill-opacity="0.3"/>
<path opacity="0.7" d="M260.104 852.342C260.104 851.677 260.769 851.012 261.435 851.012C262.101 851.012 262.767 851.677 262.767 852.342C262.767 853.007 262.101 853.672 261.435 853.672C260.769 853.672 260.104 853.007 260.104 852.342Z" fill="white" fill-opacity="0.3"/>
<path opacity="0.7" d="M260.104 852.342C260.104 851.677 260.769 851.012 261.435 851.012C262.101 851.012 262.767 851.677 262.767 852.342C262.767 853.007 262.101 853.672 261.435 853.672C260.769 853.672 260.104 853.007 260.104 852.342Z" fill="white" fill-opacity="0.3"/>
<path opacity="0.7" d="M1729.65 829.342C1729.65 828.677 1728.98 828.012 1728.32 828.012C1727.65 828.012 1726.99 828.677 1726.99 829.342C1726.99 830.007 1727.65 830.672 1728.32 830.672C1728.98 830.672 1729.65 830.007 1729.65 829.342Z" fill="white" fill-opacity="0.3"/>
<path opacity="0.7" d="M1729.65 829.342C1729.65 828.677 1728.98 828.012 1728.32 828.012C1727.65 828.012 1726.99 828.677 1726.99 829.342C1726.99 830.007 1727.65 830.672 1728.32 830.672C1728.98 830.672 1729.65 830.007 1729.65 829.342Z" fill="white" fill-opacity="0.3"/>
<path opacity="0.7" d="M85.7412 870.963C85.7412 870.298 86.4071 869.633 87.0729 869.633C87.7387 869.633 88.4045 870.298 88.4045 870.963C88.4045 871.628 87.7387 872.293 87.0729 872.293C86.4071 872.958 85.7412 872.293 85.7412 870.963Z" fill="white" fill-opacity="0.3"/>
<path opacity="0.7" d="M85.7412 870.963C85.7412 870.298 86.4071 869.633 87.0729 869.633C87.7387 869.633 88.4045 870.298 88.4045 870.963C88.4045 871.628 87.7387 872.293 87.0729 872.293C86.4071 872.958 85.7412 872.293 85.7412 870.963Z" fill="white" fill-opacity="0.3"/>
<path opacity="0.7" d="M1904.01 847.963C1904.01 847.298 1903.35 846.633 1902.68 846.633C1902.02 846.633 1901.35 847.298 1901.35 847.963C1901.35 848.628 1902.02 849.293 1902.68 849.293C1903.35 849.958 1904.01 849.293 1904.01 847.963Z" fill="white" fill-opacity="0.3"/>
<path opacity="0.7" d="M1904.01 847.963C1904.01 847.298 1903.35 846.633 1902.68 846.633C1902.02 846.633 1901.35 847.298 1901.35 847.963C1901.35 848.628 1902.02 849.293 1902.68 849.293C1903.35 849.958 1904.01 849.293 1904.01 847.963Z" fill="white" fill-opacity="0.3"/>
<path opacity="0.7" d="M5.00679e-06 560.492C5.00679e-06 559.827 0.665765 559.162 1.33155 559.162C1.99733 559.162 2.66309 559.827 2.66309 560.492C2.66309 561.157 1.99733 561.822 1.33155 561.822C0.665765 561.822 5.00679e-06 561.157 5.00679e-06 560.492Z" fill="white" fill-opacity="0.3"/>
<path opacity="0.7" d="M5.00679e-06 560.492C5.00679e-06 559.827 0.665765 559.162 1.33155 559.162C1.99733 559.162 2.66309 559.827 2.66309 560.492C2.66309 561.157 1.99733 561.822 1.33155 561.822C0.665765 561.822 5.00679e-06 561.157 5.00679e-06 560.492Z" fill="white" fill-opacity="0.3"/>
<path opacity="0.7" d="M1989.75 537.492C1989.75 536.827 1989.09 536.162 1988.42 536.162C1987.76 536.162 1987.09 536.827 1987.09 537.492C1987.09 538.157 1987.76 538.822 1988.42 538.822C1989.09 538.822 1989.75 538.157 1989.75 537.492Z" fill="white" fill-opacity="0.3"/>
<path opacity="0.7" d="M1989.75 537.492C1989.75 536.827 1989.09 536.162 1988.42 536.162C1987.76 536.162 1987.09 536.827 1987.09 537.492C1987.09 538.157 1987.76 538.822 1988.42 538.822C1989.09 538.822 1989.75 538.157 1989.75 537.492Z" fill="white" fill-opacity="0.3"/>
<path opacity="0.7" d="M98.2255 646.269C98.2255 644.939 99.557 643.609 100.889 643.609C102.22 643.609 103.552 644.939 103.552 646.269C103.552 647.599 102.22 648.929 100.889 648.929C99.557 648.929 98.2255 647.599 98.2255 646.269Z" fill="white" fill-opacity="0.3"/>
<path opacity="0.7" d="M98.2255 646.269C98.2255 644.939 99.557 643.609 100.889 643.609C102.22 643.609 103.552 644.939 103.552 646.269C103.552 647.599 102.22 648.929 100.889 648.929C99.557 648.929 98.2255 647.599 98.2255 646.269Z" fill="white" fill-opacity="0.3"/>
<path opacity="0.7" d="M1891.53 623.269C1891.53 621.939 1890.2 620.609 1888.87 620.609C1887.53 620.609 1886.2 621.939 1886.2 623.269C1886.2 624.599 1887.53 625.929 1888.87 625.929C1890.2 625.929 1891.53 624.599 1891.53 623.269Z" fill="white" fill-opacity="0.3"/>
<path opacity="0.7" d="M1891.53 623.269C1891.53 621.939 1890.2 620.609 1888.87 620.609C1887.53 620.609 1886.2 621.939 1886.2 623.269C1886.2 624.599 1887.53 625.929 1888.87 625.929C1890.2 625.929 1891.53 624.599 1891.53 623.269Z" fill="white" fill-opacity="0.3"/>
<path opacity="0.7" d="M69.0454 680.667C69.0454 679.337 70.377 678.007 71.7087 678.007C73.0403 678.007 74.3718 679.337 74.3718 680.667C74.3718 681.997 73.0403 683.327 71.7087 683.327C69.7112 683.327 69.0454 681.997 69.0454 680.667Z" fill="white" fill-opacity="0.3"/>
<path opacity="0.7" d="M69.0454 680.667C69.0454 679.337 70.377 678.007 71.7087 678.007C73.0403 678.007 74.3718 679.337 74.3718 680.667C74.3718 681.997 73.0403 683.327 71.7087 683.327C69.7112 683.327 69.0454 681.997 69.0454 680.667Z" fill="white" fill-opacity="0.3"/>
<path opacity="0.7" d="M1920.71 657.667C1920.71 656.337 1919.38 655.007 1918.05 655.007C1916.71 655.007 1915.38 656.337 1915.38 657.667C1915.38 658.997 1916.71 660.327 1918.05 660.327C1920.04 660.327 1920.71 658.997 1920.71 657.667Z" fill="white" fill-opacity="0.3"/>
<path opacity="0.7" d="M1920.71 657.667C1920.71 656.337 1919.38 655.007 1918.05 655.007C1916.71 655.007 1915.38 656.337 1915.38 657.667C1915.38 658.997 1916.71 660.327 1918.05 660.327C1920.04 660.327 1920.71 658.997 1920.71 657.667Z" fill="white" fill-opacity="0.3"/>
<path opacity="0.7" d="M1994.91 695.796C1994.91 694.466 1993.58 693.136 1992.24 693.136C1990.91 693.136 1989.58 694.466 1989.58 695.796C1989.58 697.126 1990.91 698.456 1992.24 698.456C1994.24 698.456 1994.91 697.126 1994.91 695.796Z" fill="white" fill-opacity="0.3"/>
<path opacity="0.7" d="M1994.91 695.796C1994.91 694.466 1993.58 693.136 1992.24 693.136C1990.91 693.136 1989.58 694.466 1989.58 695.796C1989.58 697.126 1990.91 698.456 1992.24 698.456C1994.24 698.456 1994.91 697.126 1994.91 695.796Z" fill="white" fill-opacity="0.3"/>
<path opacity="0.7" d="M22.3984 579.207C22.3984 577.876 23.0642 577.211 24.3958 577.211C25.7274 577.211 26.3931 577.876 26.3931 579.207C26.3931 580.537 25.7274 581.202 24.3958 581.202C23.0642 581.202 22.3984 580.537 22.3984 579.207Z" fill="white" fill-opacity="0.3"/>
<path opacity="0.7" d="M22.3984 579.207C22.3984 577.876 23.0642 577.211 24.3958 577.211C25.7274 577.211 26.3931 577.876 26.3931 579.207C26.3931 580.537 25.7274 581.202 24.3958 581.202C23.0642 581.202 22.3984 580.537 22.3984 579.207Z" fill="white" fill-opacity="0.3"/>
<path opacity="0.7" d="M1967.36 556.207C1967.36 554.876 1966.69 554.211 1965.36 554.211C1964.03 554.211 1963.36 554.876 1963.36 556.207C1963.36 557.537 1964.03 558.202 1965.36 558.202C1966.69 558.202 1967.36 557.537 1967.36 556.207Z" fill="white" fill-opacity="0.3"/>
<path opacity="0.7" d="M1967.36 556.207C1967.36 554.876 1966.69 554.211 1965.36 554.211C1964.03 554.211 1963.36 554.876 1963.36 556.207C1963.36 557.537 1964.03 558.202 1965.36 558.202C1966.69 558.202 1967.36 557.537 1967.36 556.207Z" fill="white" fill-opacity="0.3"/>
<path opacity="0.7" d="M50.0452 790.585C50.0452 789.255 50.711 788.59 52.0426 788.59C53.3742 788.59 54.04 789.255 54.04 790.585C54.04 791.916 53.3742 792.581 52.0426 792.581C50.711 792.581 50.0452 791.916 50.0452 790.585Z" fill="white" fill-opacity="0.3"/>
<path opacity="0.7" d="M50.0452 790.585C50.0452 789.255 50.711 788.59 52.0426 788.59C53.3742 788.59 54.04 789.255 54.04 790.585C54.04 791.916 53.3742 792.581 52.0426 792.581C50.711 792.581 50.0452 791.916 50.0452 790.585Z" fill="white" fill-opacity="0.3"/>
<path opacity="0.7" d="M1939.71 767.585C1939.71 766.255 1939.04 765.59 1937.71 765.59C1936.38 765.59 1935.71 766.255 1935.71 767.585C1935.71 768.916 1936.38 769.581 1937.71 769.581C1939.04 769.581 1939.71 768.916 1939.71 767.585Z" fill="white" fill-opacity="0.3"/>
<path opacity="0.7" d="M1939.71 767.585C1939.71 766.255 1939.04 765.59 1937.71 765.59C1936.38 765.59 1935.71 766.255 1935.71 767.585C1935.71 768.916 1936.38 769.581 1937.71 769.581C1939.04 769.581 1939.71 768.916 1939.71 767.585Z" fill="white" fill-opacity="0.3"/>
<path opacity="0.7" d="M126.972 1009.71C126.972 1009.04 127.638 1008.38 128.304 1008.38C128.969 1008.38 129.635 1009.04 129.635 1009.71C129.635 1010.37 128.969 1011.04 128.304 1011.04C127.638 1011.7 126.972 1011.04 126.972 1009.71Z" fill="white" fill-opacity="0.3"/>
<path opacity="0.7" d="M126.972 1009.71C126.972 1009.04 127.638 1008.38 128.304 1008.38C128.969 1008.38 129.635 1009.04 129.635 1009.71C129.635 1010.37 128.969 1011.04 128.304 1011.04C127.638 1011.7 126.972 1011.04 126.972 1009.71Z" fill="white" fill-opacity="0.3"/>
<path opacity="0.7" d="M1862.78 986.705C1862.78 986.04 1862.12 985.375 1861.45 985.375C1860.78 985.375 1860.12 986.04 1860.12 986.705C1860.12 987.37 1860.78 988.035 1861.45 988.035C1862.12 988.701 1862.78 988.035 1862.78 986.705Z" fill="white" fill-opacity="0.3"/>
<path opacity="0.7" d="M1862.78 986.705C1862.78 986.04 1862.12 985.375 1861.45 985.375C1860.78 985.375 1860.12 986.04 1860.12 986.705C1860.12 987.37 1860.78 988.035 1861.45 988.035C1862.12 988.701 1862.78 988.035 1862.78 986.705Z" fill="white" fill-opacity="0.3"/>
<path opacity="0.7" d="M36.0452 952.215C36.0452 951.55 36.7109 950.885 37.3767 950.885C38.0425 950.885 38.7083 951.55 38.7083 952.215C38.7083 952.88 38.0425 953.545 37.3767 953.545C36.7109 954.21 36.0452 953.545 36.0452 952.215Z" fill="white" fill-opacity="0.3"/>
<path opacity="0.7" d="M36.0452 952.215C36.0452 951.55 36.7109 950.885 37.3767 950.885C38.0425 950.885 38.7083 951.55 38.7083 952.215C38.7083 952.88 38.0425 953.545 37.3767 953.545C36.7109 954.21 36.0452 953.545 36.0452 952.215Z" fill="white" fill-opacity="0.3"/>
<path opacity="0.7" d="M1953.71 929.215C1953.71 928.55 1953.04 927.885 1952.38 927.885C1951.71 927.885 1951.05 928.55 1951.05 929.215C1951.05 929.88 1951.71 930.545 1952.38 930.545C1953.04 931.21 1953.71 930.545 1953.71 929.215Z" fill="white" fill-opacity="0.3"/>
<path opacity="0.7" d="M1953.71 929.215C1953.71 928.55 1953.04 927.885 1952.38 927.885C1951.71 927.885 1951.05 928.55 1951.05 929.215C1951.05 929.88 1951.71 930.545 1952.38 930.545C1953.04 931.21 1953.71 930.545 1953.71 929.215Z" fill="white" fill-opacity="0.3"/>
<path opacity="0.7" d="M69.5421 986.646C69.5421 985.98 70.208 985.315 70.8738 985.315C71.5396 985.315 72.2053 985.98 72.2053 986.646C72.2053 987.311 71.5396 987.976 70.8738 987.976C70.208 987.976 69.5421 987.311 69.5421 986.646Z" fill="white" fill-opacity="0.3"/>
<path opacity="0.7" d="M69.5421 986.646C69.5421 985.98 70.208 985.315 70.8738 985.315C71.5396 985.315 72.2053 985.98 72.2053 986.646C72.2053 987.311 71.5396 987.976 70.8738 987.976C70.208 987.976 69.5421 987.311 69.5421 986.646Z" fill="white" fill-opacity="0.3"/>
<path opacity="0.7" d="M1920.21 963.646C1920.21 962.98 1919.55 962.315 1918.88 962.315C1918.21 962.315 1917.55 962.98 1917.55 963.646C1917.55 964.311 1918.21 964.976 1918.88 964.976C1919.55 964.976 1920.21 964.311 1920.21 963.646Z" fill="white" fill-opacity="0.3"/>
<path opacity="0.7" d="M1920.21 963.646C1920.21 962.98 1919.55 962.315 1918.88 962.315C1918.21 962.315 1917.55 962.98 1917.55 963.646C1917.55 964.311 1918.21 964.976 1918.88 964.976C1919.55 964.976 1920.21 964.311 1920.21 963.646Z" fill="white" fill-opacity="0.3"/>
<g opacity="0.7">
<path opacity="0.7" d="M180.698 909.891L180.032 900.58L170.045 899.25H180.032L180.698 888.609L181.364 899.25H191.351L181.364 900.58L180.698 909.891Z" fill="white" fill-opacity="0.3"/>
<path opacity="0.7" d="M176.701 903.906L180.03 899.915L176.701 895.26L180.696 898.585L185.357 895.26L181.362 899.25L185.357 903.906L180.696 900.581L176.701 903.906Z" fill="white" fill-opacity="0.3"/>
</g>
<g opacity="0.7">
<path opacity="0.7" d="M180.698 909.891L180.032 900.58L170.045 899.25H180.032L180.698 888.609L181.364 899.25H191.351L181.364 900.58L180.698 909.891Z" fill="white" fill-opacity="0.3"/>
<path opacity="0.7" d="M176.701 903.906L180.03 899.915L176.701 895.26L180.696 898.585L185.357 895.26L181.362 899.25L185.357 903.906L180.696 900.581L176.701 903.906Z" fill="white" fill-opacity="0.3"/>
</g>
<g opacity="0.7">
<path opacity="0.7" d="M1809.06 886.891L1809.72 877.58L1819.71 876.25H1809.72L1809.06 865.609L1808.39 876.25H1798.4L1808.39 877.58L1809.06 886.891Z" fill="white" fill-opacity="0.3"/>
<path opacity="0.7" d="M1813.05 880.906L1809.72 876.915L1813.05 872.26L1809.06 875.585L1804.4 872.26L1808.39 876.25L1804.4 880.906L1809.06 877.581L1813.05 880.906Z" fill="white" fill-opacity="0.3"/>
</g>
<g opacity="0.7">
<path opacity="0.7" d="M1809.06 886.891L1809.72 877.58L1819.71 876.25H1809.72L1809.06 865.609L1808.39 876.25H1798.4L1808.39 877.58L1809.06 886.891Z" fill="white" fill-opacity="0.3"/>
<path opacity="0.7" d="M1813.05 880.906L1809.72 876.915L1813.05 872.26L1809.06 875.585L1804.4 872.26L1808.39 876.25L1804.4 880.906L1809.06 877.581L1813.05 880.906Z" fill="white" fill-opacity="0.3"/>
</g>
<path opacity="0.7" d="M515.356 1030.32C515.356 1029.65 516.021 1028.99 516.687 1028.99C517.353 1028.99 518.019 1029.65 518.019 1030.32C518.019 1030.98 517.353 1031.65 516.687 1031.65C516.021 1031.65 515.356 1030.98 515.356 1030.32Z" fill="white" fill-opacity="0.3"/>
<path opacity="0.7" d="M515.356 1030.32C515.356 1029.65 516.021 1028.99 516.687 1028.99C517.353 1028.99 518.019 1029.65 518.019 1030.32C518.019 1030.98 517.353 1031.65 516.687 1031.65C516.021 1031.65 515.356 1030.98 515.356 1030.32Z" fill="white" fill-opacity="0.3"/>
<path opacity="0.7" d="M1474.4 1007.32C1474.4 1006.65 1473.73 1005.99 1473.07 1005.99C1472.4 1005.99 1471.73 1006.65 1471.73 1007.32C1471.73 1007.98 1472.4 1008.65 1473.07 1008.65C1473.73 1008.65 1474.4 1007.98 1474.4 1007.32Z" fill="white" fill-opacity="0.3"/>
<path opacity="0.7" d="M1474.4 1007.32C1474.4 1006.65 1473.73 1005.99 1473.07 1005.99C1472.4 1005.99 1471.73 1006.65 1471.73 1007.32C1471.73 1007.98 1472.4 1008.65 1473.07 1008.65C1473.73 1008.65 1474.4 1007.98 1474.4 1007.32Z" fill="white" fill-opacity="0.3"/>
<path opacity="0.7" d="M1141.05 796.269C1141.05 794.939 1142.38 793.609 1143.71 793.609C1145.04 793.609 1146.37 794.939 1146.37 796.269C1146.37 797.599 1145.04 798.929 1143.71 798.929C1141.71 798.929 1141.05 797.599 1141.05 796.269Z" fill="white" fill-opacity="0.3"/>
<path opacity="0.7" d="M1141.05 796.269C1141.05 794.939 1142.38 793.609 1143.71 793.609C1145.04 793.609 1146.37 794.939 1146.37 796.269C1146.37 797.599 1145.04 798.929 1143.71 798.929C1141.71 798.929 1141.05 797.599 1141.05 796.269Z" fill="white" fill-opacity="0.3"/>
<path opacity="0.7" d="M1196.16 666.979C1196.16 666.314 1196.83 665.649 1197.49 665.649C1198.16 665.649 1198.83 666.314 1198.83 666.979C1198.83 667.644 1198.16 668.309 1197.49 668.309C1196.83 668.974 1196.16 668.309 1196.16 666.979Z" fill="white" fill-opacity="0.3"/>
<path opacity="0.7" d="M1196.16 666.979C1196.16 666.314 1196.83 665.649 1197.49 665.649C1198.16 665.649 1198.83 666.314 1198.83 666.979C1198.83 667.644 1198.16 668.309 1197.49 668.309C1196.83 668.974 1196.16 668.309 1196.16 666.979Z" fill="white" fill-opacity="0.3"/>
<path opacity="0.7" d="M1287.05 246.784C1287.05 244.789 1289.04 242.794 1291.04 242.794C1293.04 242.794 1295.03 244.789 1295.03 246.784C1295.03 248.779 1293.04 250.774 1291.04 250.774C1288.38 250.774 1287.05 249.444 1287.05 246.784Z" fill="white" fill-opacity="0.3"/>
<path opacity="0.7" d="M1287.05 246.784C1287.05 244.789 1289.04 242.794 1291.04 242.794C1293.04 242.794 1295.03 244.789 1295.03 246.784C1295.03 248.779 1293.04 250.774 1291.04 250.774C1288.38 250.774 1287.05 249.444 1287.05 246.784Z" fill="white" fill-opacity="0.3"/>
<path opacity="0.7" d="M270.045 1055.03C270.045 1053.7 270.711 1053.04 272.043 1053.04C273.374 1053.04 274.04 1053.7 274.04 1055.03C274.04 1056.36 273.374 1057.03 272.043 1057.03C271.377 1057.03 270.045 1056.36 270.045 1055.03Z" fill="white" fill-opacity="0.3"/>
<path opacity="0.7" d="M270.045 1055.03C270.045 1053.7 270.711 1053.04 272.043 1053.04C273.374 1053.04 274.04 1053.7 274.04 1055.03C274.04 1056.36 273.374 1057.03 272.043 1057.03C271.377 1057.03 270.045 1056.36 270.045 1055.03Z" fill="white" fill-opacity="0.3"/>
<path opacity="0.7" d="M1719.71 1032.03C1719.71 1030.7 1719.04 1030.04 1717.71 1030.04C1716.38 1030.04 1715.71 1030.7 1715.71 1032.03C1715.71 1033.36 1716.38 1034.03 1717.71 1034.03C1718.38 1034.03 1719.71 1033.36 1719.71 1032.03Z" fill="white" fill-opacity="0.3"/>
<path opacity="0.7" d="M1719.71 1032.03C1719.71 1030.7 1719.04 1030.04 1717.71 1030.04C1716.38 1030.04 1715.71 1030.7 1715.71 1032.03C1715.71 1033.36 1716.38 1034.03 1717.71 1034.03C1718.38 1034.03 1719.71 1033.36 1719.71 1032.03Z" fill="white" fill-opacity="0.3"/>
<path opacity="0.7" d="M133.045 527.829C133.045 527.164 133.711 526.499 134.377 526.499C135.043 526.499 135.708 527.164 135.708 527.829C135.708 528.494 135.043 529.16 134.377 529.16C133.711 529.825 133.045 529.16 133.045 527.829Z" fill="white" fill-opacity="0.3"/>
<path opacity="0.7" d="M133.045 527.829C133.045 527.164 133.711 526.499 134.377 526.499C135.043 526.499 135.708 527.164 135.708 527.829C135.708 528.494 135.043 529.16 134.377 529.16C133.711 529.825 133.045 529.16 133.045 527.829Z" fill="white" fill-opacity="0.3"/>
<path opacity="0.7" d="M1856.71 504.829C1856.71 504.164 1856.04 503.499 1855.38 503.499C1854.71 503.499 1854.05 504.164 1854.05 504.829C1854.05 505.494 1854.71 506.16 1855.38 506.16C1856.04 506.825 1856.71 506.16 1856.71 504.829Z" fill="white" fill-opacity="0.3"/>
<path opacity="0.7" d="M1856.71 504.829C1856.71 504.164 1856.04 503.499 1855.38 503.499C1854.71 503.499 1854.05 504.164 1854.05 504.829C1854.05 505.494 1854.71 506.16 1855.38 506.16C1856.04 506.825 1856.71 506.16 1856.71 504.829Z" fill="white" fill-opacity="0.3"/>
<path opacity="0.7" d="M137.045 463.344C137.045 462.679 137.711 462.014 138.377 462.014C139.043 462.014 139.708 462.679 139.708 463.344C139.708 464.009 139.043 464.674 138.377 464.674C137.711 464.674 137.045 464.009 137.045 463.344Z" fill="white" fill-opacity="0.3"/>
<path opacity="0.7" d="M137.045 463.344C137.045 462.679 137.711 462.014 138.377 462.014C139.043 462.014 139.708 462.679 139.708 463.344C139.708 464.009 139.043 464.674 138.377 464.674C137.711 464.674 137.045 464.009 137.045 463.344Z" fill="white" fill-opacity="0.3"/>
<path opacity="0.7" d="M1852.71 440.344C1852.71 439.679 1852.04 439.014 1851.38 439.014C1850.71 439.014 1850.05 439.679 1850.05 440.344C1850.05 441.009 1850.71 441.674 1851.38 441.674C1852.04 441.674 1852.71 441.009 1852.71 440.344Z" fill="white" fill-opacity="0.3"/>
<path opacity="0.7" d="M1852.71 440.344C1852.71 439.679 1852.04 439.014 1851.38 439.014C1850.71 439.014 1850.05 439.679 1850.05 440.344C1850.05 441.009 1850.71 441.674 1851.38 441.674C1852.04 441.674 1852.71 441.009 1852.71 440.344Z" fill="white" fill-opacity="0.3"/>
<path opacity="0.7" d="M348.198 1039.91C348.198 1038.58 348.864 1037.91 350.195 1037.91C351.527 1037.91 352.193 1038.58 352.193 1039.91C352.193 1041.24 351.527 1041.91 350.195 1041.91C349.53 1041.91 348.198 1041.24 348.198 1039.91Z" fill="white" fill-opacity="0.3"/>
<path opacity="0.7" d="M348.198 1039.91C348.198 1038.58 348.864 1037.91 350.195 1037.91C351.527 1037.91 352.193 1038.58 352.193 1039.91C352.193 1041.24 351.527 1041.91 350.195 1041.91C349.53 1041.91 348.198 1041.24 348.198 1039.91Z" fill="white" fill-opacity="0.3"/>
<path opacity="0.7" d="M1641.56 1016.91C1641.56 1015.58 1640.89 1014.91 1639.56 1014.91C1638.23 1014.91 1637.56 1015.58 1637.56 1016.91C1637.56 1018.24 1638.23 1018.91 1639.56 1018.91C1640.22 1018.91 1641.56 1018.24 1641.56 1016.91Z" fill="white" fill-opacity="0.3"/>
<path opacity="0.7" d="M1641.56 1016.91C1641.56 1015.58 1640.89 1014.91 1639.56 1014.91C1638.23 1014.91 1637.56 1015.58 1637.56 1016.91C1637.56 1018.24 1638.23 1018.91 1639.56 1018.91C1640.22 1018.91 1641.56 1018.24 1641.56 1016.91Z" fill="white" fill-opacity="0.3"/>
<path opacity="0.7" d="M293.202 1020.94C293.202 1020.28 293.867 1019.61 294.533 1019.61C295.199 1019.61 295.865 1020.28 295.865 1020.94C295.865 1021.61 295.199 1022.27 294.533 1022.27C293.867 1022.94 293.202 1022.27 293.202 1020.94Z" fill="white" fill-opacity="0.3"/>
<path opacity="0.7" d="M293.202 1020.94C293.202 1020.28 293.867 1019.61 294.533 1019.61C295.199 1019.61 295.865 1020.28 295.865 1020.94C295.865 1021.61 295.199 1022.27 294.533 1022.27C293.867 1022.94 293.202 1022.27 293.202 1020.94Z" fill="white" fill-opacity="0.3"/>
<path opacity="0.7" d="M1696.55 997.941C1696.55 997.276 1695.89 996.611 1695.22 996.611C1694.55 996.611 1693.89 997.276 1693.89 997.941C1693.89 998.606 1694.55 999.271 1695.22 999.271C1695.89 999.936 1696.55 999.271 1696.55 997.941Z" fill="white" fill-opacity="0.3"/>
<path opacity="0.7" d="M1696.55 997.941C1696.55 997.276 1695.89 996.611 1695.22 996.611C1694.55 996.611 1693.89 997.276 1693.89 997.941C1693.89 998.606 1694.55 999.271 1695.22 999.271C1695.89 999.936 1696.55 999.271 1696.55 997.941Z" fill="white" fill-opacity="0.3"/>
<path opacity="0.7" d="M269.225 512.269C269.225 510.939 270.557 509.609 271.889 509.609C273.22 509.609 274.552 510.939 274.552 512.269C274.552 513.599 273.22 514.929 271.889 514.929C270.557 514.929 269.225 513.599 269.225 512.269Z" fill="white" fill-opacity="0.3"/>
<path opacity="0.7" d="M269.225 512.269C269.225 510.939 270.557 509.609 271.889 509.609C273.22 509.609 274.552 510.939 274.552 512.269C274.552 513.599 273.22 514.929 271.889 514.929C270.557 514.929 269.225 513.599 269.225 512.269Z" fill="white" fill-opacity="0.3"/>
<path opacity="0.7" d="M1720.53 489.269C1720.53 487.939 1719.2 486.609 1717.87 486.609C1716.53 486.609 1715.2 487.939 1715.2 489.269C1715.2 490.599 1716.53 491.929 1717.87 491.929C1719.2 491.929 1720.53 490.599 1720.53 489.269Z" fill="white" fill-opacity="0.3"/>
<path opacity="0.7" d="M1720.53 489.269C1720.53 487.939 1719.2 486.609 1717.87 486.609C1716.53 486.609 1715.2 487.939 1715.2 489.269C1715.2 490.599 1716.53 491.929 1717.87 491.929C1719.2 491.929 1720.53 490.599 1720.53 489.269Z" fill="white" fill-opacity="0.3"/>
<path opacity="0.7" d="M240.045 546.667C240.045 545.337 241.377 544.007 242.709 544.007C244.04 544.007 245.372 545.337 245.372 546.667C245.372 547.998 244.04 549.328 242.709 549.328C240.711 549.328 240.045 547.998 240.045 546.667Z" fill="white" fill-opacity="0.3"/>
<path opacity="0.7" d="M240.045 546.667C240.045 545.337 241.377 544.007 242.709 544.007C244.04 544.007 245.372 545.337 245.372 546.667C245.372 547.998 244.04 549.328 242.709 549.328C240.711 549.328 240.045 547.998 240.045 546.667Z" fill="white" fill-opacity="0.3"/>
<path opacity="0.7" d="M1749.71 523.667C1749.71 522.337 1748.38 521.007 1747.05 521.007C1745.71 521.007 1744.38 522.337 1744.38 523.667C1744.38 524.998 1745.71 526.328 1747.05 526.328C1749.04 526.328 1749.71 524.998 1749.71 523.667Z" fill="white" fill-opacity="0.3"/>
<path opacity="0.7" d="M1749.71 523.667C1749.71 522.337 1748.38 521.007 1747.05 521.007C1745.71 521.007 1744.38 522.337 1744.38 523.667C1744.38 524.998 1745.71 526.328 1747.05 526.328C1749.04 526.328 1749.71 524.998 1749.71 523.667Z" fill="white" fill-opacity="0.3"/>
<path opacity="0.7" d="M1994.91 441.543C1994.91 440.213 1993.58 438.883 1992.24 438.883C1990.91 438.883 1989.58 440.213 1989.58 441.543C1989.58 442.874 1990.91 444.204 1992.24 444.204C1994.24 444.204 1994.91 442.874 1994.91 441.543Z" fill="white" fill-opacity="0.3"/>
<path opacity="0.7" d="M1994.91 441.543C1994.91 440.213 1993.58 438.883 1992.24 438.883C1990.91 438.883 1989.58 440.213 1989.58 441.543C1989.58 442.874 1990.91 444.204 1992.24 444.204C1994.24 444.204 1994.91 442.874 1994.91 441.543Z" fill="white" fill-opacity="0.3"/>
<path opacity="0.7" d="M7.0452 536.586C7.0452 535.256 7.71102 534.591 9.04262 534.591C10.3742 534.591 11.04 535.256 11.04 536.586C11.04 537.916 10.3742 538.581 9.04262 538.581C7.71102 538.581 7.0452 537.916 7.0452 536.586Z" fill="white" fill-opacity="0.3"/>
<path opacity="0.7" d="M7.0452 536.586C7.0452 535.256 7.71102 534.591 9.04262 534.591C10.3742 534.591 11.04 535.256 11.04 536.586C11.04 537.916 10.3742 538.581 9.04262 538.581C7.71102 538.581 7.0452 537.916 7.0452 536.586Z" fill="white" fill-opacity="0.3"/>
<path opacity="0.7" d="M1982.71 513.586C1982.71 512.256 1982.04 511.591 1980.71 511.591C1979.38 511.591 1978.71 512.256 1978.71 513.586C1978.71 514.916 1979.38 515.581 1980.71 515.581C1982.04 515.581 1982.71 514.916 1982.71 513.586Z" fill="white" fill-opacity="0.3"/>
<path opacity="0.7" d="M1982.71 513.586C1982.71 512.256 1982.04 511.591 1980.71 511.591C1979.38 511.591 1978.71 512.256 1978.71 513.586C1978.71 514.916 1979.38 515.581 1980.71 515.581C1982.04 515.581 1982.71 514.916 1982.71 513.586Z" fill="white" fill-opacity="0.3"/>
<g opacity="0.7">
<path opacity="0.7" d="M665.698 1037.17L665.032 1027.19L655.045 1026.52L665.032 1025.86L665.698 1015.88L666.364 1025.86L676.351 1026.52L666.364 1027.19L665.698 1037.17Z" fill="white" fill-opacity="0.3"/>
<path opacity="0.7" d="M661.701 1031.18L665.03 1026.53L661.701 1021.87L665.696 1025.86L670.356 1021.87L666.362 1026.53L670.356 1030.52L665.696 1027.19L661.701 1031.18Z" fill="white" fill-opacity="0.3"/>
</g>
<g opacity="0.7">
<path opacity="0.7" d="M665.698 1037.17L665.032 1027.19L655.045 1026.52L665.032 1025.86L665.698 1015.88L666.364 1025.86L676.351 1026.52L666.364 1027.19L665.698 1037.17Z" fill="white" fill-opacity="0.3"/>
<path opacity="0.7" d="M661.701 1031.18L665.03 1026.53L661.701 1021.87L665.696 1025.86L670.356 1021.87L666.362 1026.53L670.356 1030.52L665.696 1027.19L661.701 1031.18Z" fill="white" fill-opacity="0.3"/>
</g>
<g opacity="0.7">
<path opacity="0.7" d="M1324.06 1014.17L1324.72 1004.19L1334.71 1003.52L1324.72 1002.86L1324.06 992.884L1323.39 1002.86L1313.4 1003.52L1323.39 1004.19L1324.06 1014.17Z" fill="white" fill-opacity="0.3"/>
<path opacity="0.7" d="M1328.05 1008.18L1324.72 1003.53L1328.05 998.87L1324.06 1002.86L1319.4 998.87L1323.39 1003.53L1319.4 1007.52L1324.06 1004.19L1328.05 1008.18Z" fill="white" fill-opacity="0.3"/>
</g>
<g opacity="0.7">
<path opacity="0.7" d="M1324.06 1014.17L1324.72 1004.19L1334.71 1003.52L1324.72 1002.86L1324.06 992.884L1323.39 1002.86L1313.4 1003.52L1323.39 1004.19L1324.06 1014.17Z" fill="white" fill-opacity="0.3"/>
<path opacity="0.7" d="M1328.05 1008.18L1324.72 1003.53L1328.05 998.87L1324.06 1002.86L1319.4 998.87L1323.39 1003.53L1319.4 1007.52L1324.06 1004.19L1328.05 1008.18Z" fill="white" fill-opacity="0.3"/>
</g>
</svg>
