<svg xmlns="http://www.w3.org/2000/svg" width="249" height="76" fill="#fff" xmlns:v="https://vecta.io/nano"><path d="M89.372 39.249l6.043-14.104h2.022l6.044 14.104h-1.786l-1.742-4.091h-7.054l-1.742 4.091h-1.785zm4.151-5.561h5.806l-2.903-6.881-2.903 6.881zm30.518 5.561l-5.763-14.104h1.764l4.924 12.293 4.925-12.293h1.763l-5.763 14.104h-1.85zm22.408 0l6.043-14.104h2.021l6.043 14.104h-1.785l-1.742-4.091h-7.053l-1.742 4.091h-1.785zm4.15-5.561h5.807l-2.904-6.881-2.903 6.881zm27.357 5.561V25.145h1.613v12.57h7.764v1.534h-9.377zm32.751.17c-1.075 0-2.057-.185-2.946-.554s-1.656-.888-2.301-1.555a7.17 7.17 0 0 1-1.463-2.301 7.66 7.66 0 0 1-.516-2.812 7.55 7.55 0 0 1 .516-2.812 7.18 7.18 0 0 1 1.463-2.301 6.76 6.76 0 0 1 2.301-1.555c.889-.369 1.871-.554 2.946-.554s2.057.185 2.946.554 1.649.888 2.28 1.555c.645.668 1.14 1.434 1.484 2.301s.516 1.804.516 2.812c0 .994-.172 1.932-.516 2.812-.344.866-.839 1.633-1.484 2.301-.631.668-1.391 1.186-2.28 1.555s-1.871.554-2.946.554zm0-1.555c1.161 0 2.158-.249 2.989-.746a5.13 5.13 0 0 0 1.936-2.046c.459-.866.688-1.825.688-2.876 0-1.065-.229-2.024-.688-2.876-.445-.852-1.09-1.527-1.936-2.024-.831-.512-1.828-.767-2.989-.767-1.147 0-2.143.256-2.989.767a5.13 5.13 0 0 0-1.957 2.024c-.444.852-.667 1.811-.667 2.876 0 1.051.223 2.01.667 2.876.459.852 1.111 1.534 1.957 2.046.846.497 1.842.746 2.989.746zm25.397 1.385V25.145h1.871l8.796 11.867V25.145h1.612v14.104h-1.87l-8.796-11.91v11.91h-1.613z"/><path opacity=".35" d="M91.864 51.098c-.485 0-.904-.109-1.257-.328a2.26 2.26 0 0 1-.816-.896c-.186-.374-.279-.789-.279-1.246a2.75 2.75 0 0 1 .279-1.245 2.18 2.18 0 0 1 .816-.889c.353-.219.772-.335 1.257-.335.368 0 .698.066.993.197a2.17 2.17 0 0 1 .75.524 2.2 2.2 0 0 1 .463.779h-.581c-.123-.296-.316-.532-.581-.706s-.598-.262-1-.262c-.392 0-.728.087-1.007.262a1.65 1.65 0 0 0-.625.692c-.142.291-.213.619-.213.983s.071.687.213.983.351.525.625.699.615.255 1.007.255c.402 0 .735-.087 1-.262a1.53 1.53 0 0 0 .581-.706h.581a2.29 2.29 0 0 1-.463.779 2.26 2.26 0 0 1-.75.532c-.294.131-.625.189-.993.189zm6.305-.058v-4.822h2.331c.5 0 .898.136 1.192.408s.448.639.448 1.1c0 .311-.061.559-.184.743a1.19 1.19 0 0 1-.448.422c-.181.097-.363.16-.544.204l1.279 1.945h-.654l-1.177-1.85H98.72v1.85h-.552zm.552-2.367h1.684a1.9 1.9 0 0 0 .537-.08.97.97 0 0 0 .456-.284c.127-.141.191-.335.191-.583 0-.306-.106-.546-.317-.721s-.49-.27-.838-.27H98.72v1.938zm9.008 2.367v-1.909l-2.044-2.914h.669l1.647 2.346 1.647-2.346h.67l-2.037 2.914v1.909h-.552zm6.477 0v-4.822h2.191c.519 0 .929.141 1.228.422s.448.653.448 1.129-.149.855-.448 1.136-.709.415-1.228.415h-1.64v1.719h-.551zm.551-2.229h1.603c.382 0 .672-.092.868-.277s.294-.439.294-.765c0-.32-.098-.573-.294-.757s-.486-.277-.868-.277h-1.603v2.076zm8.543 2.229v-4.305h-1.698v-.517h3.949v.517h-1.699v4.305h-.552zm8.178.058a2.6 2.6 0 0 1-1.007-.189 2.32 2.32 0 0 1-.787-.532c-.216-.228-.382-.491-.5-.787-.118-.301-.176-.622-.176-.962s.058-.665.176-.962.284-.559.5-.787a2.32 2.32 0 0 1 .787-.532 2.6 2.6 0 0 1 1.007-.189 2.6 2.6 0 0 1 1.007.189 2.24 2.24 0 0 1 .78.532 2.39 2.39 0 0 1 .507.787c.118.296.177.617.177.962s-.059.66-.177.962a2.39 2.39 0 0 1-.507.787 2.26 2.26 0 0 1-.78.532c-.304.127-.639.189-1.007.189zm0-.532c.397 0 .738-.085 1.022-.255a1.76 1.76 0 0 0 .662-.699 2.11 2.11 0 0 0 .235-.983 2.04 2.04 0 0 0-.235-.983c-.152-.291-.373-.522-.662-.692-.284-.175-.625-.262-1.022-.262s-.733.087-1.022.262a1.76 1.76 0 0 0-.669.692c-.157.291-.228.619-.228.983s.076.687.228.983.38.525.669.699.63.255 1.022.255zm13.205.532c-.48 0-.87-.063-1.169-.189s-.524-.311-.676-.539a1.67 1.67 0 0 1-.258-.772h.574c.015.233.093.422.235.568a1.25 1.25 0 0 0 .559.313c.23.068.493.102.772.102.412 0 .738-.07.978-.211a.7.7 0 0 0 .36-.641c0-.17-.061-.306-.183-.408s-.277-.194-.478-.262a6.02 6.02 0 0 0-.647-.182l-.714-.182c-.235-.063-.453-.143-.654-.24a1.42 1.42 0 0 1-.478-.371c-.118-.156-.176-.352-.176-.59 0-.393.152-.714.455-.962.309-.248.767-.371 1.375-.371.432 0 .787.066 1.067.197s.487.294.625.503a1.33 1.33 0 0 1 .235.678h-.566c-.03-.243-.152-.447-.368-.612s-.546-.255-.993-.255c-.274 0-.497.027-.669.08s-.304.124-.397.211a.71.71 0 0 0-.184.262.88.88 0 0 0-.044.262c0 .16.059.291.177.393.122.097.282.179.478.248l.661.175.714.182a3.14 3.14 0 0 1 .654.248c.196.102.36.224.478.379s.184.355.184.597c0 .447-.172.792-.515 1.034s-.814.357-1.412.357zm7.259-.058v-4.305h-1.698v-.517h3.948v.517h-1.698v4.305h-.552zm8.178.058c-.368 0-.704-.063-1.008-.189s-.566-.303-.786-.532a2.38 2.38 0 0 1-.5-.787c-.118-.301-.177-.622-.177-.962s.059-.665.177-.962.284-.559.5-.787.483-.405.786-.532.64-.189 1.008-.189a2.6 2.6 0 0 1 1.007.189 2.23 2.23 0 0 1 .78.532c.216.229.389.491.507.787s.177.617.177.962-.059.66-.177.962c-.118.296-.287.559-.507.787s-.476.405-.78.532a2.6 2.6 0 0 1-1.007.189zm0-.532c.397 0 .738-.085 1.022-.255s.51-.408.662-.699a2.11 2.11 0 0 0 .235-.983 2.04 2.04 0 0 0-.235-.983c-.152-.291-.373-.522-.662-.692-.284-.175-.625-.262-1.022-.262s-.733.087-1.022.262a1.76 1.76 0 0 0-.669.692c-.157.291-.228.619-.228.983s.076.687.228.983.38.525.669.699.63.255 1.022.255zm8.669.532c-.486 0-.905-.109-1.258-.328a2.25 2.25 0 0 1-.816-.896c-.191-.374-.279-.789-.279-1.246a2.75 2.75 0 0 1 .279-1.245 2.18 2.18 0 0 1 .816-.889 2.34 2.34 0 0 1 1.258-.335c.367 0 .698.066.992.197a2.17 2.17 0 0 1 .75.524 2.2 2.2 0 0 1 .464.779h-.581a1.53 1.53 0 0 0-.581-.706c-.265-.175-.598-.262-1-.262-.392 0-.728.087-1.007.262s-.483.401-.625.692-.214.619-.214.983.071.687.214.983a1.69 1.69 0 0 0 .625.699c.279.17.615.255 1.007.255.402 0 .735-.087 1-.262a1.53 1.53 0 0 0 .581-.706h.581a2.29 2.29 0 0 1-.464.779 2.26 2.26 0 0 1-.75.532c-.294.126-.625.189-.992.189zm6.305-.058v-4.822h.551v2.513l2.706-2.513h.779l-2.073 1.938 2.191 2.885h-.691l-1.904-2.513-1.008.932v1.581h-.551zm12.82 0v-4.822h3.581v.524h-3.03v1.617h2.706v.532h-2.706v1.624h3.03v.524h-3.581zm7.127 0l1.942-2.491-1.809-2.331h.698l1.441 1.894 1.449-1.894h.699l-1.809 2.331 1.941 2.491h-.699l-1.581-2.069-1.573 2.069h-.699zm10.243.058c-.486 0-.905-.109-1.258-.328a2.25 2.25 0 0 1-.816-.896c-.191-.374-.279-.789-.279-1.246a2.75 2.75 0 0 1 .279-1.245 2.18 2.18 0 0 1 .816-.889 2.34 2.34 0 0 1 1.258-.335c.367 0 .698.066.992.197a2.17 2.17 0 0 1 .75.524 2.2 2.2 0 0 1 .463.779h-.58a1.53 1.53 0 0 0-.581-.706c-.265-.175-.598-.262-1-.262-.392 0-.728.087-1.008.262a1.66 1.66 0 0 0-.625.692 2.2 2.2 0 0 0-.213.983c0 .364.071.687.213.983s.351.525.625.699c.28.17.616.255 1.008.255.402 0 .735-.087 1-.262a1.53 1.53 0 0 0 .581-.706h.58a2.29 2.29 0 0 1-.463.779 2.26 2.26 0 0 1-.75.532c-.294.126-.625.189-.992.189zm6.305-.058v-4.822h.551v2.142h2.831v-2.142h.551v4.822h-.551v-2.149h-2.831v2.149h-.551zm7.825 0l2.066-4.822h.691l2.067 4.822h-.611l-.595-1.398h-2.412l-.596 1.398h-.61zm1.419-1.901h1.985l-.992-2.353-.993 2.353zm7.296 1.901v-4.822h.639l3.008 4.057v-4.057h.551v4.822h-.64l-3.007-4.072v4.072h-.551zm10.738.058c-.495 0-.922-.109-1.279-.328s-.626-.522-.817-.896-.286-.789-.286-1.246a2.64 2.64 0 0 1 .294-1.245 2.24 2.24 0 0 1 .831-.889c.362-.224.786-.335 1.272-.335.524 0 .978.129 1.36.386a2.27 2.27 0 0 1 .853.983h-.603a1.62 1.62 0 0 0-.618-.612c-.259-.151-.576-.226-.948-.226-.392 0-.73.087-1.015.262a1.71 1.71 0 0 0-.654.692 2.15 2.15 0 0 0-.221.983 2.18 2.18 0 0 0 .221.983 1.73 1.73 0 0 0 .639.699c.285.17.623.255 1.015.255a1.88 1.88 0 0 0 .831-.189c.265-.126.478-.309.64-.546s.25-.524.25-.86h-1.78v-.495h2.287v2.564h-.507v-.852a2.24 2.24 0 0 1-.397.444c-.162.136-.358.248-.589.335-.225.087-.485.131-.779.131zm6.512-.058v-4.822h3.581v.524h-3.03v1.617h2.706v.532h-2.706v1.624h3.03v.524h-3.581z"/><path d="M12.293 52.565l-1.635-2.455c-.557 1.4-.557 3.705-.065 4.746s2.623 3.907 3.689 4.628c-.319-.568-.302-2.155-.252-2.879-.034-.036-.289-.376-1.021-1.459s-.782-2.171-.716-2.581zm4.152-2.718c-.287-.873-1.057-1.977-1.413-2.419l.87-1.829a25.81 25.81 0 0 1 2.309 4.134c.983 2.261.266 4.154-.171 4.597-.083-.211-1.072-1.399-1.554-1.959.107-.488.246-1.651-.04-2.525zm5.735 6.443c-1.051-1.062-3.027-1.442-3.876-1.5.381-.246 1.104-.973.956-1.919.603.082 2.523.709 3.358 1.223s2.853 2.353 2.972 3.576c-.446.06-1.229.85-1.568 1.235a9.28 9.28 0 0 0-1.842-2.616zm-4.54 4.26c-1.55-1.421-1.556-2.743-1.366-3.22-.037-.142-.384-.669-1.488-1.657-.361 1.096-.394 2.272-.098 3.387a5.98 5.98 0 0 0 1.771 2.899c1.155 1.066 1.938 1.599 4.407 1.972 1.974.294 3.344-.5 3.782-.934l-2.123-1.026c-.745.342-2.946.369-4.886-1.421zm4.804-1.287c-1.614-.622-3.065.705-3.584 1.445.957.8 1.903.963 2.258.948.242-.151.512-.253.795-.298a2.15 2.15 0 0 1 .849.034c.83.168 3.291 1.674 4.422 2.399.69-.096 2.03-.478 1.87-1.223-.716-.07-4.579-2.532-6.61-3.304z"/><path d="M26.654 60.728l-2.423-1.434a5.21 5.21 0 0 1 3.291-1.341c1.977-.04 4.64 1.563 5.998 2.76s2.032 2.565 1.858 3.526-1.008 1.4-1.925 1.6c-.626.126-1.867-.246-2.421-.474l1.614-1.157c.476 0 .769-.29.729-.566s-.384-.8-1.512-1.761-2.922-1.577-3.8-1.733c-.267-.038-.539-.004-.788.099a1.5 1.5 0 0 0-.626.484l.005-.004zM25.3 67.087c-2.111.116-5.101-1.977-6.334-3.037 1.614.641 3.384.434 4.074.25.603.258 2.101.753 3.332.669 1.539-.104 4.01-1.972 4.765-2.958.498.222 1.199 1.076 1.485 1.473-.083.04-.557.374-1.778 1.4-1.523 1.267-2.903 2.057-5.545 2.203zm4.379-.685c-.827.694-2.167.974-2.734 1.026.823.816 2.377 1.275 3.386 1.673s5.002 1.118 6.33.67a1.91 1.91 0 0 0 .867-.653 1.88 1.88 0 0 0 .367-1.016L37.922 62c.014-1.355-.603-1.749-.876-1.999s-2.549-.58-3.332.039c.385.2 1.568 1.554 1.614 2 .446.064.737.199.745.528l-.08 4.52c-.012.33-.109.717-.807.8-.875.106-4.755-.288-5.508-1.486zm-18.94-23.104c.422-.274 1.655-.052 2.22.092l-.636 1.709c-.306-.056-.823.2-.452 1.657.464 1.827 3.001 4.76 4.738 6.641s2.044 3.103 2.244 4.303c.159.956-.634 1.845-1.05 2.169-.389-.438-1.14-1.441-1.035-1.945.133-.632-.171-1.356-.807-2.249s-3.105-3.399-4.499-5.667-1.514-3.399-1.725-4.598.472-1.77 1.003-2.112zm-2.785 6.835l1.723 1.799c.345-1.331-.262-2.705-.834-3.958a4.58 4.58 0 0 1-.373-1.289l-.658-4.968a1.32 1.32 0 0 1 .048-.57 1.35 1.35 0 0 1 .754-.833 1.36 1.36 0 0 1 .567-.11l4.092.088c.108.003.211.043.291.114a.45.45 0 0 1 .147.274l.252 1.846-1.54 3.735s.948 1.833 1.38 2.315l.882-1.739A16.66 16.66 0 0 0 15.75 44.2l.403-1.297a2.2 2.2 0 0 0 .073-.986l-.305-1.978a1.63 1.63 0 0 0-.538-.988 1.66 1.66 0 0 0-1.054-.412l-6.455-.024c-1.413-.034-2.442 1.092-2.198 2.479l1.263 7.141c.131.751.484 1.447 1.015 1.999l-.002.001zm56.58-26.568l1.632 2.459c.557-1.4.557-3.708.066-4.746s-2.623-3.907-3.691-4.63c.319.57.302 2.157.252 2.881.036.034.289.376 1.026 1.459s.781 2.169.714 2.577zm-4.156 2.722c.287.874 1.058 1.978 1.413 2.419l-.868 1.835c-.895-1.303-1.668-2.685-2.308-4.128-.983-2.261-.264-4.154.174-4.597.085.212 1.069 1.399 1.551 1.961-.107.472-.246 1.638.038 2.511zm-5.733-6.443c1.051 1.062 3.027 1.441 3.876 1.499-.381.244-1.104.972-.956 1.919-.603-.082-2.52-.709-3.358-1.223s-2.855-2.353-2.974-3.576c.447-.06 1.229-.85 1.568-1.235a9.3 9.3 0 0 0 1.846 2.616h-.002zm4.539-4.26c1.55 1.43 1.557 2.742 1.366 3.221.036.14.383.668 1.487 1.657a5.94 5.94 0 0 0 .098-3.387 5.99 5.99 0 0 0-1.77-2.899c-1.154-1.065-1.937-1.599-4.404-1.972-1.976-.294-3.346.5-3.784.933l2.123 1.026c.749-.344 2.947-.369 4.884 1.42z"/><path d="M54.379 16.872c1.625.622 3.066-.706 3.584-1.445-.956-.8-1.903-.966-2.256-.948-.242.152-.513.255-.796.301a2.15 2.15 0 0 1-.851-.031c-.83-.17-3.291-1.673-4.419-2.399-.69.096-2.032.478-1.87 1.223.714.064 4.576 2.523 6.608 3.298zm-4.209-1.46l2.421 1.434c-.903.818-2.069 1.293-3.291 1.341-1.977.04-4.641-1.565-5.999-2.761s-2.03-2.565-1.859-3.526 1.009-1.399 1.925-1.599c.626-.126 1.866.246 2.421.474l-1.614 1.158c-.478 0-.771.287-.73.565s.385.8 1.513 1.761 2.92 1.578 3.796 1.733a1.52 1.52 0 0 0 .788-.099 1.51 1.51 0 0 0 .628-.482zm1.356-6.363c2.111-.116 5.102 1.975 6.33 3.037-1.602-.642-3.384-.434-4.074-.25-.603-.258-2.1-.754-3.331-.67-1.54.104-4.009 1.972-4.765 2.959-.501-.222-1.201-1.076-1.488-1.473.083-.04.557-.374 1.778-1.4 1.529-1.269 2.91-2.059 5.55-2.203zm-4.38.684c.828-.696 2.167-.974 2.734-1.026-.824-.816-2.375-1.275-3.384-1.673s-5.007-1.118-6.334-.669a1.91 1.91 0 0 0-.868.653 1.88 1.88 0 0 0-.367 1.016l-.026 6.101c-.012 1.355.603 1.749.876 1.999s2.552.58 3.336-.038c-.384-.2-1.568-1.554-1.614-1.999-.446-.06-.737-.2-.743-.526l.078-4.522c.015-.33.109-.717.807-.8.872-.098 4.748.286 5.505 1.483zm18.938 23.104c-.422.272-1.654.052-2.219-.094l.638-1.709c.305.06.821-.2.45-1.656-.465-1.829-2.999-4.76-4.738-6.641s-2.04-3.103-2.24-4.303c-.159-.956.634-1.845 1.05-2.169.389.438 1.142 1.442 1.035 1.945-.133.632.174 1.355.807 2.249s3.105 3.399 4.499 5.667 1.514 3.399 1.725 4.598-.476 1.77-1.007 2.112zm2.786-6.831l-1.721-1.799c-.347 1.332.26 2.703.834 3.959.188.409.312.844.371 1.289l.66 4.96a1.34 1.34 0 0 1-.049.57c-.057.184-.155.355-.285.498s-.29.258-.469.335-.372.115-.567.111l-4.092-.09a.45.45 0 0 1-.291-.112c-.08-.071-.133-.168-.147-.274l-.252-1.843 1.539-3.734s-.947-1.833-1.38-2.315l-.882 1.739a16.82 16.82 0 0 0-1.065 2.643l-.403 1.297c-.098.319-.123.656-.073.986l.305 1.972a1.63 1.63 0 0 0 .538.988 1.66 1.66 0 0 0 1.054.412l6.493.06c1.413.037 2.406-1.127 2.16-2.515l-1.26-7.133a3.85 3.85 0 0 0-1.017-2.002zm-56.512-2.661l-1.632 2.459c-.557-1.4-.557-3.708-.067-4.748s2.622-3.908 3.691-4.63c-.319.568-.302 2.155-.252 2.879-.036.036-.288.376-1.021 1.459s-.785 2.181-.719 2.581zm4.151 2.719c-.287.874-1.057 1.977-1.413 2.419l.861 1.829c.897-1.304 1.67-2.686 2.311-4.13.983-2.261.266-4.154-.174-4.597-.085.21-1.07 1.399-1.552 1.959.113.483.255 1.647-.034 2.521zm5.738-6.443c-1.051 1.063-3.026 1.441-3.876 1.499.381.246 1.104.974.957 1.92.603-.082 2.52-.71 3.358-1.222s2.853-2.355 2.972-3.578c-.446-.06-1.229-.849-1.565-1.235a9.28 9.28 0 0 1-1.845 2.617zm-4.54-4.261c-1.55 1.431-1.558 2.743-1.366 3.221-.036.142-.383.67-1.487 1.657-.361-1.096-.396-2.273-.099-3.389s.912-2.122 1.772-2.9c1.154-1.066 1.937-1.599 4.407-1.972 1.973-.294 3.343.5 3.781.936l-2.123 1.025c-.744-.338-2.945-.367-4.885 1.422z"/><path d="M22.511 16.648c-1.614.62-3.065-.706-3.584-1.447.957-.8 1.903-.963 2.256-.948a2.14 2.14 0 0 0 .796.298 2.16 2.16 0 0 0 .851-.034c.829-.168 3.291-1.673 4.419-2.399.69.098 2.031.478 1.87 1.223-.706.072-4.576 2.53-6.608 3.307zm4.208-1.459l-2.421 1.434a5.2 5.2 0 0 0 3.291 1.34c1.977.039 4.641-1.563 5.999-2.761s2.03-2.565 1.858-3.526-1.009-1.397-1.925-1.597c-.625-.126-1.866.246-2.421.474l1.614 1.158c.478 0 .771.29.73.566s-.385.8-1.513 1.761-2.92 1.579-3.796 1.733a1.52 1.52 0 0 1-.789-.099 1.5 1.5 0 0 1-.628-.484v.002zm-1.355-6.364c-2.111-.116-5.101 1.977-6.33 3.037 1.614-.642 3.384-.434 4.074-.25.603-.258 2.1-.754 3.331-.669 1.54.106 4.01 1.972 4.766 2.958.499-.222 1.199-1.076 1.485-1.473-.083-.04-.557-.374-1.778-1.4-1.527-1.277-2.903-2.059-5.549-2.203zm4.381.684c-.827-.694-2.167-.974-2.734-1.026.823-.816 2.375-1.275 3.384-1.673s5.004-1.118 6.334-.67c.347.13.649.357.868.653a1.88 1.88 0 0 1 .367 1.016l.026 6.101c.012 1.355-.603 1.749-.876 1.999s-2.548.58-3.331-.04c.383-.2 1.565-1.554 1.614-1.999.446-.065.736-.2.742-.526L36.06 8.82c-.014-.33-.109-.717-.807-.8-.876-.104-4.75.29-5.509 1.487zm-18.94 23.103c.422.274 1.655.052 2.22-.091l-.638-1.709c-.302.056-.821-.2-.45-1.657.464-1.827 2.999-4.759 4.738-6.641s2.04-3.103 2.24-4.3c.16-.956-.633-1.845-1.049-2.169-.39.438-1.142 1.442-1.035 1.945.133.632-.174 1.355-.807 2.249s-3.105 3.399-4.5 5.668-1.514 3.398-1.725 4.598.477 1.767 1.007 2.108zm-2.784-6.83l1.723-1.799c.345 1.331-.262 2.705-.835 3.96a4.55 4.55 0 0 0-.373 1.291l-.66 4.96a1.33 1.33 0 0 0 .047.571c.057.184.154.355.284.499a1.35 1.35 0 0 0 .468.336 1.36 1.36 0 0 0 .567.112l4.092-.088a.46.46 0 0 0 .29-.113.45.45 0 0 0 .148-.272l.252-1.845-1.539-3.734s.948-1.835 1.382-2.32l.882 1.74a16.81 16.81 0 0 1 1.065 2.633l.404 1.297a2.2 2.2 0 0 1 .072.986l-.302 1.981a1.63 1.63 0 0 1-.537.987 1.66 1.66 0 0 1-1.053.412l-6.38.112a2.24 2.24 0 0 1-.963-.178c-.304-.129-.574-.324-.792-.571a2.19 2.19 0 0 1-.467-.853 2.18 2.18 0 0 1-.051-.969l1.259-7.131c.132-.753.486-1.45 1.016-2.004zm56.365 26.983l1.632-2.459c.559 1.399.559 3.705.066 4.748s-2.623 3.904-3.689 4.628c.317-.568.301-2.157.252-2.879.034-.036.289-.376 1.021-1.459s.783-2.171.717-2.579zm-4.155-2.72c.288-.874 1.059-1.978 1.413-2.419l-.864-1.829a25.65 25.65 0 0 0-2.312 4.139c-.983 2.262-.267 4.154.172 4.598.084-.21 1.071-1.4 1.554-1.959-.099-.493-.251-1.658.038-2.53zm-5.733 6.443c1.052-1.064 3.026-1.443 3.876-1.499-.382-.246-1.106-.974-.957-1.919-.603.082-2.522.709-3.358 1.222s-2.846 2.355-2.974 3.576c.446.064 1.231.852 1.568 1.238.456-.972 1.081-1.858 1.844-2.617zm4.539 4.26c1.551-1.429 1.557-2.744 1.368-3.222.036-.14.381-.668 1.487-1.655.36 1.096.395 2.272.098 3.386s-.911 2.121-1.77 2.899c-1.154 1.066-1.937 1.599-4.407 1.972-1.975.299-3.343-.5-3.781-.933l2.123-1.026c.743.341 2.946.358 4.884-1.421zm-4.795-1.289c1.624-.62 3.067.705 3.584 1.447-.954.8-1.901.964-2.256.946a2.15 2.15 0 0 0-.795-.296 2.16 2.16 0 0 0-.849.034c-.83.168-3.293 1.673-4.421 2.399-.69-.098-2.031-.478-1.87-1.223.706-.072 4.568-2.531 6.608-3.306zm-4.217 1.469l2.421-1.434a5.2 5.2 0 0 0-3.291-1.339c-1.977-.04-4.641 1.563-5.999 2.761s-2.032 2.565-1.859 3.526 1.009 1.4 1.925 1.599c.625.126 1.867-.246 2.421-.473l-1.614-1.158c-.478 0-.769-.29-.731-.566s.386-.8 1.514-1.761 2.92-1.579 3.795-1.737a1.52 1.52 0 0 1 .789.1 1.51 1.51 0 0 1 .628.484h0z"/><path d="M51.376 67.283c2.111.116 5.102-1.977 6.334-3.037-1.604.642-3.386.434-4.076.25-.603.258-2.098.754-3.331.67-1.539-.106-4.007-1.972-4.765-2.959-.499.222-1.199 1.076-1.488 1.473.085.038.559.374 1.78 1.4 1.527 1.269 2.908 2.059 5.547 2.203zm-4.377-.684c.828.694 2.168.973 2.735 1.025-.824.816-2.377 1.275-3.386 1.669s-5.003 1.118-6.33.672c-.347-.13-.648-.357-.867-.653a1.89 1.89 0 0 1-.368-1.016l-.026-6.101c-.014-1.355.603-1.749.875-1.999s2.549-.58 3.332.038c-.386.2-1.568 1.554-1.614 1.999-.446.064-.737.2-.743.526l.081 4.524c.012.33.109.717.807.8.872.108 4.748-.285 5.505-1.483zm18.946-23.103c-.426-.274-1.655-.052-2.219.092l.638 1.709c.301-.056.823.2.452 1.657-.464 1.827-3.001 4.76-4.738 6.641s-2.045 3.103-2.244 4.303c-.159.956.632 1.845 1.047 2.169.39-.437 1.143-1.441 1.038-1.947-.133-.63.171-1.354.807-2.247s3.105-3.398 4.499-5.667 1.514-3.399 1.725-4.598-.48-1.767-1.005-2.111zm2.779 6.837L67 52.132c-.348-1.333.26-2.705.833-3.958.188-.41.313-.845.374-1.292l.658-4.96a1.33 1.33 0 0 0-.048-.571 1.34 1.34 0 0 0-.501-.69 1.36 1.36 0 0 0-.819-.252l-4.095.088c-.107.003-.209.043-.289.114a.45.45 0 0 0-.147.271l-.249 1.838 1.542 3.735s-.948 1.833-1.383 2.315l-.88-1.739a16.55 16.55 0 0 1-1.065-2.635l-.404-1.297a2.19 2.19 0 0 1-.073-.983l.302-1.981a1.63 1.63 0 0 1 .538-.988 1.66 1.66 0 0 1 1.054-.412l6.506-.09c1.412-.036 2.391 1.16 2.147 2.547l-1.261 7.143c-.132.751-.485 1.446-1.015 1.999h-.001z"/><path opacity=".66" fill-rule="evenodd" d="M38.4.512a38.63 38.63 0 0 0-4.4.25l-.041-.347C35.417.248 36.898.162 38.4.162a38.99 38.99 0 0 1 4.441.253l-.04.347c-1.444-.165-2.912-.25-4.4-.25zm13.989 2.642c-2.694-1.061-5.54-1.825-8.497-2.251l.051-.346c2.984.429 5.857 1.2 8.577 2.272l-.13.325zM32.908.904c-2.957.425-5.803 1.189-8.497 2.251l-.13-.325C27 1.758 29.873.987 32.858.558l.051.346zm28.111 7.032c-2.344-1.731-4.896-3.2-7.613-4.363l.14-.321c2.742 1.174 5.319 2.656 7.684 4.404l-.211.28zM23.395 3.572c-2.717 1.163-5.27 2.632-7.613 4.363l-.211-.28c2.365-1.747 4.942-3.23 7.684-4.404l.14.321zM14.907 8.6c-2.306 1.809-4.394 3.877-6.22 6.162l-.277-.217c1.843-2.305 3.95-4.393 6.277-6.219l.219.274zm53.205 6.162A37.93 37.93 0 0 0 61.893 8.6l.219-.274a38.28 38.28 0 0 1 6.277 6.219l-.277.217zm-60.096.865a37.4 37.4 0 0 0-4.404 7.543l-.324-.139a37.75 37.75 0 0 1 4.445-7.613l.283.209zm65.171 7.543c-1.174-2.692-2.656-5.221-4.404-7.543l.283-.209c1.764 2.343 3.26 4.896 4.445 7.613l-.324.139zM3.191 24.178a36.99 36.99 0 0 0-2.272 8.418l-.349-.05a37.33 37.33 0 0 1 2.293-8.497l.328.129zm72.69 8.418a36.98 36.98 0 0 0-2.272-8.418l.328-.129a37.32 37.32 0 0 1 2.293 8.497l-.349.05zM.777 33.677c-.167 1.43-.253 2.885-.253 4.359s.086 2.929.253 4.359l-.351.04c-.169-1.443-.255-2.911-.255-4.399s.087-2.956.255-4.399l.351.04zm75.5 4.359c0-1.475-.086-2.929-.253-4.359l.351-.04a37.88 37.88 0 0 1 .255 4.399 37.89 37.89 0 0 1-.255 4.399l-.351-.04a37.57 37.57 0 0 0 .253-4.359zm-2.667 13.859a36.98 36.98 0 0 0 2.272-8.418l.349.05c-.433 2.957-1.212 5.803-2.293 8.497l-.328-.129zM.919 43.477c.429 2.929 1.2 5.749 2.272 8.418l-.328.129c-1.081-2.694-1.86-5.54-2.293-8.497l.349-.05zm67.865 16.968c1.748-2.322 3.23-4.851 4.404-7.543l.324.139c-1.185 2.717-2.681 5.27-4.445 7.613l-.283-.209zM3.612 52.903c1.174 2.692 2.656 5.22 4.404 7.542l-.283.209c-1.764-2.343-3.26-4.896-4.445-7.613l.324-.139zm58.28 14.569c2.306-1.809 4.394-3.877 6.22-6.162l.277.217a38.27 38.27 0 0 1-6.277 6.219l-.219-.274zM8.688 61.311c1.826 2.284 3.914 4.353 6.22 6.162l-.219.274c-2.327-1.825-4.435-3.913-6.277-6.219l.277-.217zM53.406 72.5c2.717-1.163 5.27-2.632 7.613-4.363l.211.281c-2.365 1.747-4.941 3.23-7.684 4.403l-.14-.321zm-37.625-4.363a37.92 37.92 0 0 0 7.614 4.363l-.14.321a38.28 38.28 0 0 1-7.684-4.403l.211-.281zm8.631 4.781c2.694 1.061 5.54 1.825 8.497 2.251l-.051.346c-2.984-.429-5.857-1.201-8.576-2.272l.131-.325zm19.481 2.251a37.89 37.89 0 0 0 8.497-2.251l.13.325c-2.719 1.071-5.592 1.842-8.577 2.272l-.051-.346zM34 75.31c1.444.166 2.912.25 4.4.25a38.59 38.59 0 0 0 4.4-.25l.041.347c-1.457.167-2.939.253-4.441.253s-2.984-.086-4.441-.253L34 75.31z"/><path d="M54.899 45.822c.202.52.016 1.089-.475 1.42a5.63 5.63 0 0 1-.55.323c-.454.234-.608.633-.627 1.104-.026.621-.123 1.222-.57 1.697-.576.612-1.279.912-2.141.802-.623-.08-1.25-.096-1.709.43-.217.249-.372.552-.567.849-.273-.2-.386-.524-.484-.851-.013-.043.039-.115.077-.161a2.48 2.48 0 0 1 2.236-.927c.376.031.756.081 1.129.053.664-.05 1.292-.813 1.233-1.467-.019-.217-.095-.442-.326-.539-.699-.294-1.411-.581-2.183-.538-.376.021-.722.004-1.054-.159-.151-.074-.282-.186-.456-.303.655-.294 1.283-.317 1.922-.199l1.391.272c.978.104 1.766-.291 2.402-1.008a.43.43 0 0 0 .106-.256c.002-.163.018-.365-.069-.476-.059-.075-.285-.021-.437-.021-.03 0-.06.017-.09.027-.126.041-.298.124-.337-.053-.029-.133.02-.353.118-.432.497-.401 1.23-.181 1.461.412zm2.333-8.491v1.221c-.058.248-.094.504-.179.742l-.652 1.708c-.084.216-.111.418-.037.653.139.447.195.901-.08 1.336-.207.328-.534.502-.845.698-.368.233-.427.437-.225.819l.073.128-.057.051c-.13-.115-.297-.208-.383-.349-.394-.652-.468-1.345-.006-1.956.226-.298.535-.532.77-.825.203-.253.411-.527.516-.826.192-.543.324-1.109.45-1.673.036-.163-.03-.35-.057-.583-.362.34-.588.658-.659 1.07l-.101.506c-.162.567-.468 1.011-1.089 1.149-.246.054-.5.115-.746.104-.214-.011-.477.01-.625-.22.014-.022.017-.032.022-.032l.14-.014c.333-.003.555-.158.647-.478l.195-.724c.184-.627.562-.908 1.216-.927.09-.002.217-.041.263-.107.418-.598.701-1.241.568-1.993-.103-.58-.424-1.069-.679-1.589-.381-.775-1.003-1.248-1.79-1.545-.145-.055-.3-.084-.451-.124l-.036.099.647.295c1.185.445 1.236 1.777.849 2.555-.109-.175-.182-.369-.319-.495-.216-.201-.479-.351-.711-.536-.197-.158-.407-.315-.561-.511-.213-.271-.139-.613-.152-.931-.004-.095-.015-.233-.076-.274-.198-.132-.412-.303-.633-.324-.94-.089-1.877-.043-2.792.216-.094.026-.216.092-.247.169-.055.143-.014.287.141.382l.687.457 1.609 1.187c.2.14.438.286.671.31.803.083 1.407.393 1.73 1.171.164.395.499.616.95.626l.373.028.007.061-.277.105c-.663.196-1.311.093-1.953-.103a1.79 1.79 0 0 1-1.063-.879c-.092-.164-.158-.345-.266-.497l-.637-.818-.071.047.131.264c.729 1.32.701 2.704.286 4.092-.168.563-.503 1.064-1.139 1.256-.469.141-.721.485-.727.976v.399a1.72 1.72 0 0 1-.857-.862c-.354-.757.151-1.782.931-1.833l.54-.041c.867-.106 1.117-.381 1.174-1.099.053-.676-.093-1.32-.261-1.963-.032-.121-.09-.235-.137-.353-.055.046-.07.081-.071.117-.017.619-.305 1.086-.809 1.437-.134.094-.288.183-.38.311-.336.472-.797.711-1.357.814-.303.056-.602.158-.803.414-.091.116-.149.258-.261.459-.055-.243-.139-.425-.127-.6.041-.591.371-1.027.821-1.395.347-.283.71-.175 1.08-.096l.023.005c.495.103.911-.09 1.148-.532.431-.807.271-1.852-.393-2.488-.367-.352-.807-.595-1.28-.786-.869-.35-1.79-.426-2.71-.504-.188-.016-.379-.002-.551-.002l.404.962.42 1.289c.114.302.132.598.033.891-.264.786-.833 1.351-1.441 1.882-.013.011-.04.007-.082.012l.09-.251c.117-.387.006-.73-.229-1.035-.544-.707-.12-1.633.64-1.842.098-.027.196-.066.281-.121.049-.032.105-.109.1-.161-.077-.827-.511-1.435-1.443-1.408-1.19.033-2.018.665-2.559 1.695-.261.498-.263 1.032-.278 1.575-.011.392-.056.802-.187 1.167-.236.657-.302 1.309-.143 1.979l.009.038.204.746c.159.626.136 1.246.125 1.863-.017.864.364 1.547.997 2.091.803.69 1.782 1.067 2.781 1.365.623.185 1.28.259 1.923.381.421.079.795.217 1.057.595.104.15.292.264.465.341.243.108.507.172.764.245 1 .285 1.567.946 1.736 1.953.051.299-.096.457-.391.379-.112-.03-.227-.184-.274-.306-.272-.713-.782-1.163-1.508-1.377-.271-.08-.551-.152-.831-.178-.509-.047-.925-.195-1.182-.684-.081-.154-.28-.27-.45-.35a2.3 2.3 0 0 0-.656-.191l-2.833-.361c-.208-.027-.244.121-.217.247.051.24.1.501.232.7.478.722 1.248.786 2.015.772a4.66 4.66 0 0 0 1.658-.343c.094-.038.236.012.347.05.168.057.322.16.492.204.244.063.497.092.812.146l-.492.306c-.743.396-1.542.628-2.365.8-.72.15-1.436.166-2.123-.093-.676-.255-1.325-.578-1.99-.865-.092-.04-.201-.042-.303-.062-.019.108-.068.22-.053.322.096.647.398 1.2.841 1.675.434.465.967.539 1.524.226l.595-.339c.218-.106.442-.243.675-.273 1.138-.142 2.056.268 2.746 1.169.181.236.342.489.508.736s.398.31.678.26c.741-.133 1.304-.56 1.742-1.129.212-.277.436-.261.731-.235-.121.414-.38.716-.679.984-.875.786-1.903 1.143-3.083 1.021-.241-.025-.477-.106-.713-.169-.798-.215-1.562-.235-2.258.412-.083-.1-.18-.181-.225-.284-.038-.083-.06-.233-.012-.286.532-.578 1.131-1.033 2.087-.678.245.091.508.131.79.202-.242-.85-1.274-1.508-2.055-1.264-.625.195-1.205.532-1.808.799-.179.079-.181.179-.09.33.372.624.854 1.141 1.472 1.531.916.579 2.049.356 2.53-.409a.19.19 0 0 1 .132-.077l.869-.004c-.109.215-.175.392-.278.544-.36.53-.899.823-1.481 1.043-.683.258-1.34.201-1.923-.257l-1.509-1.244-.866-.738c-.11.558-.163 1.092-.328 1.59s-.439.953-.679 1.458c1.148-.023 1.618-.908 2.222-1.632l.27.178c.026.017.066.034.072.058.02.085.071.204.034.256-.509.703-1.071 1.363-1.862 1.767-.315.161-.675.236-1.014.349h-.332l-.405-.102c-.724-.137-1.279-.55-1.691-1.122-.378-.525-.747-1.076-1.001-1.666-.494-1.15-.299-2.346.631-3.235.311-.298.508-.309.805-.008.814.826 1.096 1.787.701 2.9l-.384.959c-.05.117-.135.221-.212.344-.26-.266-.404-.497-.258-.869.188-.478.347-.974.323-1.504-.015-.319-.113-.594-.358-.813-.162-.145-.326-.141-.453.012-.112.134-.219.297-.257.463-.275 1.214.372 2.575 1.337 3.215.541.359 1.233.148 1.602-.494.524-.912.574-1.882.147-2.819-.53-1.162-1.204-2.251-2.042-3.229-.313-.365-.687-.398-1.013-.033-.416.465-.791.973-1.13 1.496-.434.67-.853 1.353-1.092 2.125-.232.753-.259 1.495.098 2.215.387.779 1.077 1.133 1.862.79.216-.094.319-.033.428.122l.207.299c-.119.108-.23.227-.359.321-1.21.877-2.752.703-3.79-.279-.575-.545-1.045-1.167-1.515-1.797-.218-.291-.499-.543-.781-.777-.401-.332-.88-.352-1.37-.245l-.726.172-.192-.688 1.6-.346c.676-.081 1.161.326 1.538.813.349.45.639.948.918 1.446.393.7.951 1.156 1.754 1.299.076.013.158-.008.237-.013-.01-.087.008-.192-.035-.258-.392-.611-.619-1.281-.734-1.99-.038-.235-.047-.475-.072-.741-.543.259-.731.789-1.132 1.21l-.608-.851c.007-.03.007-.048.016-.059.454-.634.318-1.093-.428-1.42-.991-.434-1.931-.363-2.806.297l-.326.23-.228-.539c1.183-1.048 2.719-1.515 4.053-.509a.87.87 0 0 0 .961.083c.586-.288 1.008-.749 1.292-1.324.159-.322.16-.778-.201-.953l-.459.339c-.652.532-1.379.787-2.244.782-1.678-.008-3.211-.425-4.588-1.382l-.078-.052c-.897-.701-1.867-.7-2.879-.294l-.152.064c-.37.179-.686.404-.677.871.008.484.16.937.624 1.127.385.157.456.411.472.746.001.014-.007.029-.01.044-.926-.165-1.673-.962-1.788-1.908l-.094-.792c-.049-.435-.23-.767-.666-.943-.503-.203-.857-.552-.976-1.097-.083-.382.027-.702.308-.979.265-.261.578-.254.904-.194.081.015.182.057.224.119.077.113.183.267.157.375-.04.169-.224.121-.365.089-.274-.063-.51.09-.49.367.014.197.073.441.206.569.745.725 1.631 1.029 2.679.798l1.6-.297c.524-.074.995.105 1.43.387.718.468 1.479.847 2.323 1.024.893.187 1.777.144 2.612-.259.469-.226.714-.727.621-1.232-.012-.064-.111-.156-.174-.159-.138-.007-.281.024-.417.061l-1.092.305c-.423.083-.855.146-1.285.161-.54.018-1.068.053-1.581.242-.102.037-.254.016-.355-.033-.203-.1-.387-.237-.606-.377.331-.242.696-.345 1.07-.42l1.925-.377c.869-.217 1.703-.539 2.413-1.096 1.058-.83 1.576-1.919 1.428-3.262-.031-.279-.013-.536.05-.772.017-.368.183-.767.183-.767l.087-.333c.175-.591.02-1.162-.101-1.735a3.78 3.78 0 0 1-.058-1.302c.031-.234-.075-.489-.032-.719l.023-.111v-.001c.012-.103-.026-.243-.079-.384-.083-.219-.205-.44-.233-.518h0c-.046-.128-.378-.465-.356-.449l-.389-.287a1.6 1.6 0 0 0-.951-.376c-.536-.024-1.078-.073-1.59.138a2.88 2.88 0 0 0-.594.33.84.84 0 0 0-.369.765c.025.668-.19.961-.831 1.189-.296.106-.607.169-.908.263-.723.225-.748.241-1.151.715-.051-.182-.127-.339-.134-.499-.033-.777.248-1.425.887-1.89a.83.83 0 0 1 .508-.157c.8.065 1.414-.301 1.99-.779l.218-.18c.282-.238.256-.464-.094-.589-.265-.095-.546-.173-.825-.198-1.105-.098-2.183-.006-3.154.588-.481.294-.998.567-1.395.954-.803.784-1.304 1.742-1.311 2.896l.043.959c.029.289.118.348.405.383.281.034.568.058.838.135.651.186 1.035.649 1.062 1.311.022.53.214.952.634 1.276.017.013.027.036.091.124-.319-.047-.583-.058-.83-.129-.738-.213-1.421-.543-1.913-1.148-.183-.225-.335-.505-.402-.784-.154-.636-.31-1.284-.344-1.933-.033-.643.109-1.289.316-1.909l.045-.134c.123-.412-.04-.603-.475-.533-.691.11-1.192.53-1.668 1.004-.686.683-.684 1.521-.593 2.387.002.023.018.046.015.068-.046.404.128.681.492.857.043.021.073.08.095.128.064.134.134.268.176.409.139.461.363.836.9.924-.228.246-.607.328-1.059.244-.76-.142-1.161-.657-1.083-1.398.007-.068.022-.141.052-.203.315-.637.155-1.244-.114-1.845-.076-.171-.172-.161-.282-.036-.381.432-.579.945-.671 1.502-.059.361-.119.722-.01 1.09.114.383.343.642.731.761l.447.155c.796.235 1.127.827 1.237 1.584.098.67-.133 1.213-.67 1.63l-.133.098c-.018.012-.042.015-.083.029.274-.758-.134-1.227-.675-1.644-.368-.283-.575-.635-.467-1.117.049-.218-.027-.39-.186-.549-.419-.419-.596-.93-.633-1.521-.093-1.477.604-2.623 1.53-3.668.469-.529.993-1.01 1.618-1.363.246-.139.512-.242.762-.376.07-.037.169-.16.154-.188-.047-.086-.134-.179-.225-.207-.163-.051-.34-.065-.512-.08-.623-.056-1.131-.37-1.63-.705-.127-.085-.108-.151.018-.222s.248-.16.364-.236c1.203.683 2.476.885 3.803.472.505-.158.952-.493 1.453-.674.566-.205 1.162-.329 1.745-.485.089-.024.18-.033.282-.106l-.199-.083c-.546-.176-1.1-.179-1.661-.081-.445.078-.886.101-1.339.014-.588-.114-.969-.546-.987-1.142-.01-.324.077-.615.206-.903.121-.269.23-.541-.03-.861.398.093.646.296.799.574.128.234.229.504.259.767.094.815.249 1.254 1.413 1.182.86-.053 1.638.131 2.427.384.161.051.327.084.561.143-.066-.189-.09-.32-.154-.428-.116-.195-.238-.391-.389-.559-.867-.966-.927-2.051-.468-3.195l.843-1.858c.106-.27.106-.594.099-.892-.006-.214-.141-.394-.39-.465l-.094.126c-.24.367-.443.457-.869.384l-.325-.062c-.359-.101-.666.012-.979.268-.019-.447.142-.768.395-1.055.474-.538 1.214-.732 1.771-.408.481.28.775.736.889 1.274.049.228.043.491-.021.714l-.642 1.957c-.592 1.545.297 3.433 1.862 3.911.036.011.075.016.135.029l-.105-.485c-.078-.37-.005-.708.191-1.034.135-.224.229-.471.358-.744-.761 0-1.373-.18-1.562-.937-.138-.551.081-1.043.41-1.49.104.566.443.926.918 1.197.562.321.664.577.506 1.206l-.281 1.018a1.31 1.31 0 0 0 .663 1.513c.344.187.72.281 1.116.258.463-.026.787-.335.735-.827-.056-.531-.187-1.061-.348-1.572-.262-.828-.755-1.535-1.368-2.142-.639-.632-1.408-1.051-2.321-1.174-.11-.015-.283.02-.238-.194.035-.165.056-.324.305-.285.742.12 1.481.239 2.116.684.081.057.199.063.3.093.022-.103.064-.206.062-.309-.01-.733-.677-1.465-1.413-1.559l-.493-.059c-.708-.035-1.111-.444-1.3-1.074-.086-.284-.092-.593-.096-.918.357.484.91.522 1.4.688.318.108.552.299.646.629.126.442.468.638.905.779a2.8 2.8 0 0 0-.649-1.202c-1.003-1.108-2.249-1.706-3.768-1.635-.911.043-1.537.562-1.949 1.336a.59.59 0 0 1-.597.355c.102-.483.309-.9.613-1.261.508-.605 1.165-.928 1.963-1.004a5.69 5.69 0 0 1 3.432.727c.342.195.628.492.924.761.3.274.399.269.56-.098.46-1.046 1.147-1.938 1.905-2.783.099-.111.2-.143.331-.072l.587.317-.414.48c-.638.758-1.186 1.57-1.425 2.541a5.51 5.51 0 0 0-.126 1.832c.099 1.103.339 2.16.768 3.177.465 1.103 1.045 2.139 1.851 3.038.058.064.124.12.184.181.501.506.876.274 1.187-.082.537-.615.921-1.326.985-2.144.072-.918-.192-1.753-.918-2.378-.365-.314-.497-.707-.474-1.148.043-.83.458-1.463 1.146-1.927.023-.015.056-.019.124-.042-.165.437-.072.819.099 1.202.186.416.123.832-.091 1.219-.256.461-.177.897.042 1.342l.536 1.152.087-.239c.382-1.236.362-2.475.07-3.727-.173-.742-.42-1.438-.901-2.043-.069-.086-.072-.234-.078-.354l-.004-.777c.258.187.505.332.709.521.604.557.958 1.272 1.241 2.026.063.168.117.342.202.499.144.267.329.323.609.214.835-.325 1.376-1.113 1.377-2.007v-.493c-.015-.897-.364-1.641-1.086-2.183-.196-.147-.469-.193-.707-.287-.062-.024-.138-.038-.179-.083-.132-.143-.249-.298-.381-.459.293-.149.567-.097.832-.03.973.243 1.683.773 2.005 1.762a3.24 3.24 0 0 0 .485.906c.206.278.526.386.885.322l1.373-.251c.165-.031.272.022.329.182l.213.557-1.186.155c-.563.098-1.078.33-1.493.717-.207.192-.349.458-.494.706-.089.153.023.303.239.338.123.02.258.032.377.005l1.74-.431c.49-.162.864-.494.943-1.046a1.61 1.61 0 0 0-.283-1.159c-.712-1.043-1.716-1.588-2.983-1.621-.283-.008-.437-.1-.537-.381.399 0 .793-.049 1.17.009 1.027.159 1.968.526 2.666 1.336a3.19 3.19 0 0 1 .796 1.965 1.8 1.8 0 0 1-.051.464c-.091.427-.008.556.43.591l1.387.085c.152.007.209.065.211.213.002.161.023.323.036.484l-.456-.006-1.957.118-1.367.091c-1.269.105-2.494.369-3.618.996-.504.281-.738.766-.948 1.254-.423.982-.686 2.012-.843 3.068-.021.145-.028.301-.001.443.109.566.311.885.95.756a9.67 9.67 0 0 0 1.468-.429c.322-.121.52-.398.596-.743l.054-.252c.084-.585.46-.908.998-1.065.369-.108.746-.235 1.137-.116.18.055.345.156.504.261-.563.002-.695.176-.822.553-.195.576-.659.769-1.233.815-.17.014-.338.132-.492.225-.042.025-.058.145-.036.204.016.042.119.084.175.075 1.233-.202 2.284-.704 2.969-1.799.302-.482.314-1.008.23-1.542-.051-.327-.264-.548-.584-.646-.372-.115-.748-.195-1.141-.1-.245.06-.45.008-.573-.235.885-.353 1.988-.142 2.633.487.365.356.45.814.439 1.273-.02.813-.354 1.531-.847 2.172-.133.172-.308.312-.462.47-.065.067-.127.139-.181.215-.078.111-.069.213.075.255.188.053.379.112.572.133.707.075 1.382-.036 2.017-.37.335-.176.541-.436.541-.815-.001-.426.224-.672.588-.848.42-.202.799-.455.912-.95.027-.12.043-.243.115-.385.063.117.151.227.185.352.182.67.213 1.329-.341 1.855-.205.194-.483.314-.734.455l-.889.48c-.093.055-.152.166-.227.251l.04.078 1.412-.316a6.67 6.67 0 0 0 1.903-.875c.845-.561 1.334-1.841 1.025-2.723-.066-.189-.198-.355-.278-.54-.082-.192-.138-.396-.173-.608.496.169.749.533.892.978.37 1.153.073 2.186-.607 3.144l-.137.191c-.218.357-.171.606.18.841.202.135.426.238.635.363 1.054.628 1.688 1.581 2.078 2.705.14.404.201.834.3 1.252.01.043.03.083.045.125zm-6.717-5.594c.316.012.672-.203.857-.479l-.857.479zm-5.962-.517l.083.057.284-.436-.066-.046-.302.425zM39.241 27l-.216-.905c-.013.331-.016.658.216.905zm-6.746-1.986l-.939-.43c.228.309.528.483.939.43zm.361 4.489l-.636-.464c.143.248.305.473.636.464zm-2.565-4.865c-.201-.303-.503-.225-.783-.223l.4.119.383.104zm-3.897 7.083L26 30.787c.038.355.041.72.394.934zm-5.32 10.111l.688.423.04-.063-.681-.434-.047.074zm.808-1.733c-.091.239-.019.604.184.904l-.184-.904zm2.882-.569c.044.511.66 1.338 1.079 1.475-.193-.211-.431-.42-.605-.673s-.281-.547-.417-.823l-.057.021zm5.618-4.026c-.394.012-1.126.564-1.257.833l1.257-.833zm15.43 1.909c.251-.44.256-.935.23-1.403l-.23 1.403zm3.595 1.041c-.355-.013-.712-.041-.982.234l.982-.234zm1.325 1.93c-.564-.013-1.136.341-1.209.768.285-.496.738-.642 1.209-.768zm1.534-3.887l1.11.828c-.291-.365-.6-.719-1.06-.889l-.05.062zm1.154-2.469c.122.564.56.876.954 1.212l-.954-1.212zm2.052 5.263c-.38.287-.329.706-.449 1.052l.449-1.052zm.683 2.386c-.118.521-.509.845-.857 1.202.423-.303.879-.585.857-1.202zm-36.559-5.943l.084.407c.11.421.333.763.731 1.002-.181-.535.034-.933.395-1.292.427-.424.616-.894.299-1.478-.135-.248-.084-.465.124-.648l1.028-.858c.576-.435 1.072-.942 1.493-1.523.051-.071.12-.129.221-.234l-.001.36-.052.794c-.031.49.216.815.632 1.036.43.228.881.211 1.335.093.258-.067.492-.181.701-.429-.132 0-.217.007-.299-.002-.255-.026-.522-.061-.665-.297-.25-.41-.602-.667-1.054-.818-.198-.066-.339-.214-.335-.437l.043-1.286.001-.764c-.459.083-.464.091-.512.483-.064.518-.228 1.003-.516 1.445-.476.73-1.131 1.279-1.841 1.764-.852.583-1.55 1.273-1.812 2.307v.376zm.487-.786c.109-.354.21-.714.596-.9l-.596.9zm4.092-2.853l.482.797c-.334-.184-.461-.457-.482-.797zM38.555 19.25l-.236.083-.995.298c-.058.018-.109.059-.185.102l.638.376c.043.023.117-.003.174-.013l1.577-.269c.36-.025.738.061 1.092.156.199.054.394.201.54.353.219.226.192.403-.028.63a1.44 1.44 0 0 0-.065 1.922c.095.11.228.188.343.281l.056-.033c-.087-.5.06-.934.36-1.322.245-.317.226-.644.071-.991-.371-.838-1.058-1.269-1.919-1.482l-.335-.09h-1.09zm2.827 2.618l.246-.843c.118.153.046.44-.246.843zm-.963-1.773c-.352.125-.7.281-1.019.474-.324.196-.626.182-.941.034l-.754-.394c-.777-.422-1.586-.76-2.486-.75-1.266.014-2.447.345-3.503 1.057-.493.332-.924.726-1.278 1.283l.633.075c.042.003.099-.04.13-.078.607-.736 1.38-1.226 2.29-1.507.125-.038.26-.047.39-.069l.031.094-.619.307c-.466.209-.743.682-.679 1.176.083.639.66 1.098 1.404 1.105-.023-.032-.035-.063-.057-.076-.264-.149-.346-.318-.236-.59.099-.246.235-.477.352-.717.1-.207.173-.412.073-.651-.126-.302-.078-.41.206-.58.419-.251.894-.279 1.331-.165.933.243 1.782.676 2.463 1.376.394.405.617.895.593 1.462-.044 1.039-.531 1.864-1.324 2.519-.389.322-.417.368-.294.871l.317-.28 1.374-1.245c.552-.577.793-1.269.653-2.086-.177-1.035.246-1.736 1.233-2.14l.323-.135c-.102-.262-.372-.454-.607-.37zm-7.22 1.397c.019-.325.145-.602.485-.755l-.485.755zm15.895 7.459c.799-.301 1.379-.841 1.745-1.601.381-.79.576-1.632.341-2.482-.337-1.22-1.263-1.88-2.441-2.233-.126-.038-.268-.025-.407-.037.093.431.264.736.715.828.201.041.385.176.573.275.466.244.761.636.898 1.128a3.67 3.67 0 0 1 .137.923c.011.729-.419 1.356-1.025 1.555a.58.58 0 0 1-.727-.213c-.332-.42-.774-.639-1.299-.684-.46-.039-.878.084-1.281.43a1.46 1.46 0 0 1 1.279.546c.272.319.571.389.987.301.444-.094.912-.08 1.404-.115-.272.664-.879.812-1.374 1.112.115.39.129.397.476.267zm-.955-1.994l.052-.069.62.448-.06.08-.612-.46zM32.325 54.094c-.042-.051-.165-.062-.245-.05-.302.044-.602.153-.903.151-.881-.006-1.405-.275-1.64-1.081l-.375-1.158c-.225-.641-.65-1.094-1.333-1.239-.397-.084-.809-.112-1.216-.136-.329-.019-.381.082-.309.396.042.185.162.157.284.158 1.004.007 1.515.368 1.827 1.306.074.222.147.45.174.68.128 1.075 1.011 1.826 1.998 2.014.77.146 1.463-.109 2.237-.359l-.5-.682zm-6.194-27.02c-.007.002-.014.008-.021.011-.345.16-.532.417-.541.806a.62.62 0 0 1-.485.643l-1.182.336c-.865.236-1.701.511-2.366 1.162-.742.727-.947 2.011-.392 2.965.456-.127.592-.317.473-.707-.218-.716.018-1.307.502-1.826.408-.439.92-.732 1.47-.963.486-.204 1.005-.357 1.451-.627a5.58 5.58 0 0 1 1.654-.666 1.61 1.61 0 0 0 .641-.323c.564-.474.765-1.216.504-1.993-.451.611-1.02.986-1.707 1.183zm-.244 1.098l-.029-.057.567-.252c.184-.098.355-.221.594-.373a1.95 1.95 0 0 1-1.132.681zm12.625-5.762c-.034-.256-.09-.29-.315-.179-.857.422-1.44 1.075-1.685 2.004-.251.951-.047 1.857.267 2.756.052.147.074.319.056.474-.07.595.018.796.537 1.1.088.052.174.111.268.149.426.172.652.499.752.929l.053.191.062-.119c.262-.799.178-1.574-.197-2.315a.75.75 0 0 0-.772-.438c-.171.015-.287-.058-.361-.207a2.17 2.17 0 0 1-.231-1.267c.14-1.082.575-1.974 1.628-2.518l-.06-.56zm-.587 5.47l-.694-.562.045-.053c.321.082.489.344.65.615zm-8.33-4.922l-.752.639c-.628.441-1.371.573-2.106.724-.899.184-1.733.484-2.423 1.13-.913.854-1.086 2.151-.637 3.364.097-.021.195-.053.295-.063.222-.024.277-.128.246-.347-.047-.331-.073-.669-.066-1.003.013-.58.14-1.123.564-1.572.603-.639 1.383-.892 2.207-1.089l1.97-.568c.68-.247 1.227-.693 1.603-1.325-.469-.246-.536-.231-.9.11zm-1.788 25.796l-.452-.303a.67.67 0 0 0-.769.042c-.527.37-.864.868-1.017 1.478-.273 1.087.31 2.352 1.351 2.966.46.271.954.436 1.505.454-.084-.314-.192-.603-.232-.901-.032-.241-.134-.278-.349-.28-.439-.004-.878-.071-1.217-.375-.49-.439-.616-.984-.446-1.62.229-.855.721-1.304 1.589-1.398l.038-.063zM53.345 31.04c-.069-.307-.021-.598.055-.9.145-.581.351-1.167.366-1.756.03-1.17-.557-2.073-1.503-2.744-.266-.188-.571-.322-.885-.497l.069.676c.009.06.064.141.118.162 1.14.454 2.053 1.966 1.508 3.465l-.269.726c-.221.525-.103 1.005.176 1.487.39-.166.447-.26.365-.62zm-22.898-4.489c-.088.027-.184.04-.262.084l-.687.412c-.284.206-.578.37-.93.441-.204.042-.42.112-.587.232-.769.549-.836 1.673-.468 2.498l.132-.402c.079-.306.259-.511.573-.596l.523-.148c.469-.168.858-.751.772-1.143-.092-.419-.082-.444.288-.687.092-.061.197-.106.278-.178l.433-.43-.066-.082zm-2.365 1.691c.139-.328.396-.512.756-.584l-.756.584zM38.27 30.13c-.305-.323-.718-.444-1.116-.586-.353-.127-.564-.372-.579-.723-.022-.489.008-.98.034-1.47.014-.279.049-.552-.184-.816l-.197.632c-.169.852-.238 1.69.392 2.421.079.092.117.238.129.363.044.425.223.742.643.899.073.027.142.068.212.103.479.241.616.491.542.995.5-.319.567-1.347.123-1.817zm-1.009-.215l.041-.069.554.327-.046.075-.55-.333zm11.979.837l1.306-.277c.63-.198.922-.626.907-1.212-.016-.631.27-1.012.902-1.134.238-.046.493-.007.741-.007-.07-.502-.172-.568-.646-.402-.466.164-.883.402-1.223.771-.089.097-.246.17-.381.185-.534.06-.761.234-.895.744-.024.091-.056.181-.062.274-.023.358-.218.611-.496.812-.074.053-.166.083-.249.124l.095.122zm1.827-1.82l-.793.581c.238-.226.386-.572.793-.581zm5.586 3.611c-.165-.765-1.28-1.367-1.93-.77-.064.058-.174.104-.257.096-.273-.022-.336.146-.393.361l.134.009c.24-.006.426.034.486.325.024.117.157.244.273.305.192.102.407.163.618.224.281.082.535.193.677.467l.327.627a2.86 2.86 0 0 0 .065-1.645zm-1.18-.428c-.198-.048-.41-.044-.613-.082.316-.178.898-.023 1.241.319-.223-.086-.419-.186-.627-.237zm-11.698-4.221c.293.093.568.081.818-.139.156-.137.32-.127.476.042l.686.681c.557.488 1.231.658 1.98.694l-.021-.416c-.722-.01-1.372-.134-1.889-.63l-.8-.8c-.415-.409-.913-.533-1.456-.336-.519.188-.838.577-.985 1.164.392-.274.765-.393 1.192-.259zm.844-.471l-.999-.209c.42-.063.821.017.999.209zm.311.537c-1.244.601-1.91 1.467-1.598 2.929.02.093.063.181.096.272l.08.031c.038-.647.539-.887.969-1.199.306-.222.399-.538.335-.914-.103-.606-.089-.617.457-.938-.11-.09-.14-.277-.339-.181zm-.663.601l.064.044-.415.564-.06-.036.411-.572zm-2.274-6.137c.009.269.119.537.117.804-.003.292-.083.583-.129.874.451.038.964-.235 1.15-.652.197-.44.18-.861-.141-1.253-.251-.305-.245-.471-.003-.795l.145-.187-.205-.205c-.549.261-.954.862-.934 1.415zm.483-.044l-.015-.607.08.006-.066.601zm-15.836 2.552c-.159.306-.454.386-.722.53-.203.109-.427.238-.551.418-.322.469-.392 1.016-.39 1.59.042-.018.07-.022.081-.037.359-.484.85-.739 1.437-.863.377-.08.618-.393.625-.781.006-.332-.04-.665-.067-1.044-.183.079-.367.099-.413.187zm-.081.473c-.012.287-.325.631-.693.748l.693-.748zm8.662 10.218c.052.185.163.361.23.521-.081-.223-.203-.443-.23-.521zm-9.982 4.707c-.173-.252-.281-.547-.417-.823l-.057.021c.044.511.66 1.338 1.079 1.475-.193-.211-.431-.42-.605-.673zm3.887-3.994l1.257-.833c-.394.012-1.126.564-1.257.833zm24.294-2.31c.122.564.56.876.954 1.212l-.954-1.212zm2.735 7.649c-.118.521-.509.845-.857 1.202.423-.303.879-.585.857-1.202zm-3.838-5.242l-.05.062 1.11.828c-.291-.365-.6-.719-1.06-.889zM31.556 24.584c.228.309.528.483.939.43l-.939-.43zm17.966 16.567c.285-.496.738-.642 1.209-.768-.564-.013-1.136.341-1.209.768zm.992-9.415c.316.012.672-.203.857-.479l-.857.479zM26 30.787c.038.355.041.72.394.934L26 30.787zm29.021 9.556l.449-1.052c-.379.287-.328.706-.449 1.052zm-8.979-4.333l-.23 1.403c.251-.44.256-.935.23-1.403zM29.507 24.414l.4.119.383.104c-.201-.303-.503-.225-.783-.223zm18.917 14.273l.982-.234c-.355-.013-.712-.041-.982.234zm-9.4-12.593c-.013.331-.016.658.216.905l-.216-.905zm-6.805 2.945c.143.248.305.473.636.464l-.636-.464zM21.122 41.758l-.047.074.688.423.04-.063-.681-.434zm.76-1.659c-.091.239-.019.604.184.904l-.184-.904zm22.972-9.304l-.302.425.083.057.284-.436-.066-.046zm-24.773 4.153l.596-.9c-.386.186-.488.546-.596.9zm4.092-2.853c.021.34.148.613.482.797l-.482-.797zm17.209-10.226c.293-.403.364-.69.246-.843l-.246.843zm-7.698-1.131l-.485.755c.02-.325.146-.602.485-.755zm15.128 6.599l-.62-.448-.052.069.612.459.06-.08zm-22.387.526c-.182.097-.378.169-.567.252l.029.057c.435-.086.797-.297 1.132-.681l-.594.373zm10.804-.544l.695.562c-.161-.271-.329-.533-.65-.614l-.045.053zm-9.148.925l.756-.584c-.36.072-.617.256-.756.584zm9.775 1.931l-.554-.327-.042.069.55.333.046-.074zm13.21-1.241c-.407.009-.556.356-.793.581l.793-.581zm3.792 3.101c.204.039.415.034.613.082.208.05.404.15.627.237-.342-.342-.924-.497-1.24-.319zm-10.241-4.61c-.178-.192-.579-.272-.999-.209l.999.209zm-.702 1.747l.415-.564-.064-.044-.411.572.06.036zm-1.455-7.396v.604c.037-.197.058-.397.08-.597l-.08-.006zm-15.902 3.632l-.693.748c.368-.117.681-.46.693-.748z"/></svg>