<svg xmlns="http://www.w3.org/2000/svg" xmlns:xlink="http://www.w3.org/1999/xlink" width="1995" height="1058" fill="none" xmlns:v="https://vecta.io/nano"><style><![CDATA[.B{opacity:.7}.C{fill-opacity:.3}.D{fill:#fff}]]></style><g class="D C"><use xlink:href="#B" class="B"/><use xlink:href="#B" class="B"/><use xlink:href="#C" class="B"/><use xlink:href="#C" class="B"/><use xlink:href="#D" class="B"/><use xlink:href="#D" class="B"/><use xlink:href="#E" class="B"/><use xlink:href="#E" class="B"/><use xlink:href="#F" class="B"/><use xlink:href="#F" class="B"/><use xlink:href="#G" class="B"/><use xlink:href="#G" class="B"/><use xlink:href="#F" x="771.724" y="234.592" class="B"/><use xlink:href="#F" x="771.724" y="234.592" class="B"/><use xlink:href="#H" class="B"/><use xlink:href="#H" class="B"/><use xlink:href="#I" class="B"/><use xlink:href="#I" class="B"/><use xlink:href="#J" class="B"/><use xlink:href="#J" class="B"/><use xlink:href="#K" class="B"/><use xlink:href="#K" class="B"/><use xlink:href="#L" class="B"/><use xlink:href="#L" class="B"/><use xlink:href="#M" class="B"/><use xlink:href="#M" class="B"/><use xlink:href="#N" class="B"/><use xlink:href="#N" class="B"/><use xlink:href="#O" class="B"/><use xlink:href="#O" class="B"/><use xlink:href="#P" class="B"/><use xlink:href="#P" class="B"/><use xlink:href="#L" x="-18.781" y="1.658" class="B"/><use xlink:href="#L" x="-18.781" y="1.658" class="B"/><use xlink:href="#M" x="18.78" y="1.658" class="B"/><use xlink:href="#M" x="18.78" y="1.658" class="B"/><use xlink:href="#Q" class="B"/><use xlink:href="#Q" class="B"/><use xlink:href="#R" class="B"/><use xlink:href="#R" class="B"/><use xlink:href="#S" class="B"/><use xlink:href="#S" class="B"/><use xlink:href="#T" class="B"/><use xlink:href="#T" class="B"/><use xlink:href="#U" class="B"/><use xlink:href="#U" class="B"/><use xlink:href="#V" class="B"/><use xlink:href="#V" class="B"/><use xlink:href="#O" x="559.97" y="88" class="B"/><use xlink:href="#O" x="559.97" y="88" class="B"/><use xlink:href="#P" x="-559.97" y="88" class="B"/><use xlink:href="#P" x="-559.97" y="88" class="B"/><use xlink:href="#W" class="B"/><use xlink:href="#W" class="B"/><use xlink:href="#F" x="679.418" y="19" class="B"/><use xlink:href="#F" x="679.418" y="19" class="B"/><use xlink:href="#X" class="B"/><use xlink:href="#X" class="B"/><use xlink:href="#Y" class="B"/><use xlink:href="#Y" class="B"/><use xlink:href="#Z" class="B"/><use xlink:href="#Z" class="B"/><use xlink:href="#F" x="707.418" y="408.632" class="B"/><use xlink:href="#F" x="707.418" y="408.632" class="B"/><use xlink:href="#a" class="B"/><use xlink:href="#a" class="B"/><use xlink:href="#b" class="B"/><use xlink:href="#b" class="B"/><use xlink:href="#c" class="B"/><use xlink:href="#c" class="B"/><use xlink:href="#d" class="B"/><use xlink:href="#d" class="B"/><use xlink:href="#D" x="253.166" y="480.794" class="B"/><use xlink:href="#D" x="253.166" y="480.794" class="B"/><use xlink:href="#e" class="B"/><use xlink:href="#e" class="B"/><use xlink:href="#f" class="B"/><use xlink:href="#f" class="B"/><use xlink:href="#G" x="-633.02" y="699" class="B"/><use xlink:href="#G" x="-633.02" y="699" class="B"/><use xlink:href="#O" x="45.407" y="-326.67" class="B"/><use xlink:href="#O" x="45.407" y="-326.67" class="B"/><use xlink:href="#g" class="B"/><use xlink:href="#g" class="B"/><use xlink:href="#h" class="B"/><use xlink:href="#h" class="B"/><use xlink:href="#i" class="B"/><use xlink:href="#i" class="B"/><use xlink:href="#j" class="B"/><use xlink:href="#j" class="B"/><use xlink:href="#k" class="B"/><use xlink:href="#k" class="B"/><use xlink:href="#l" class="B"/><use xlink:href="#l" class="B"/><use xlink:href="#M" x="-118" y="-210.67" class="B"/><use xlink:href="#M" x="-118" y="-210.67" class="B"/><use xlink:href="#F" x="327.483" y="-127.557" class="B"/><use xlink:href="#F" x="327.483" y="-127.557" class="B"/><use xlink:href="#V" x="-134.67" y="-817.546" class="B"/><use xlink:href="#V" x="-134.67" y="-817.546" class="B"/><use xlink:href="#m" class="B"/><use xlink:href="#m" class="B"/><use xlink:href="#n" class="B"/><use xlink:href="#n" class="B"/><use xlink:href="#B" x="294.578" y="-64.866" class="B"/><use xlink:href="#B" x="294.578" y="-64.866" class="B"/><use xlink:href="#o" class="B"/><use xlink:href="#o" class="B"/><use xlink:href="#l" x="356.896" y="884.582" class="B"/><use xlink:href="#l" x="356.896" y="884.582" class="B"/><use xlink:href="#p" class="B"/><use xlink:href="#p" class="B"/><use xlink:href="#q" class="B"/><use xlink:href="#q" class="B"/><use xlink:href="#r" class="B"/><use xlink:href="#r" class="B"/><use xlink:href="#s" class="B"/><use xlink:href="#s" class="B"/><use xlink:href="#t" class="B"/><use xlink:href="#t" class="B"/><use xlink:href="#l" x="807" y="716.719" class="B"/><use xlink:href="#l" x="807" y="716.719" class="B"/><use xlink:href="#u" class="B"/><use xlink:href="#u" class="B"/><use xlink:href="#v" class="B"/><use xlink:href="#v" class="B"/><use xlink:href="#w" class="B"/><use xlink:href="#w" class="B"/></g><g class="B D C"><use xlink:href="#x" class="B"/><use xlink:href="#y" class="B"/></g><g class="B D C"><use xlink:href="#x" class="B"/><use xlink:href="#y" class="B"/></g><g class="B D C"><use xlink:href="#z" class="B"/><use xlink:href="#AA" class="B"/></g><g class="B D C"><use xlink:href="#z" class="B"/><use xlink:href="#AA" class="B"/></g><g class="D C"><use xlink:href="#AB" class="B"/><use xlink:href="#AB" class="B"/><use xlink:href="#AC" class="B"/><use xlink:href="#AC" class="B"/><use xlink:href="#AD" class="B"/><use xlink:href="#AD" class="B"/><use xlink:href="#AE" class="B"/><use xlink:href="#AE" class="B"/><use xlink:href="#AF" class="B"/><use xlink:href="#AF" class="B"/><use xlink:href="#AG" class="B"/><use xlink:href="#AG" class="B"/><use xlink:href="#AH" class="B"/><use xlink:href="#AH" class="B"/><use xlink:href="#AI" class="B"/><use xlink:href="#AI" class="B"/><use xlink:href="#AD" x="-2.862" y="198.848" class="B"/><use xlink:href="#AD" x="-2.862" y="198.848" class="B"/><use xlink:href="#AJ" class="B"/><use xlink:href="#AJ" class="B"/><use xlink:href="#AK" class="B"/><use xlink:href="#AK" class="B"/><use xlink:href="#AL" class="B"/><use xlink:href="#AL" class="B"/><use xlink:href="#AK" x="12.68" y="-87.232" class="B"/><use xlink:href="#AK" x="12.68" y="-87.232" class="B"/><use xlink:href="#AL" x="-12.68" y="-87.232" class="B"/><use xlink:href="#AL" x="-12.68" y="-87.232" class="B"/><use xlink:href="#AH" x="87.047" y="105.144" class="B"/><use xlink:href="#AH" x="87.047" y="105.144" class="B"/><use xlink:href="#AL" x="54.23" y="-82.829" class="B"/><use xlink:href="#AL" x="54.23" y="-82.829" class="B"/><use xlink:href="#AM" class="B"/><use xlink:href="#AM" class="B"/><use xlink:href="#AN" class="B"/><use xlink:href="#AN" class="B"/><use xlink:href="#AO" class="B"/><use xlink:href="#AO" class="B"/><use xlink:href="#r" x="664.61" y="53.558" class="B"/><use xlink:href="#r" x="664.61" y="53.558" class="B"/><use xlink:href="#AP" class="B"/><use xlink:href="#AP" class="B"/><use xlink:href="#AQ" class="B"/><use xlink:href="#AQ" class="B"/><use xlink:href="#AR" class="B"/><use xlink:href="#AR" class="B"/><use xlink:href="#AS" class="B"/><use xlink:href="#AS" class="B"/><use xlink:href="#AT" class="B"/><use xlink:href="#AT" class="B"/><use xlink:href="#AU" class="B"/><use xlink:href="#AU" class="B"/><use xlink:href="#AV" class="B"/><use xlink:href="#AV" class="B"/><use xlink:href="#AW" class="B"/><use xlink:href="#AW" class="B"/><use xlink:href="#AX" class="B"/><use xlink:href="#AX" class="B"/><use xlink:href="#AY" class="B"/><use xlink:href="#AY" class="B"/><use xlink:href="#AZ" class="B"/><use xlink:href="#AZ" class="B"/><use xlink:href="#Aa" class="B"/><use xlink:href="#Aa" class="B"/><use xlink:href="#Ab" class="B"/><use xlink:href="#Ab" class="B"/><use xlink:href="#Ac" class="B"/><use xlink:href="#Ac" class="B"/><use xlink:href="#Ad" class="B"/><use xlink:href="#Ad" class="B"/></g><g class="B D C"><use xlink:href="#Ae" class="B"/><use xlink:href="#Af" class="B"/></g><g class="B D C"><use xlink:href="#Ae" class="B"/><use xlink:href="#Af" class="B"/></g><g class="B D C"><use xlink:href="#Ag" class="B"/><use xlink:href="#Ah" class="B"/></g><g class="B D C"><use xlink:href="#Ag" class="B"/><use xlink:href="#Ah" class="B"/></g><g class="D C"><use xlink:href="#Ai" class="B"/><use xlink:href="#Ai" class="B"/><use xlink:href="#Aj" class="B"/><use xlink:href="#Aj" class="B"/><use xlink:href="#Ak" class="B"/><use xlink:href="#Ak" class="B"/><use xlink:href="#Al" class="B"/><use xlink:href="#Al" class="B"/><use xlink:href="#Am" class="B"/><use xlink:href="#Am" class="B"/><use xlink:href="#An" class="B"/><use xlink:href="#An" class="B"/><path d="M1719.71 1032.03c0-1.33-.67-1.99-2-1.99s-2 .66-2 1.99.67 2 2 2c.67 0 2-.67 2-2z" class="B"/><path d="M1719.71 1032.03c0-1.33-.67-1.99-2-1.99s-2 .66-2 1.99.67 2 2 2c.67 0 2-.67 2-2z" class="B"/><use xlink:href="#Ao" class="B"/><use xlink:href="#Ao" class="B"/><use xlink:href="#Ap" class="B"/><use xlink:href="#Ap" class="B"/><use xlink:href="#Aq" class="B"/><use xlink:href="#Aq" class="B"/><use xlink:href="#AL" x="177.29" y="-471.827" class="B"/><use xlink:href="#AL" x="177.29" y="-471.827" class="B"/><use xlink:href="#Ar" class="B"/><use xlink:href="#Ar" class="B"/><path d="M1641.56 1016.91c0-1.33-.67-2-2-2s-2 .67-2 2 .67 2 2 2c.66 0 2-.67 2-2z" class="B"/><path d="M1641.56 1016.91c0-1.33-.67-2-2-2s-2 .67-2 2 .67 2 2 2c.66 0 2-.67 2-2z" class="B"/><use xlink:href="#As" class="B"/><use xlink:href="#As" class="B"/><use xlink:href="#At" class="B"/><use xlink:href="#At" class="B"/><use xlink:href="#Au" class="B"/><use xlink:href="#Au" class="B"/><use xlink:href="#AQ" x="-171" y="-134" class="B"/><use xlink:href="#AQ" x="-171" y="-134" class="B"/><use xlink:href="#Av" class="B"/><use xlink:href="#Av" class="B"/><use xlink:href="#Aw" class="B"/><use xlink:href="#Aw" class="B"/><use xlink:href="#Ax" class="B"/><use xlink:href="#Ax" class="B"/><use xlink:href="#Ay" class="B"/><use xlink:href="#Ay" class="B"/><use xlink:href="#Az" class="B"/><use xlink:href="#Az" class="B"/></g><g class="B D C"><use xlink:href="#BA" class="B"/><use xlink:href="#BB" class="B"/></g><g class="B D C"><use xlink:href="#BA" class="B"/><use xlink:href="#BB" class="B"/></g><g class="B D C"><use xlink:href="#BC" class="B"/><use xlink:href="#BD" class="B"/></g><g class="B D C"><use xlink:href="#BC" class="B"/><use xlink:href="#BD" class="B"/></g><defs ><path id="B" d="M225.65 217.47c0 1.33-.666 1.995-1.998 1.995s-1.997-.665-1.997-1.995.666-1.995 1.997-1.995c.666 0 1.998.665 1.998 1.995z"/><path id="C" d="M1764.1 194.47c0 1.33.67 1.995 2 1.995s2-.665 2-1.995-.67-1.995-2-1.995c-.66 0-2 .665-2 1.995z"/><path id="D" d="M307.543 217.471c0 .665-.666 1.33-1.332 1.33s-1.332-.665-1.332-1.33.666-1.33 1.332-1.33c.666-.665 1.332 0 1.332 1.33z"/><path id="E" d="M1682.21 194.471c0 .665.67 1.33 1.33 1.33.67 0 1.33-.665 1.33-1.33s-.66-1.33-1.33-1.33c-.66-.665-1.33 0-1.33 1.33z"/><path id="F" d="M95.291 300.939c0 .665-.666 1.33-1.332 1.33s-1.332-.665-1.332-1.33.666-1.33 1.332-1.33 1.332.665 1.332 1.33z"/><path id="G" d="M1894.46 277.939c0 .665.67 1.33 1.33 1.33.67 0 1.34-.665 1.34-1.33s-.67-1.33-1.34-1.33c-.66 0-1.33.665-1.33 1.33z"/><path id="H" d="M51.213 151.631c0 1.33-1.332 2.661-2.663 2.661s-2.663-1.331-2.663-2.661 1.332-2.66 2.663-2.66 2.663 1.33 2.663 2.66z"/><path id="I" d="M1938.54 128.631c0 1.33 1.33 2.661 2.66 2.661 1.34 0 2.67-1.331 2.67-2.661s-1.33-2.66-2.67-2.66c-1.33 0-2.66 1.33-2.66 2.66z"/><path id="J" d="M13.262 361.122c0 1.33-1.332 2.66-2.663 2.66s-2.663-1.33-2.663-2.66 1.332-2.661 2.663-2.661c1.997 0 2.663 1.33 2.663 2.661z"/><path id="K" d="M1976.49 338.122c0 1.33 1.33 2.66 2.67 2.66 1.33 0 2.66-1.33 2.66-2.66s-1.33-2.661-2.66-2.661c-2 0-2.67 1.33-2.67 2.661z"/><path id="L" d="M34.04 321.555c0 1.33-.666 1.995-1.997 1.995s-1.997-.665-1.997-1.995.666-1.995 1.997-1.995 1.997.665 1.997 1.995z"/><path id="M" d="M1955.71 298.555c0 1.33.67 1.995 2 1.995s2-.665 2-1.995-.67-1.995-2-1.995-2 .665-2 1.995z"/><path id="N" d="M831.529 26.602c0 .665-.666 1.33-1.332 1.33s-1.332-.665-1.332-1.33.666-1.33 1.332-1.33 1.332 0 1.332 1.33z"/><path id="O" d="M167.889 416.939c0 .665-.666 1.33-1.332 1.33s-1.331-.665-1.331-1.33.666-1.33 1.331-1.33 1.332.665 1.332 1.33z"/><path id="P" d="M1821.86 393.939c0 .665.67 1.33 1.34 1.33.66 0 1.33-.665 1.33-1.33s-.67-1.33-1.33-1.33c-.67 0-1.34.665-1.34 1.33z"/><path id="Q" d="M420.388 941.599c0 1.995-1.998 3.99-3.995 3.99s-3.995-1.995-3.995-3.99 1.998-3.99 3.995-3.99c1.997.665 3.995 1.995 3.995 3.99z"/><path id="R" d="M1569.37 918.599c0 1.995 1.99 3.99 3.99 3.99s4-1.995 4-3.99-2-3.99-4-3.99c-2 .665-3.99 1.995-3.99 3.99z"/><path id="S" d="M204.344 252.717c0 .666-.665 1.331-1.331 1.331s-1.332-.665-1.332-1.331.666-1.33 1.332-1.33c.666-.665 1.331 0 1.331 1.33z"/><path id="T" d="M1785.41 229.717c0 .666.67 1.331 1.33 1.331.67 0 1.33-.665 1.33-1.331s-.66-1.33-1.33-1.33c-.66-.665-1.33 0-1.33 1.33z"/><path id="U" d="M288.104 990.928c0 .665-.666 1.33-1.332 1.33s-1.331-.665-1.331-1.33.665-1.33 1.331-1.33 1.332.665 1.332 1.33z"/><path id="V" d="M1701.65 967.928c0 .665.67 1.33 1.33 1.33.67 0 1.33-.665 1.33-1.33s-.66-1.33-1.33-1.33c-.66 0-1.33.665-1.33 1.33z"/><path id="W" d="M1140.71 630.939c0 .665-.67 1.33-1.33 1.33-.67 0-1.33-.665-1.33-1.33s.66-1.33 1.33-1.33c.66 0 1.33.665 1.33 1.33z"/><path id="X" d="M1215.05 296.939c0 .665.66 1.33 1.33 1.33.66 0 1.33-.665 1.33-1.33s-.67-1.33-1.33-1.33c-.67 0-1.33.665-1.33 1.33z"/><path id="Y" d="M1148.04 270.176c0 .666-.67 1.331-1.33 1.331-.67 0-1.33-.665-1.33-1.331s.66-1.33 1.33-1.33c.66-.665 1.33 0 1.33 1.33z"/><path id="Z" d="M1338.37 810.516c0 1.33-1.33 2.66-2.66 2.66s-2.66-1.33-2.66-2.66 1.33-2.661 2.66-2.661 2.66 1.331 2.66 2.661z"/><path id="a" d="M707.708 191.269c0 .665-.665 1.33-1.331 1.33s-1.332-.665-1.332-1.33.666-1.331 1.332-1.331 1.331.665 1.331 1.331z"/><path id="b" d="M1282.05 168.269c0 .665.66 1.33 1.33 1.33.66 0 1.33-.665 1.33-1.33s-.67-1.331-1.33-1.331c-.67 0-1.33.665-1.33 1.331z"/><path id="c" d="M58.536 375.086c0 1.331-.666 1.996-1.997 1.996s-1.997-.665-1.997-1.996.666-1.995 1.997-1.995 1.997.665 1.997 1.995z"/><path id="d" d="M1931.22 352.086c0 1.331.66 1.996 1.99 1.996 1.34 0 2-.665 2-1.996s-.66-1.995-2-1.995c-1.33 0-1.99.665-1.99 1.995z"/><path id="e" d="M1429.05 675.265c0 .665.66 1.33 1.33 1.33.66 0 1.33-.665 1.33-1.33s-.67-1.33-1.33-1.33c-.67-.665-1.33 0-1.33 1.33z"/><path id="f" d="M728.311 999.939c0 .661-.666 1.331-1.332 1.331s-1.332-.67-1.332-1.331.666-1.33 1.332-1.33 1.332.665 1.332 1.33z"/><path id="g" d="M1776.46 67.269c0 .665.66 1.33 1.33 1.33s1.33-.665 1.33-1.33-.66-1.33-1.33-1.33-1.33.665-1.33 1.33z"/><path id="h" d="M607.392 699.655c0 1.33-1.332 2.66-2.663 2.66s-2.663-1.33-2.663-2.66 1.331-2.66 2.663-2.66 2.663 1.33 2.663 2.66z"/><path id="i" d="M1382.36 676.655c0 1.33 1.33 2.66 2.66 2.66 1.34 0 2.67-1.33 2.67-2.66s-1.33-2.66-2.67-2.66c-1.33 0-2.66 1.33-2.66 2.66z"/><path id="j" d="M369.331 988.269c0 1.33-1.331 2.66-2.663 2.66s-2.663-1.33-2.663-2.66 1.331-2.66 2.663-2.66 2.663 1.33 2.663 2.66z"/><path id="k" d="M1620.42 965.269c0 1.33 1.33 2.66 2.67 2.66 1.33 0 2.66-1.33 2.66-2.66s-1.33-2.66-2.66-2.66c-1.34 0-2.67 1.33-2.67 2.66z"/><path id="l" d="M152.04 110.885c0 1.33-.666 1.995-1.997 1.995s-1.998-.665-1.998-1.995.666-1.995 1.998-1.995 1.997.665 1.997 1.995z"/><path id="m" d="M580.68 696.269c0 1.33-1.331 2.66-2.663 2.66s-2.663-1.33-2.663-2.66 1.331-2.66 2.663-2.66c1.997 0 2.663.665 2.663 2.66z"/><path id="n" d="M1409.07 673.269c0 1.33 1.34 2.66 2.67 2.66s2.66-1.33 2.66-2.66-1.33-2.66-2.66-2.66c-2 0-2.67.665-2.67 2.66z"/><path id="o" d="M1469.53 129.604c0 1.33.66 1.995 1.99 1.995s2-.665 2-1.995-.67-1.995-2-1.995c-.66 0-1.99.665-1.99 1.995z"/><path id="p" d="M1480.82 972.467c0 1.33.66 1.995 1.99 1.995 1.34 0 2-.665 2-1.995s-.66-1.995-2-1.995c-1.33 0-1.99.665-1.99 1.995z"/><path id="q" d="M664.61 506.934c0-.665.666-1.33 1.332-1.33s1.332.665 1.332 1.33-.666 1.33-1.332 1.33-1.332-.665-1.332-1.33z"/><path id="r" d="M1325.14 483.934c0-.665-.66-1.33-1.33-1.33-.66 0-1.33.665-1.33 1.33s.67 1.33 1.33 1.33c.67 0 1.33-.665 1.33-1.33z"/><path id="s" d="M1122.05 489.269c0-1.33 1.33-2.66 2.66-2.66s2.66 1.33 2.66 2.66-1.33 2.66-2.66 2.66-2.66-.665-2.66-2.66z"/><path id="t" d="M901.691 280.817c0 1.33-1.331 2.661-2.663 2.661s-2.663-1.331-2.663-2.661 1.331-2.66 2.663-2.66 2.663.665 2.663 2.66z"/><path id="u" d="M1446.73 408.277c0 .665-.67 1.33-1.33 1.33-.67 0-1.33-.665-1.33-1.33s.66-1.331 1.33-1.331c.66-.665 1.33 0 1.33 1.331z"/><path id="v" d="M351.119 91.599c0 1.995-1.997 3.99-3.995 3.99s-3.995-1.995-3.995-3.99 1.998-3.99 3.995-3.99c2.663.665 3.995 1.995 3.995 3.99z"/><path id="w" d="M1638.63 68.599c0 1.995 2 3.99 4 3.99s3.99-1.995 3.99-3.99-1.99-3.99-3.99-3.99c-2.66.665-4 1.995-4 3.99z"/><path id="x" d="M561.883 0l1.332 13.966 13.982 1.33-13.982.665-1.332 14.631-1.331-14.631-13.982-.665 13.982-1.33L561.883 0z"/><path id="y" d="M567.875 8.646l-4.661 6.65 4.661 5.985-5.993-4.655-6.658 5.32 5.993-6.65-5.993-5.985 6.658 4.655 5.993-5.32z"/><path id="z" d="M1377.65 772.609l.67 9.976 9.98.665-9.98.665-.67 9.975-.67-9.975-9.98-.665 9.98-.665.67-9.976z"/><path id="AA" d="M1381.65 778.594l-3.33 4.655 3.33 4.656-4-3.991-4.66 3.991 4-4.656-4-3.99 4.66 3.325 4-3.99z"/><path id="AB" d="M268.183 682.137c0-1.33.666-1.995 1.997-1.995s1.997.665 1.997 1.995-.665 1.995-1.997 1.995c-.666 0-1.997-.665-1.997-1.995z"/><path id="AC" d="M1721.57 659.137c0-1.33-.66-1.995-2-1.995-1.33 0-1.99.665-1.99 1.995s.66 1.995 1.99 1.995c.67 0 2-.665 2-1.995z"/><path id="AD" d="M189.528 713.448c0-.665.666-1.33 1.332-1.33s1.331.665 1.331 1.33-.665 1.33-1.331 1.33c-.666.665-1.332 0-1.332-1.33z"/><path id="AE" d="M1800.23 690.448c0-.665-.67-1.33-1.34-1.33-.66 0-1.33.665-1.33 1.33s.67 1.33 1.33 1.33c.67.665 1.34 0 1.34-1.33z"/><path id="AF" d="M25.588 617.808c0-.665.666-1.33 1.332-1.33s1.331.665 1.331 1.33-.666 1.331-1.331 1.331c-.666.665-1.332-.001-1.332-1.331z"/><path id="AG" d="M1964.17 594.808c0-.665-.67-1.33-1.34-1.33-.66 0-1.33.665-1.33 1.33s.67 1.331 1.33 1.331c.67.665 1.34-.001 1.34-1.331z"/><path id="AH" d="M173.057 747.198c0-.665.665-1.33 1.331-1.33s1.332.665 1.332 1.33-.666 1.33-1.332 1.33-1.331-.665-1.331-1.33z"/><path id="AI" d="M1816.7 724.198c0-.665-.67-1.33-1.33-1.33-.67 0-1.34.665-1.34 1.33s.67 1.33 1.34 1.33c.66 0 1.33-.665 1.33-1.33z"/><path id="AJ" d="M1803.09 889.296c0-.665-.67-1.33-1.33-1.33-.67 0-1.34.665-1.34 1.33s.67 1.33 1.34 1.33c.66.665 1.33 0 1.33-1.33z"/><path id="AK" d="M314.335 935.171c0-.665.666-1.33 1.331-1.33s1.332.665 1.332 1.33-.666 1.33-1.332 1.33-1.331-.665-1.331-1.33z"/><path id="AL" d="M1675.42 912.171c0-.665-.67-1.33-1.33-1.33-.67 0-1.33.665-1.33 1.33s.66 1.33 1.33 1.33c.66 0 1.33-.665 1.33-1.33z"/><path id="AM" d="M85.741 870.963c0-.665.666-1.33 1.332-1.33s1.332.665 1.332 1.33-.666 1.33-1.332 1.33c-.666.665-1.332 0-1.332-1.33z"/><path id="AN" d="M1904.01 847.963c0-.665-.66-1.33-1.33-1.33-.66 0-1.33.665-1.33 1.33s.67 1.33 1.33 1.33c.67.665 1.33 0 1.33-1.33z"/><path id="AO" d="M0 560.492c0-.665.666-1.33 1.332-1.33s1.332.665 1.332 1.33-.666 1.33-1.332 1.33S0 561.157 0 560.492z"/><path id="AP" d="M98.226 646.269c0-1.33 1.332-2.66 2.663-2.66s2.663 1.33 2.663 2.66-1.332 2.66-2.663 2.66-2.663-1.33-2.663-2.66z"/><path id="AQ" d="M1891.53 623.269c0-1.33-1.33-2.66-2.66-2.66-1.34 0-2.67 1.33-2.67 2.66s1.33 2.66 2.67 2.66c1.33 0 2.66-1.33 2.66-2.66z"/><path id="AR" d="M69.045 680.667c0-1.33 1.332-2.66 2.663-2.66s2.663 1.33 2.663 2.66-1.331 2.66-2.663 2.66c-1.997 0-2.663-1.33-2.663-2.66z"/><path id="AS" d="M1920.71 657.667c0-1.33-1.33-2.66-2.66-2.66-1.34 0-2.67 1.33-2.67 2.66s1.33 2.66 2.67 2.66c1.99 0 2.66-1.33 2.66-2.66z"/><path id="AT" d="M1994.91 695.796c0-1.33-1.33-2.66-2.67-2.66-1.33 0-2.66 1.33-2.66 2.66s1.33 2.66 2.66 2.66c2 0 2.67-1.33 2.67-2.66z"/><path id="AU" d="M22.398 579.207c0-1.331.666-1.996 1.997-1.996s1.997.665 1.997 1.996-.666 1.995-1.997 1.995-1.997-.665-1.997-1.995z"/><path id="AV" d="M1967.36 556.207c0-1.331-.67-1.996-2-1.996s-2 .665-2 1.996.67 1.995 2 1.995 2-.665 2-1.995z"/><path id="AW" d="M50.045 790.585c0-1.33.666-1.995 1.997-1.995s1.997.665 1.997 1.995-.666 1.996-1.997 1.996-1.997-.665-1.997-1.996z"/><path id="AX" d="M1939.71 767.585c0-1.33-.67-1.995-2-1.995s-2 .665-2 1.995.67 1.996 2 1.996 2-.665 2-1.996z"/><path id="AY" d="M126.972 1009.71c0-.67.666-1.33 1.332-1.33s1.331.66 1.331 1.33c0 .66-.666 1.33-1.331 1.33-.666.66-1.332 0-1.332-1.33z"/><path id="AZ" d="M1862.78 986.705c0-.665-.66-1.33-1.33-1.33s-1.33.665-1.33 1.33.66 1.33 1.33 1.33c.67.666 1.33 0 1.33-1.33z"/><path id="Aa" d="M36.045 952.215c0-.665.666-1.33 1.331-1.33s1.332.665 1.332 1.33-.666 1.33-1.332 1.33c-.666.665-1.331 0-1.331-1.33z"/><path id="Ab" d="M1953.71 929.215c0-.665-.67-1.33-1.33-1.33-.67 0-1.33.665-1.33 1.33s.66 1.33 1.33 1.33c.66.665 1.33 0 1.33-1.33z"/><path id="Ac" d="M69.542 986.646c0-.666.666-1.331 1.332-1.331s1.331.665 1.331 1.331-.666 1.33-1.331 1.33-1.332-.665-1.332-1.33z"/><path id="Ad" d="M1920.21 963.646c0-.666-.66-1.331-1.33-1.331s-1.33.665-1.33 1.331.66 1.33 1.33 1.33 1.33-.665 1.33-1.33z"/><path id="Ae" d="M180.698 909.891l-.666-9.311-9.987-1.33h9.987l.666-10.641.666 10.641h9.987l-9.987 1.33-.666 9.311z"/><path id="Af" d="M176.701 903.906l3.329-3.991-3.329-4.655 3.995 3.325 4.661-3.325-3.995 3.99 3.995 4.656-4.661-3.325-3.995 3.325z"/><path id="Ag" d="M1809.06 886.891l.66-9.311 9.99-1.33h-9.99l-.66-10.641-.67 10.641h-9.99l9.99 1.33.67 9.311z"/><path id="Ah" d="M1813.05 880.906l-3.33-3.991 3.33-4.655-3.99 3.325-4.66-3.325 3.99 3.99-3.99 4.656 4.66-3.325 3.99 3.325z"/><path id="Ai" d="M515.356 1030.32c0-.67.665-1.33 1.331-1.33s1.332.66 1.332 1.33c0 .66-.666 1.33-1.332 1.33s-1.331-.67-1.331-1.33z"/><path id="Aj" d="M1474.4 1007.32c0-.67-.67-1.33-1.33-1.33-.67 0-1.34.66-1.34 1.33 0 .66.67 1.33 1.34 1.33.66 0 1.33-.67 1.33-1.33z"/><path id="Ak" d="M1141.05 796.269c0-1.33 1.33-2.66 2.66-2.66s2.66 1.33 2.66 2.66-1.33 2.66-2.66 2.66c-2 0-2.66-1.33-2.66-2.66z"/><path id="Al" d="M1196.16 666.979c0-.665.67-1.33 1.33-1.33.67 0 1.34.665 1.34 1.33s-.67 1.33-1.34 1.33c-.66.665-1.33 0-1.33-1.33z"/><path id="Am" d="M1287.05 246.784c0-1.995 1.99-3.99 3.99-3.99s3.99 1.995 3.99 3.99-1.99 3.99-3.99 3.99c-2.66 0-3.99-1.33-3.99-3.99z"/><path id="An" d="M270.045 1055.03c0-1.33.666-1.99 1.998-1.99s1.997.66 1.997 1.99-.666 2-1.997 2c-.666 0-1.998-.67-1.998-2z"/><path id="Ao" d="M133.045 527.829c0-.665.666-1.33 1.332-1.33s1.331.665 1.331 1.33-.665 1.331-1.331 1.331c-.666.665-1.332 0-1.332-1.331z"/><path id="Ap" d="M1856.71 504.829c0-.665-.67-1.33-1.33-1.33-.67 0-1.33.665-1.33 1.33s.66 1.331 1.33 1.331c.66.665 1.33 0 1.33-1.331z"/><path id="Aq" d="M137.045 463.344c0-.665.666-1.33 1.332-1.33s1.331.665 1.331 1.33-.665 1.33-1.331 1.33-1.332-.665-1.332-1.33z"/><path id="Ar" d="M348.198 1039.91c0-1.33.666-2 1.997-2s1.998.67 1.998 2-.666 2-1.998 2c-.665 0-1.997-.67-1.997-2z"/><path id="As" d="M293.202 1020.94c0-.66.665-1.33 1.331-1.33s1.332.67 1.332 1.33c0 .67-.666 1.33-1.332 1.33-.666.67-1.331 0-1.331-1.33z"/><path id="At" d="M1696.55 997.941c0-.665-.66-1.33-1.33-1.33s-1.33.665-1.33 1.33.66 1.33 1.33 1.33c.67.665 1.33 0 1.33-1.33z"/><path id="Au" d="M269.225 512.269c0-1.33 1.332-2.66 2.664-2.66s2.663 1.33 2.663 2.66-1.332 2.66-2.663 2.66-2.664-1.33-2.664-2.66z"/><path id="Av" d="M240.045 546.667c0-1.33 1.332-2.66 2.664-2.66s2.663 1.33 2.663 2.66-1.332 2.661-2.663 2.661c-1.998 0-2.664-1.33-2.664-2.661z"/><path id="Aw" d="M1749.71 523.667c0-1.33-1.33-2.66-2.66-2.66-1.34 0-2.67 1.33-2.67 2.66s1.33 2.661 2.67 2.661c1.99 0 2.66-1.33 2.66-2.661z"/><path id="Ax" d="M1994.91 441.543c0-1.33-1.33-2.66-2.67-2.66-1.33 0-2.66 1.33-2.66 2.66s1.33 2.661 2.66 2.661c2 0 2.67-1.33 2.67-2.661z"/><path id="Ay" d="M7.045 536.586c0-1.33.666-1.995 1.997-1.995s1.997.665 1.997 1.995-.666 1.995-1.997 1.995-1.997-.665-1.997-1.995z"/><path id="Az" d="M1982.71 513.586c0-1.33-.67-1.995-2-1.995s-2 .665-2 1.995.67 1.995 2 1.995 2-.665 2-1.995z"/><path id="BA" d="M665.698 1037.17l-.666-9.98-9.987-.67 9.987-.66.666-9.98.666 9.98 9.987.66-9.987.67-.666 9.98z"/><path id="BB" d="M661.701 1031.18l3.329-4.65-3.329-4.66 3.995 3.99 4.66-3.99-3.994 4.66 3.994 3.99-4.66-3.33-3.995 3.99z"/><path id="BC" d="M1324.06 1014.17l.66-9.98 9.99-.67-9.99-.66-.66-9.976-.67 9.976-9.99.66 9.99.67.67 9.98z"/><path id="BD" d="M1328.05 1008.18l-3.33-4.65 3.33-4.66-3.99 3.99-4.66-3.99 3.99 4.66-3.99 3.99 4.66-3.33 3.99 3.99z"/></defs></svg>